<?xml version="1.0" encoding="UTF-8"?><!DOCTYPE svg PUBLIC "-//W3C//DTD SVG 1.1//EN" "http://www.w3.org/Graphics/SVG/1.1/DTD/svg11.dtd"><svg xmlns="http://www.w3.org/2000/svg" xmlns:xlink="http://www.w3.org/1999/xlink"><defs>
<clipPath id="clip0">
<rect width="16" height="16" fill="white"/>
</clipPath>

<clipPath id="clip0">
<rect width="16" height="16" fill="white"/>
</clipPath>

<clipPath id="clip0">
<rect width="20" height="20" fill="white"/>
</clipPath>

<clipPath id="clip0">
<rect width="20" height="20" fill="white" transform="translate(0 0.76416)"/>
</clipPath>

<clipPath id="clip0">
<rect width="20" height="20" fill="white" transform="translate(0 0.76416)"/>
</clipPath>
</defs><symbol id="icon-calendar-duration" viewBox="0 0 16 16">
<path d="M12.0625 7.1875C12.4077 7.1875 12.6875 6.90768 12.6875 6.5625C12.6875 6.21732 12.4077 5.9375 12.0625 5.9375C11.7173 5.9375 11.4375 6.21732 11.4375 6.5625C11.4375 6.90768 11.7173 7.1875 12.0625 7.1875Z" fill="#009D98"/>
<path d="M13.5 1.25H12.6875V0.625C12.6875 0.279813 12.4077 0 12.0625 0C11.7173 0 11.4375 0.279813 11.4375 0.625V1.25H8.59375V0.625C8.59375 0.279813 8.31394 0 7.96875 0C7.62356 0 7.34375 0.279813 7.34375 0.625V1.25H4.53125V0.625C4.53125 0.279813 4.25144 0 3.90625 0C3.56106 0 3.28125 0.279813 3.28125 0.625V1.25H2.5C1.1215 1.25 0 2.3715 0 3.75V13.5C0 14.8785 1.1215 16 2.5 16H7.28125C7.62644 16 7.90625 15.7202 7.90625 15.375C7.90625 15.0298 7.62644 14.75 7.28125 14.75H2.5C1.81075 14.75 1.25 14.1892 1.25 13.5V3.75C1.25 3.06075 1.81075 2.5 2.5 2.5H3.28125V3.125C3.28125 3.47019 3.56106 3.75 3.90625 3.75C4.25144 3.75 4.53125 3.47019 4.53125 3.125V2.5H7.34375V3.125C7.34375 3.47019 7.62356 3.75 7.96875 3.75C8.31394 3.75 8.59375 3.47019 8.59375 3.125V2.5H11.4375V3.125C11.4375 3.47019 11.7173 3.75 12.0625 3.75C12.4077 3.75 12.6875 3.47019 12.6875 3.125V2.5H13.5C14.1892 2.5 14.75 3.06075 14.75 3.75V7.3125C14.75 7.65769 15.0298 7.9375 15.375 7.9375C15.7202 7.9375 16 7.65769 16 7.3125V3.75C16 2.3715 14.8785 1.25 13.5 1.25Z" fill="#009D98"/>
<path d="M12.2188 8.4375C10.1337 8.4375 8.4375 10.1337 8.4375 12.2188C8.4375 14.3038 10.1337 16 12.2188 16C14.3038 16 16 14.3038 16 12.2188C16 10.1337 14.3038 8.4375 12.2188 8.4375ZM12.2188 14.75C10.823 14.75 9.6875 13.6145 9.6875 12.2188C9.6875 10.823 10.823 9.6875 12.2188 9.6875C13.6145 9.6875 14.75 10.823 14.75 12.2188C14.75 13.6145 13.6145 14.75 12.2188 14.75Z" fill="#009D98"/>
<path d="M13.125 11.5938H12.8438V10.9375C12.8438 10.5923 12.5639 10.3125 12.2188 10.3125C11.8736 10.3125 11.5938 10.5923 11.5938 10.9375V12.2188C11.5938 12.5639 11.8736 12.8438 12.2188 12.8438H13.125C13.4702 12.8438 13.75 12.5639 13.75 12.2188C13.75 11.8736 13.4702 11.5938 13.125 11.5938Z" fill="#009D98"/>
<path d="M9.34375 7.1875C9.68893 7.1875 9.96875 6.90768 9.96875 6.5625C9.96875 6.21732 9.68893 5.9375 9.34375 5.9375C8.99857 5.9375 8.71875 6.21732 8.71875 6.5625C8.71875 6.90768 8.99857 7.1875 9.34375 7.1875Z" fill="#009D98"/>
<path d="M6.625 9.90625C6.97018 9.90625 7.25 9.62643 7.25 9.28125C7.25 8.93607 6.97018 8.65625 6.625 8.65625C6.27982 8.65625 6 8.93607 6 9.28125C6 9.62643 6.27982 9.90625 6.625 9.90625Z" fill="#009D98"/>
<path d="M3.90625 7.1875C4.25143 7.1875 4.53125 6.90768 4.53125 6.5625C4.53125 6.21732 4.25143 5.9375 3.90625 5.9375C3.56107 5.9375 3.28125 6.21732 3.28125 6.5625C3.28125 6.90768 3.56107 7.1875 3.90625 7.1875Z" fill="#009D98"/>
<path d="M3.90625 9.90625C4.25143 9.90625 4.53125 9.62643 4.53125 9.28125C4.53125 8.93607 4.25143 8.65625 3.90625 8.65625C3.56107 8.65625 3.28125 8.93607 3.28125 9.28125C3.28125 9.62643 3.56107 9.90625 3.90625 9.90625Z" fill="#009D98"/>
<path d="M3.90625 12.625C4.25143 12.625 4.53125 12.3452 4.53125 12C4.53125 11.6548 4.25143 11.375 3.90625 11.375C3.56107 11.375 3.28125 11.6548 3.28125 12C3.28125 12.3452 3.56107 12.625 3.90625 12.625Z" fill="#009D98"/>
<path d="M6.625 12.625C6.97018 12.625 7.25 12.3452 7.25 12C7.25 11.6548 6.97018 11.375 6.625 11.375C6.27982 11.375 6 11.6548 6 12C6 12.3452 6.27982 12.625 6.625 12.625Z" fill="#009D98"/>
<path d="M6.625 7.1875C6.97018 7.1875 7.25 6.90768 7.25 6.5625C7.25 6.21732 6.97018 5.9375 6.625 5.9375C6.27982 5.9375 6 6.21732 6 6.5625C6 6.90768 6.27982 7.1875 6.625 7.1875Z" fill="#009D98"/>
</symbol><symbol id="icon-calendar" viewBox="0 0 16 16">
<path d="M13.9375 1.25H12.5V0.5C12.5 0.223875 12.2762 0 12 0C11.7238 0 11.5 0.223875 11.5 0.5V1.25H4.5V0.5C4.5 0.223875 4.27616 0 4 0C3.72384 0 3.5 0.223875 3.5 0.5V1.25H2.0625C0.925219 1.25 0 2.17522 0 3.3125V13.9375C0 15.0748 0.925219 16 2.0625 16H13.9375C15.0748 16 16 15.0748 16 13.9375V3.3125C16 2.17522 15.0748 1.25 13.9375 1.25ZM15 13.9375C15 14.5243 14.5243 15 13.9375 15H2.0625C1.47569 15 1 14.5243 1 13.9375V5.65625C1 5.56997 1.06997 5.5 1.15625 5.5H14.8438C14.93 5.5 15 5.56997 15 5.65625V13.9375Z" fill="#188182"/>
</symbol><symbol id="icon-man" viewBox="0 0 16 16">
<g clip-path="url(#clip0)">
<path d="M9.9911 2.81007C10.7662 2.86188 11.4365 2.27557 11.4883 1.50047C11.5402 0.725381 10.9538 0.055006 10.1788 0.00319354C9.40366 -0.048619 8.73332 0.537694 8.6815 1.31279C8.62966 2.08788 9.216 2.75822 9.9911 2.81007Z" fill="#188182"/>
<path d="M5.64533 8.75321C5.56315 8.71883 5.48783 8.6749 5.42011 8.62333L4.50724 10.6029L3.82371 10.2877C3.55768 10.165 3.24259 10.2812 3.11993 10.5472L1.31568 14.4597C1.19303 14.7258 1.30921 15.0408 1.57525 15.1635L1.80784 15.2708C1.76887 15.307 1.73606 15.3512 1.71237 15.4025C1.615 15.6137 1.70725 15.8639 1.9184 15.9613C2.12959 16.0586 2.37971 15.9664 2.47709 15.7552C2.50074 15.7039 2.51303 15.6503 2.51531 15.597L2.7479 15.7043C3.01393 15.827 3.32902 15.7108 3.45168 15.4448L5.25593 11.5322C5.3658 11.294 5.28361 11.0167 5.07418 10.8733L6.01555 8.83189C5.89177 8.82905 5.76646 8.80383 5.64533 8.75321Z" fill="#188182"/>
<path d="M14.2479 6.03789L12.3416 5.55811L11.4806 4.56639L11.498 4.30611C11.533 3.78251 11.137 3.32967 10.6134 3.29467L8.92271 3.18161C8.41831 3.14789 7.97971 3.51433 7.91693 4.00936L8.30318 3.89839L6.74306 4.73192C6.61271 4.80158 6.51037 4.91405 6.45337 5.05042L5.4469 7.45765C5.31018 7.78468 5.46443 8.16059 5.79146 8.29734C6.1164 8.43321 6.49352 8.28187 6.63115 7.95277L7.54946 5.75636L8.90809 5.03049L7.91131 5.87283L7.76749 6.2168L7.58606 8.9305L7.59518 8.93109C7.59602 8.96215 7.68693 10.7785 7.73124 11.6698L6.23081 14.9058C6.05187 15.2917 6.21965 15.7495 6.60552 15.9284C6.99134 16.1073 7.44921 15.9396 7.62815 15.5537L9.20856 12.1453C9.26109 12.032 9.28527 11.9077 9.27905 11.783L9.14205 9.03453L9.48924 9.05774L10.3414 11.5919L10.6648 15.2967C10.7018 15.7209 11.0757 16.034 11.499 15.997C11.9228 15.96 12.2362 15.5865 12.1993 15.1628L11.8679 11.3665C11.8626 11.3057 11.8501 11.2458 11.8306 11.188L11.1516 9.16893L11.1728 9.17034L11.3591 6.3844L11.5046 6.55202C11.5907 6.65121 11.7052 6.72162 11.8326 6.75365L13.9347 7.28271C14.2777 7.36915 14.6271 7.16127 14.7137 6.81699C14.8002 6.47318 14.5916 6.12443 14.2479 6.03789Z" fill="#188182"/>
</g>

</symbol><symbol id="icon-people-count" viewBox="0 0 16 16">
<g clip-path="url(#clip0)">
<path d="M12.9714 7.81785C14.6112 6.34367 14.7455 3.8193 13.2713 2.17948C11.9193 0.675506 9.65618 0.420005 8.00284 1.58471C6.20051 0.312728 3.70831 0.74267 2.43633 2.54497C1.26918 4.19875 1.52364 6.46417 3.02859 7.81781C1.15866 8.80352 -0.00842514 10.7469 4.58028e-05 12.8606V14.5749C4.58028e-05 14.8905 0.255882 15.1464 0.571483 15.1464H15.4285C15.7441 15.1464 16 14.8905 16 14.5749V12.8606C16.0084 10.7469 14.8413 8.80352 12.9714 7.81785ZM10.2857 2.00357C11.8614 2.00183 13.1402 3.27779 13.142 4.85352C13.1432 5.97731 12.4847 6.99714 11.46 7.45839C11.416 7.47837 11.372 7.49666 11.3274 7.51554C11.1864 7.57243 11.0409 7.61769 10.8925 7.65097C10.864 7.65727 10.8354 7.66068 10.8063 7.66641C10.6405 7.69818 10.4722 7.71519 10.3034 7.71727C10.2274 7.71727 10.1508 7.71154 10.0748 7.70471C10.0462 7.70471 10.0177 7.70471 9.98909 7.69899C9.66432 7.66075 9.34838 7.56764 9.05481 7.42356C9.04396 7.41841 9.03137 7.41898 9.02053 7.41442C8.96337 7.387 8.90625 7.363 8.85539 7.33213C8.85998 7.3264 8.86283 7.32014 8.86738 7.31441C9.12941 6.97772 9.33599 6.60138 9.47936 6.19956L9.49708 6.15155C9.56226 5.95963 9.61289 5.76309 9.64851 5.56354C9.65367 5.53441 9.65765 5.50639 9.66224 5.47498C9.69529 5.27185 9.71267 5.0665 9.71424 4.86069C9.7126 4.65527 9.69522 4.4503 9.66224 4.24753C9.65765 4.21783 9.65367 4.19038 9.64851 4.15897C9.61289 3.95945 9.56226 3.76288 9.49708 3.57096L9.47936 3.52295C9.33599 3.12113 9.12938 2.74479 8.86738 2.4081C8.86279 2.40237 8.85995 2.39611 8.85539 2.39039C9.28952 2.13713 9.78308 2.0036 10.2857 2.00357ZM2.85716 4.86072C2.85311 3.28687 4.12566 2.00772 5.69952 2.00367C6.43726 2.00176 7.14701 2.28606 7.67944 2.79672C7.71259 2.82873 7.74516 2.86071 7.77714 2.89385C7.87528 2.99668 7.96578 3.1065 8.04801 3.22241C8.07315 3.25784 8.09602 3.29557 8.11943 3.33213C8.19928 3.45505 8.26939 3.58402 8.32912 3.71785C8.34342 3.75042 8.35427 3.78357 8.36682 3.81612C8.42706 3.96414 8.47447 4.11708 8.50855 4.27324C8.51257 4.29039 8.51371 4.30753 8.51713 4.32524C8.58951 4.68005 8.58951 5.04584 8.51713 5.40065C8.51371 5.41836 8.51254 5.4355 8.50855 5.45265C8.4745 5.60881 8.42709 5.76175 8.36682 5.90978C8.35427 5.94236 8.34339 5.9755 8.32912 6.00805C8.26932 6.14167 8.19921 6.27045 8.11943 6.39319C8.09599 6.42975 8.07315 6.46749 8.04801 6.50291C7.96581 6.61886 7.87528 6.72865 7.77714 6.83147C7.74513 6.86462 7.71255 6.89663 7.67944 6.9286C7.44808 7.14908 7.18133 7.32911 6.8903 7.46116C6.84403 7.48229 6.79716 7.50175 6.74974 7.51832C6.612 7.57299 6.47027 7.61692 6.32576 7.64974C6.28977 7.65774 6.2526 7.66229 6.21604 7.66859C6.06089 7.69748 5.90355 7.71332 5.74575 7.71603H5.68291C5.52511 7.71335 5.36778 7.69748 5.21262 7.66859C5.17606 7.66229 5.13889 7.65774 5.1029 7.64974C4.95839 7.61692 4.81663 7.57299 4.67892 7.51832C4.63147 7.49947 4.58463 7.48005 4.53836 7.46116C3.51602 6.99958 2.85847 5.9824 2.85716 4.86072ZM10.2857 14.0035H1.14289V12.8607C1.13452 10.9243 2.35453 9.19546 4.18171 8.55442C5.1626 8.9628 6.26593 8.9628 7.24685 8.55442C7.43763 8.62413 7.62356 8.70639 7.80342 8.80071C7.92228 8.86185 8.032 8.93156 8.14628 9.00184C8.22057 9.04811 8.29598 9.09328 8.36743 9.14414C8.47772 9.22242 8.58171 9.30756 8.684 9.39498C8.74972 9.45214 8.81485 9.50926 8.87655 9.56641C8.97084 9.65554 9.0594 9.74983 9.14454 9.84642C9.20568 9.91613 9.26511 9.98698 9.3217 10.0601C9.39656 10.1561 9.46798 10.2544 9.53427 10.3555C9.59143 10.4413 9.64229 10.5304 9.69254 10.6196C9.7497 10.7178 9.80226 10.8161 9.85024 10.9184C9.89826 11.0207 9.94054 11.1327 9.98166 11.2418C10.0177 11.3367 10.056 11.431 10.0857 11.5276C10.1257 11.6601 10.1537 11.7972 10.1816 11.9344C10.1988 12.0155 10.2211 12.095 10.2336 12.1772C10.2675 12.4035 10.2849 12.6319 10.2856 12.8607V14.0035H10.2857ZM14.8571 14.0035H11.4285V12.8607C11.4285 12.6818 11.4183 12.5047 11.4023 12.3292C11.3977 12.2778 11.3897 12.227 11.384 12.1755C11.3685 12.0492 11.3508 11.9241 11.3268 11.8001C11.3166 11.7472 11.3057 11.694 11.2943 11.6407C11.2668 11.5134 11.235 11.3873 11.1988 11.2624C11.1868 11.2212 11.176 11.1795 11.1634 11.139C11.0034 10.6275 10.7715 10.1413 10.4748 9.69498L10.4525 9.6624C10.3543 9.51649 10.2493 9.37536 10.1377 9.23899L10.1337 9.23383C10.0194 9.09214 9.89541 8.95439 9.76513 8.82412C9.77256 8.82412 9.78057 8.82412 9.78857 8.82412C9.94982 8.84531 10.1122 8.85676 10.2749 8.8584H10.3063C10.4568 8.8571 10.6071 8.84735 10.7566 8.82927C10.8034 8.82355 10.8497 8.81498 10.8966 8.80754C11.0181 8.78889 11.1381 8.76469 11.2566 8.73499C11.2903 8.72642 11.3246 8.71841 11.3589 8.7087C11.5143 8.66642 11.667 8.61449 11.816 8.55328C13.6445 9.19369 14.8656 10.9233 14.8571 12.8607V14.0035H14.8571Z" fill="#009D98"/>
</g>

</symbol><symbol id="icon-pin" viewBox="0 0 16 16">
<path d="M8 0C4.64 0 1.90625 2.73375 1.90625 6.09375C1.90625 7.42344 2.32625 8.68687 3.12188 9.74687L7.62437 15.811C7.63562 15.8257 7.65281 15.8313 7.66531 15.8444C7.89031 16.0853 8.215 16.0247 8.37531 15.811C9.67188 14.081 12.0484 10.85 12.9622 9.63125C12.9622 9.63125 12.9625 9.63031 12.9628 9.62969L12.9684 9.62219C13.7047 8.58781 14.0938 7.36781 14.0938 6.09375C14.0938 2.73375 11.36 0 8 0ZM8 9.38125C6.19094 9.38125 4.7125 7.90281 4.7125 6.09375C4.7125 4.28469 6.19094 2.80625 8 2.80625C9.80906 2.80625 11.2875 4.28469 11.2875 6.09375C11.2875 7.90281 9.80906 9.38125 8 9.38125Z" fill="#188182"/>
</symbol><symbol id="icon-star" viewBox="0 0 20 20">
<g clip-path="url(#clip0)">
<path d="M19.9479 7.67185C19.8169 7.26687 19.4577 6.97923 19.0328 6.94093L13.2602 6.41678L10.9776 1.07408C10.8093 0.682532 10.426 0.429077 10.0001 0.429077C9.57422 0.429077 9.19091 0.682532 9.0226 1.075L6.73998 6.41678L0.966514 6.94093C0.542309 6.98015 0.184023 7.26687 0.0523365 7.67185C-0.0793503 8.07683 0.0422654 8.52102 0.363166 8.80103L4.72653 12.6277L3.43987 18.2954C3.34573 18.7122 3.50747 19.1429 3.85325 19.3929C4.0391 19.5272 4.25655 19.5955 4.47582 19.5955C4.66488 19.5955 4.85242 19.5446 5.02073 19.4438L10.0001 16.4678L14.9776 19.4438C15.3419 19.663 15.801 19.643 16.146 19.3929C16.492 19.1422 16.6536 18.7113 16.5594 18.2954L15.2728 12.6277L19.6361 8.80179C19.957 8.52102 20.0796 8.07759 19.9479 7.67185Z" fill="#FFC107"/>
</g>

</symbol><symbol id="logo-fb" viewBox="0 0 20 21">
<g clip-path="url(#clip0)">
<path d="M11.5489 20.7642V11.6419H14.6096L15.0688 8.08572H11.5489V5.81563C11.5489 4.78636 11.8335 4.08492 13.3112 4.08492L15.1927 4.08415V0.90339C14.8673 0.861105 13.7504 0.76416 12.4504 0.76416C9.7358 0.76416 7.87733 2.42113 7.87733 5.46343V8.08572H4.80731V11.6419H7.87733V20.7642H11.5489Z" fill="white"/>
</g>

</symbol><symbol id="logo-twitter" viewBox="0 0 20 21">
<path d="M6.51558 18.2729C13.5914 18.2729 17.4609 12.4108 17.4609 7.3276C17.4609 7.1611 17.4575 6.9953 17.45 6.83041C18.2011 6.28736 18.8539 5.60969 19.3689 4.83834C18.6797 5.14484 17.9378 5.35089 17.1598 5.44412C17.954 4.96768 18.5638 4.21434 18.8513 3.31628C18.1081 3.75694 17.2849 4.07708 16.4086 4.25C15.7067 3.50227 14.7071 3.03467 13.6005 3.03467C11.4762 3.03467 9.75337 4.75739 9.75337 6.88098C9.75337 7.18301 9.7872 7.47655 9.85313 7.75816C6.65593 7.59729 3.82073 6.06663 1.92361 3.73894C1.59337 4.30733 1.4028 4.9678 1.4028 5.67253C1.4028 7.007 2.08196 8.1854 3.11463 8.87454C2.48351 8.85516 1.8907 8.6819 1.37241 8.39352C1.37184 8.40969 1.37184 8.4254 1.37184 8.4426C1.37184 10.3057 2.69782 11.8612 4.45827 12.2137C4.13491 12.3016 3.7947 12.349 3.44383 12.349C3.19638 12.349 2.95513 12.3247 2.72075 12.2796C3.21049 13.8081 4.63073 14.9203 6.31446 14.9515C4.99777 15.9835 3.33914 16.5982 1.5365 16.5982C1.22644 16.5982 0.919945 16.5805 0.618835 16.5449C2.32138 17.6362 4.34303 18.273 6.5157 18.273" fill="white"/>
</symbol><symbol id="logo-vimeo" viewBox="0 0 20 21">
<g clip-path="url(#clip0)">
<path d="M17.0808 2.01818C14.3075 1.91735 12.4342 3.50735 11.4458 6.76318C11.9542 6.53568 12.4483 6.43402 12.9267 6.43402C13.9425 6.43402 14.3917 7.01485 14.2717 8.16902C14.2117 8.86818 13.765 9.88485 12.9283 11.2223C12.0875 12.5598 11.4592 13.2298 11.0408 13.2298C9.7725 13.2298 9.01 7.15985 8.75166 5.50235C8.3925 3.19818 7.435 2.12068 5.87916 2.27152C4.45083 2.40735 1.95833 4.97902 0 6.72235L0.940833 7.94902C1.83667 7.31402 2.35917 6.99568 2.50833 6.99568C4.0675 6.99568 4.8225 12.3015 6.03333 16.2473C6.84583 18.4248 7.82 19.514 8.99416 19.514C10.8808 19.514 13.1792 17.7273 15.9025 14.1523C18.5317 10.7298 19.8933 8.03235 19.9808 6.06485L19.9917 6.05652C20.1033 3.41902 19.1408 2.06902 17.0808 2.01818Z" fill="white"/>
</g>

</symbol></svg>