<svg width="16" height="16" viewBox="0 0 16 16" fill="none" xmlns="http://www.w3.org/2000/svg">
<g clip-path="url(#clip0)">
<path d="M9.9911 2.81007C10.7662 2.86188 11.4365 2.27557 11.4883 1.50047C11.5402 0.725381 10.9538 0.055006 10.1788 0.00319354C9.40366 -0.048619 8.73332 0.537694 8.6815 1.31279C8.62966 2.08788 9.216 2.75822 9.9911 2.81007Z" fill="#188182"/>
<path d="M5.64533 8.75321C5.56315 8.71883 5.48783 8.6749 5.42011 8.62333L4.50724 10.6029L3.82371 10.2877C3.55768 10.165 3.24259 10.2812 3.11993 10.5472L1.31568 14.4597C1.19303 14.7258 1.30921 15.0408 1.57525 15.1635L1.80784 15.2708C1.76887 15.307 1.73606 15.3512 1.71237 15.4025C1.615 15.6137 1.70725 15.8639 1.9184 15.9613C2.12959 16.0586 2.37971 15.9664 2.47709 15.7552C2.50074 15.7039 2.51303 15.6503 2.51531 15.597L2.7479 15.7043C3.01393 15.827 3.32902 15.7108 3.45168 15.4448L5.25593 11.5322C5.3658 11.294 5.28361 11.0167 5.07418 10.8733L6.01555 8.83189C5.89177 8.82905 5.76646 8.80383 5.64533 8.75321Z" fill="#188182"/>
<path d="M14.2479 6.03789L12.3416 5.55811L11.4806 4.56639L11.498 4.30611C11.533 3.78251 11.137 3.32967 10.6134 3.29467L8.92271 3.18161C8.41831 3.14789 7.97971 3.51433 7.91693 4.00936L8.30318 3.89839L6.74306 4.73192C6.61271 4.80158 6.51037 4.91405 6.45337 5.05042L5.4469 7.45765C5.31018 7.78468 5.46443 8.16059 5.79146 8.29734C6.1164 8.43321 6.49352 8.28187 6.63115 7.95277L7.54946 5.75636L8.90809 5.03049L7.91131 5.87283L7.76749 6.2168L7.58606 8.9305L7.59518 8.93109C7.59602 8.96215 7.68693 10.7785 7.73124 11.6698L6.23081 14.9058C6.05187 15.2917 6.21965 15.7495 6.60552 15.9284C6.99134 16.1073 7.44921 15.9396 7.62815 15.5537L9.20856 12.1453C9.26109 12.032 9.28527 11.9077 9.27905 11.783L9.14205 9.03453L9.48924 9.05774L10.3414 11.5919L10.6648 15.2967C10.7018 15.7209 11.0757 16.034 11.499 15.997C11.9228 15.96 12.2362 15.5865 12.1993 15.1628L11.8679 11.3665C11.8626 11.3057 11.8501 11.2458 11.8306 11.188L11.1516 9.16893L11.1728 9.17034L11.3591 6.3844L11.5046 6.55202C11.5907 6.65121 11.7052 6.72162 11.8326 6.75365L13.9347 7.28271C14.2777 7.36915 14.6271 7.16127 14.7137 6.81699C14.8002 6.47318 14.5916 6.12443 14.2479 6.03789Z" fill="#188182"/>
</g>
<defs>
<clipPath id="clip0">
<rect width="16" height="16" fill="white"/>
</clipPath>
</defs>
</svg>
