<svg width="20" height="21" viewBox="0 0 20 21" fill="none" xmlns="http://www.w3.org/2000/svg">
<path d="M6.51558 18.2729C13.5914 18.2729 17.4609 12.4108 17.4609 7.3276C17.4609 7.1611 17.4575 6.9953 17.45 6.83041C18.2011 6.28736 18.8539 5.60969 19.3689 4.83834C18.6797 5.14484 17.9378 5.35089 17.1598 5.44412C17.954 4.96768 18.5638 4.21434 18.8513 3.31628C18.1081 3.75694 17.2849 4.07708 16.4086 4.25C15.7067 3.50227 14.7071 3.03467 13.6005 3.03467C11.4762 3.03467 9.75337 4.75739 9.75337 6.88098C9.75337 7.18301 9.7872 7.47655 9.85313 7.75816C6.65593 7.59729 3.82073 6.06663 1.92361 3.73894C1.59337 4.30733 1.4028 4.9678 1.4028 5.67253C1.4028 7.007 2.08196 8.1854 3.11463 8.87454C2.48351 8.85516 1.8907 8.6819 1.37241 8.39352C1.37184 8.40969 1.37184 8.4254 1.37184 8.4426C1.37184 10.3057 2.69782 11.8612 4.45827 12.2137C4.13491 12.3016 3.7947 12.349 3.44383 12.349C3.19638 12.349 2.95513 12.3247 2.72075 12.2796C3.21049 13.8081 4.63073 14.9203 6.31446 14.9515C4.99777 15.9835 3.33914 16.5982 1.5365 16.5982C1.22644 16.5982 0.919945 16.5805 0.618835 16.5449C2.32138 17.6362 4.34303 18.273 6.5157 18.273" fill="white"/>
</svg>
