<svg width="20" height="21" viewBox="0 0 20 21" fill="none" xmlns="http://www.w3.org/2000/svg">
<g clip-path="url(#clip0)">
<path d="M17.0808 2.01818C14.3075 1.91735 12.4342 3.50735 11.4458 6.76318C11.9542 6.53568 12.4483 6.43402 12.9267 6.43402C13.9425 6.43402 14.3917 7.01485 14.2717 8.16902C14.2117 8.86818 13.765 9.88485 12.9283 11.2223C12.0875 12.5598 11.4592 13.2298 11.0408 13.2298C9.7725 13.2298 9.01 7.15985 8.75166 5.50235C8.3925 3.19818 7.435 2.12068 5.87916 2.27152C4.45083 2.40735 1.95833 4.97902 0 6.72235L0.940833 7.94902C1.83667 7.31402 2.35917 6.99568 2.50833 6.99568C4.0675 6.99568 4.8225 12.3015 6.03333 16.2473C6.84583 18.4248 7.82 19.514 8.99416 19.514C10.8808 19.514 13.1792 17.7273 15.9025 14.1523C18.5317 10.7298 19.8933 8.03235 19.9808 6.06485L19.9917 6.05652C20.1033 3.41902 19.1408 2.06902 17.0808 2.01818Z" fill="white"/>
</g>
<defs>
<clipPath id="clip0">
<rect width="20" height="20" fill="white" transform="translate(0 0.76416)"/>
</clipPath>
</defs>
</svg>
