<svg width="441" height="120" viewBox="0 0 441 120" fill="none" xmlns="http://www.w3.org/2000/svg">
<path d="M12.7649 10.1316C12.7649 9.90798 12.6944 9.71485 12.5533 9.55222C12.4123 9.36926 12.2006 9.27778 11.9185 9.27778H3.84704C3.62536 9.27778 3.40367 9.3591 3.18198 9.52173C2.98045 9.68436 2.87968 9.88765 2.87968 10.1316V51.0231C2.87968 51.572 3.20213 51.8465 3.84704 51.8465H12.4022C13.0874 51.8465 13.6517 51.4907 14.0951 50.7792C15.3043 48.7666 16.5739 46.6423 17.9041 44.4061C19.2543 42.1496 20.6147 39.8829 21.9851 37.6061C23.3556 35.3292 24.7059 33.0727 26.036 30.8366C27.3863 28.6004 28.666 26.4862 29.8752 24.494V51.0231C29.8752 51.572 30.1977 51.8465 30.8426 51.8465H38.9443C39.4884 51.8465 39.7605 51.572 39.7605 51.0231V10.1316C39.7605 9.90798 39.6899 9.71485 39.5489 9.55222C39.4279 9.36926 39.2264 9.27778 38.9443 9.27778H29.7241C29.059 9.27778 28.5048 9.6437 28.0614 10.3755L12.7649 35.2276V10.1316ZM13.6718 32.0258C15.9492 28.3259 18.2064 24.6363 20.4434 20.9567C22.7006 17.2772 24.9779 13.5875 27.2754 9.88765C27.5576 9.42008 27.9103 9.05416 28.3335 8.78989C28.7567 8.50528 29.2202 8.36298 29.7241 8.36298H38.9443C39.5287 8.36298 39.962 8.54594 40.2442 8.91186C40.5263 9.25745 40.6674 9.66403 40.6674 10.1316V51.0231C40.6674 52.1819 40.093 52.7613 38.9443 52.7613H30.8426C29.5931 52.7613 28.9683 52.1819 28.9683 51.0231V27.8177C26.6305 31.7412 24.2826 35.6545 21.9247 39.5577C19.5667 43.4405 17.2189 47.3436 14.8811 51.2671C14.2563 52.2632 13.43 52.7613 12.4022 52.7613H3.84704C2.59753 52.7613 1.97277 52.1819 1.97277 51.0231V10.1316C1.97277 9.86732 2.03323 9.63354 2.15415 9.43025C2.27507 9.20663 2.42623 9.02367 2.60761 8.88137C2.78899 8.71874 2.99052 8.59676 3.21221 8.51545C3.4339 8.4138 3.64551 8.36298 3.84704 8.36298H11.9185C12.5029 8.36298 12.9362 8.54594 13.2184 8.91186C13.5207 9.25745 13.6718 9.66403 13.6718 10.1316V32.0258Z" fill="black"/>
<path d="M72.2428 40.7164C71.8599 40.9807 71.4165 41.2754 70.9127 41.6007C70.429 41.9056 69.8949 42.1902 69.3105 42.4545C68.7462 42.7188 68.1315 42.9424 67.4664 43.1254C66.8215 43.288 66.1363 43.3693 65.4108 43.3693C64.1814 43.3693 63.0226 43.1355 61.9343 42.668C60.8662 42.2004 59.929 41.5499 59.1229 40.7164C58.3369 39.8626 57.7122 38.8461 57.2486 37.6671C56.8052 36.4677 56.5836 35.1463 56.5836 33.7029C56.5836 32.2596 56.8254 30.9382 57.3091 29.7388C57.7928 28.5394 58.4377 27.5128 59.2438 26.659C60.0499 25.7848 60.977 25.114 62.025 24.6464C63.0931 24.1585 64.2116 23.9146 65.3805 23.9146C66.5897 23.9146 67.7486 24.0975 68.857 24.4635C69.9654 24.809 71.1746 25.4392 72.4846 26.354H72.4544C72.6156 26.4557 72.7768 26.5065 72.9381 26.5065C73.1195 26.5065 73.2303 26.4557 73.2706 26.354H73.2404L77.3819 19.8895C77.4424 19.8285 77.4726 19.7573 77.4726 19.676C77.4726 19.5744 77.4424 19.4829 77.3819 19.4016C77.3214 19.3203 77.2509 19.2389 77.1703 19.1576C76.3642 18.5274 75.5379 17.9582 74.6914 17.45C73.845 16.9418 72.9381 16.5047 71.9707 16.1388C71.0235 15.7729 70.0057 15.4984 68.9175 15.3155C67.8292 15.1122 66.63 15.0105 65.3201 15.0105C62.7807 15.0105 60.3926 15.4984 58.1555 16.4742C55.9185 17.45 53.9636 18.7815 52.2909 20.4688C50.6383 22.1561 49.3283 24.1382 48.361 26.415C47.4137 28.6715 46.9401 31.0907 46.9401 33.6724C46.9401 36.4168 47.4238 38.9478 48.3912 41.2653C49.3787 43.5624 50.7189 45.5445 52.4118 47.2115C54.1047 48.8784 56.0797 50.1795 58.3369 51.1146C60.6142 52.0498 63.0427 52.5173 65.6224 52.5173C66.6704 52.5173 67.7385 52.3953 68.8268 52.1514C69.9151 51.9075 70.963 51.5822 71.9707 51.1756C72.9985 50.769 73.9558 50.3015 74.8426 49.7729C75.7293 49.2444 76.4952 48.6955 77.1401 48.1263C77.4021 47.8823 77.5331 47.6892 77.5331 47.5469C77.5331 47.3436 77.4424 47.1098 77.261 46.8456H77.2912C76.606 45.8088 75.9107 44.7923 75.2053 43.7962C74.5 42.7798 73.8047 41.7532 73.1195 40.7164C73.0388 40.5944 72.9179 40.5334 72.7567 40.5334C72.5753 40.5334 72.404 40.5944 72.2428 40.7164ZM71.6986 39.9846C71.9808 39.7609 72.3335 39.6491 72.7567 39.6491C72.9784 39.6491 73.19 39.6898 73.3915 39.7711C73.5931 39.8524 73.7644 40.0049 73.9054 40.2285H73.8752C74.5604 41.2653 75.2456 42.2919 75.9309 43.3083C76.6362 44.3044 77.3315 45.3209 78.0167 46.3577C78.2586 46.7846 78.3997 47.181 78.44 47.5469C78.44 47.9738 78.2082 48.3906 77.7447 48.7971C77.0595 49.3663 76.2332 49.9254 75.2658 50.4743C74.3186 51.0231 73.2908 51.511 72.1823 51.9379C71.094 52.3649 69.9755 52.7104 68.8268 52.9747C67.678 53.2593 66.5797 53.4118 65.5317 53.4321C62.8916 53.3711 60.3825 52.8426 58.0044 51.8465C55.6464 50.83 53.5807 49.4477 51.8072 47.6994C50.0337 45.9511 48.6229 43.8877 47.575 41.5092C46.5471 39.1104 46.0332 36.4982 46.0332 33.6724C46.0332 30.9687 46.5371 28.4276 47.5447 26.0491C48.5524 23.6706 49.9228 21.5971 51.656 19.8285C53.4094 18.0599 55.455 16.6673 57.7928 15.6509C60.1507 14.6141 62.6598 14.0957 65.3201 14.0957C66.7107 14.0957 67.9703 14.1974 69.0988 14.4007C70.2476 14.5836 71.3157 14.8581 72.3032 15.224C73.2908 15.5899 74.2178 16.0473 75.0844 16.5962C75.9712 17.1247 76.8478 17.7346 77.7144 18.4258C78.1578 18.812 78.3795 19.2186 78.3795 19.6455C78.3795 19.9098 78.309 20.1537 78.1679 20.3774C77.4827 21.4345 76.7773 22.5119 76.0518 23.6096C75.3464 24.7074 74.6612 25.7848 73.9961 26.8419C73.8752 27.0452 73.714 27.1875 73.5124 27.2688C73.3109 27.3502 73.1094 27.3908 72.9078 27.3908C72.5652 27.3908 72.2428 27.2892 71.9405 27.0859C70.7313 26.2321 69.6128 25.6425 68.5849 25.3173C67.5571 24.992 66.489 24.8294 65.3805 24.8294C64.3326 24.8294 63.335 25.053 62.3877 25.5002C61.4405 25.9271 60.6042 26.5268 59.8786 27.2993C59.1531 28.0718 58.5687 29.007 58.1253 30.1047C57.7021 31.1822 57.4905 32.3816 57.4905 33.7029C57.4905 35.004 57.692 36.1932 58.0951 37.2707C58.4981 38.3481 59.0524 39.273 59.7577 40.0455C60.4832 40.818 61.3297 41.4177 62.2971 41.8447C63.2644 42.2512 64.3023 42.4545 65.4108 42.4545C66.0557 42.4545 66.6804 42.3732 67.285 42.2106C67.8896 42.0479 68.4539 41.8447 68.9779 41.6007C69.5221 41.3568 70.0158 41.0925 70.4592 40.8079C70.9227 40.5233 71.3359 40.2488 71.6986 39.9846Z" fill="black"/>
<path d="M108.406 40.7164C108.023 40.9807 107.579 41.2754 107.075 41.6007C106.592 41.9056 106.058 42.1902 105.473 42.4545C104.909 42.7188 104.294 42.9424 103.629 43.1254C102.984 43.288 102.299 43.3693 101.574 43.3693C100.344 43.3693 99.1854 43.1355 98.0971 42.668C97.029 42.2004 96.0919 41.5499 95.2857 40.7164C94.4997 39.8626 93.875 38.8461 93.4115 37.6671C92.9681 36.4677 92.7464 35.1463 92.7464 33.7029C92.7464 32.2596 92.9882 30.9382 93.4719 29.7388C93.9556 28.5394 94.6005 27.5128 95.4066 26.659C96.2128 25.7848 97.1398 25.114 98.1878 24.6464C99.2559 24.1585 100.374 23.9146 101.543 23.9146C102.753 23.9146 103.911 24.0975 105.02 24.4635C106.128 24.809 107.337 25.4392 108.647 26.354H108.617C108.778 26.4557 108.94 26.5065 109.101 26.5065C109.282 26.5065 109.393 26.4557 109.433 26.354H109.403L113.545 19.8895C113.605 19.8285 113.635 19.7573 113.635 19.676C113.635 19.5744 113.605 19.4829 113.545 19.4016C113.484 19.3203 113.414 19.2389 113.333 19.1576C112.527 18.5274 111.701 17.9582 110.854 17.45C110.008 16.9418 109.101 16.5047 108.134 16.1388C107.186 15.7729 106.169 15.4984 105.08 15.3155C103.992 15.1122 102.793 15.0105 101.483 15.0105C98.9436 15.0105 96.5554 15.4984 94.3184 16.4742C92.0813 17.45 90.1264 18.7815 88.4537 20.4688C86.8011 22.1561 85.4911 24.1382 84.5238 26.415C83.5766 28.6715 83.103 31.0907 83.103 33.6724C83.103 36.4168 83.5866 38.9478 84.554 41.2653C85.5415 43.5624 86.8817 45.5445 88.5746 47.2115C90.2675 48.8784 92.2426 50.1795 94.4997 51.1146C96.7771 52.0498 99.2056 52.5173 101.785 52.5173C102.833 52.5173 103.901 52.3953 104.99 52.1514C106.078 51.9075 107.126 51.5822 108.134 51.1756C109.161 50.769 110.119 50.3015 111.005 49.7729C111.892 49.2444 112.658 48.6955 113.303 48.1263C113.565 47.8823 113.696 47.6892 113.696 47.5469C113.696 47.3436 113.605 47.1098 113.424 46.8456H113.454C112.769 45.8088 112.074 44.7923 111.368 43.7962C110.663 42.7798 109.968 41.7532 109.282 40.7164C109.202 40.5944 109.081 40.5334 108.92 40.5334C108.738 40.5334 108.567 40.5944 108.406 40.7164ZM107.861 39.9846C108.144 39.7609 108.496 39.6491 108.92 39.6491C109.141 39.6491 109.353 39.6898 109.554 39.7711C109.756 39.8524 109.927 40.0049 110.068 40.2285H110.038C110.723 41.2653 111.408 42.2919 112.094 43.3083C112.799 44.3044 113.494 45.3209 114.18 46.3577C114.421 46.7846 114.562 47.181 114.603 47.5469C114.603 47.9738 114.371 48.3906 113.907 48.7971C113.222 49.3663 112.396 49.9254 111.429 50.4743C110.481 51.0231 109.454 51.511 108.345 51.9379C107.257 52.3649 106.138 52.7104 104.99 52.9747C103.841 53.2593 102.742 53.4118 101.695 53.4321C99.0544 53.3711 96.5453 52.8426 94.1672 51.8465C91.8093 50.83 89.7435 49.4477 87.97 47.6994C86.1965 45.9511 84.7858 43.8877 83.7378 41.5092C82.71 39.1104 82.1961 36.4982 82.1961 33.6724C82.1961 30.9687 82.6999 28.4276 83.7076 26.0491C84.7152 23.6706 86.0857 21.5971 87.8189 19.8285C89.5722 18.0599 91.6178 16.6673 93.9556 15.6509C96.3135 14.6141 98.8226 14.0957 101.483 14.0957C102.873 14.0957 104.133 14.1974 105.262 14.4007C106.41 14.5836 107.479 14.8581 108.466 15.224C109.454 15.5899 110.381 16.0473 111.247 16.5962C112.134 17.1247 113.011 17.7346 113.877 18.4258C114.321 18.812 114.542 19.2186 114.542 19.6455C114.542 19.9098 114.472 20.1537 114.331 20.3774C113.646 21.4345 112.94 22.5119 112.215 23.6096C111.509 24.7074 110.824 25.7848 110.159 26.8419C110.038 27.0452 109.877 27.1875 109.675 27.2688C109.474 27.3502 109.272 27.3908 109.071 27.3908C108.728 27.3908 108.406 27.2892 108.103 27.0859C106.894 26.2321 105.776 25.6425 104.748 25.3173C103.72 24.992 102.652 24.8294 101.543 24.8294C100.495 24.8294 99.4978 25.053 98.5506 25.5002C97.6034 25.9271 96.767 26.5268 96.0415 27.2993C95.316 28.0718 94.7315 29.007 94.2881 30.1047C93.8649 31.1822 93.6533 32.3816 93.6533 33.7029C93.6533 35.004 93.8548 36.1932 94.2579 37.2707C94.661 38.3481 95.2152 39.273 95.9206 40.0455C96.6461 40.818 97.4925 41.4177 98.4599 41.8447C99.4273 42.2512 100.465 42.4545 101.574 42.4545C102.219 42.4545 102.843 42.3732 103.448 42.2106C104.052 42.0479 104.617 41.8447 105.141 41.6007C105.685 41.3568 106.179 41.0925 106.622 40.8079C107.086 40.5233 107.499 40.2488 107.861 39.9846Z" fill="black"/>
<path d="M146.352 51.0231C146.352 51.572 146.624 51.8465 147.168 51.8465H155.723C156.268 51.8465 156.54 51.572 156.54 51.0231V16.2303C156.54 15.9863 156.459 15.7932 156.298 15.6509C156.137 15.4883 155.945 15.4069 155.723 15.4069H125.161C124.556 15.4069 124.254 15.7119 124.254 16.3217V37.911C124.254 38.6632 124.183 39.395 124.042 40.1065C123.921 40.7977 123.689 41.4076 123.347 41.9361C123.024 42.4647 122.581 42.8916 122.017 43.2169C121.473 43.5421 120.787 43.7047 119.961 43.7047C119.659 43.7047 119.427 43.7454 119.266 43.8267C119.125 43.908 119.014 44.0097 118.933 44.1317C118.853 44.2333 118.802 44.3553 118.782 44.4976C118.782 44.6195 118.782 44.7314 118.782 44.833V51.572C118.782 51.6533 118.792 51.7448 118.812 51.8465C118.853 51.9481 118.943 52.0396 119.084 52.1209C119.246 52.2022 119.477 52.2632 119.78 52.3039C120.082 52.3649 120.505 52.3953 121.049 52.3953C122.984 52.3953 124.768 52.0396 126.4 51.3281C128.053 50.6166 129.474 49.6916 130.663 48.5532C131.872 47.3944 132.809 46.0832 133.474 44.6195C134.159 43.1559 134.502 41.6719 134.502 40.1675V24.9818H146.352V51.0231ZM145.445 25.9271C143.692 25.9271 142.019 25.9271 140.427 25.9271C138.855 25.9068 137.182 25.8966 135.409 25.8966V40.1675C135.409 41.7735 135.046 43.3693 134.32 44.955C133.615 46.5203 132.617 47.923 131.328 49.1631C130.058 50.4031 128.546 51.4094 126.793 52.1819C125.04 52.9341 123.125 53.3101 121.049 53.3101C120.304 53.3101 119.719 53.2593 119.296 53.1577C118.873 53.056 118.55 52.9137 118.329 52.7308C118.127 52.5681 117.996 52.3852 117.936 52.1819C117.895 51.9786 117.875 51.7753 117.875 51.572V44.833C117.875 44.6297 117.885 44.4163 117.905 44.1926C117.926 43.9487 117.996 43.7251 118.117 43.5218C118.258 43.3185 118.47 43.1457 118.752 43.0034C119.034 42.8611 119.437 42.7899 119.961 42.7899C120.606 42.7899 121.14 42.6578 121.563 42.3935C122.007 42.1089 122.359 41.743 122.621 41.2958C122.883 40.8485 123.065 40.3302 123.165 39.7406C123.286 39.1511 123.347 38.5412 123.347 37.911V16.3217C123.347 15.102 123.951 14.4921 125.161 14.4921H155.723C156.227 14.4921 156.64 14.6548 156.963 14.98C157.285 15.285 157.446 15.7017 157.446 16.2303V51.0231C157.446 52.1819 156.872 52.7613 155.723 52.7613H147.168C146.019 52.7613 145.445 52.1819 145.445 51.0231V25.9271Z" fill="black"/>
<path d="M193.477 40.6859L192.782 41.2653C192.379 41.5905 191.945 41.926 191.482 42.2716C191.038 42.6172 190.504 42.9322 189.88 43.2169C189.255 43.4811 188.509 43.7047 187.643 43.8877C186.776 44.0503 185.728 44.1317 184.499 44.1317C183.471 44.1317 182.483 43.9589 181.536 43.6133C180.609 43.2677 179.763 42.7798 178.997 42.1496C178.231 41.4991 177.556 40.7164 176.971 39.8016C176.387 38.8868 175.944 37.8704 175.641 36.7523H197.135C197.84 36.7523 198.435 36.7116 198.918 36.6303C199.422 36.549 199.825 36.3965 200.128 36.1729C200.43 35.9493 200.652 35.624 200.793 35.1971C200.934 34.7702 201.004 34.2112 201.004 33.52C201.004 31.3245 200.742 29.3424 200.218 27.5738C199.715 25.8052 199.029 24.2398 198.163 22.8778C197.296 21.4954 196.288 20.3164 195.14 19.3406C194.011 18.3648 192.822 17.5618 191.573 16.9316C190.343 16.2811 189.094 15.8135 187.824 15.5289C186.575 15.224 185.385 15.0715 184.257 15.0715C181.556 15.0715 179.088 15.5594 176.85 16.5352C174.613 17.511 172.689 18.8527 171.077 20.5603C169.484 22.2476 168.245 24.2297 167.358 26.5065C166.471 28.763 166.028 31.1822 166.028 33.7639C166.028 36.3457 166.532 38.775 167.54 41.0518C168.547 43.3083 169.908 45.2904 171.621 46.998C173.334 48.6853 175.309 50.0169 177.546 50.9927C179.783 51.9684 182.121 52.4563 184.559 52.4563C185.627 52.4563 186.716 52.375 187.824 52.2124C188.932 52.0498 190.061 51.7753 191.21 51.3891C192.359 50.9825 193.507 50.4539 194.656 49.8034C195.825 49.1326 196.994 48.2991 198.163 47.303C198.243 47.2216 198.324 47.1302 198.405 47.0285C198.485 46.9065 198.525 46.8049 198.525 46.7236C198.525 46.5406 198.405 46.2763 198.163 45.9308L194.444 40.7469C194.303 40.6249 194.132 40.5639 193.931 40.5639C193.749 40.5639 193.598 40.6046 193.477 40.6859ZM192.933 39.9541C193.235 39.7101 193.588 39.5881 193.991 39.5881C194.213 39.6085 194.424 39.6593 194.626 39.7406C194.827 39.8219 195.009 39.9744 195.17 40.198L198.888 45.3819C199.251 45.9104 199.432 46.3577 199.432 46.7236C199.432 47.1708 199.211 47.5876 198.767 47.9738C197.518 49.0716 196.288 49.9762 195.079 50.6877C193.87 51.3789 192.671 51.9176 191.482 52.3039C190.313 52.7104 189.154 52.9849 188.005 53.1272C186.857 53.2898 185.708 53.3711 184.559 53.3711C182 53.3711 179.541 52.8629 177.183 51.8465C174.845 50.8097 172.779 49.407 170.986 47.6384C169.192 45.8494 167.761 43.7657 166.693 41.3873C165.645 39.0088 165.121 36.4677 165.121 33.7639C165.121 31.0602 165.585 28.5191 166.512 26.1406C167.439 23.7621 168.739 21.6886 170.411 19.92C172.104 18.131 174.12 16.7283 176.457 15.7119C178.815 14.6751 181.415 14.1567 184.257 14.1567C185.446 14.1567 186.706 14.3193 188.036 14.6446C189.366 14.9495 190.676 15.4374 191.966 16.1083C193.276 16.7588 194.525 17.6025 195.714 18.6392C196.923 19.676 197.981 20.9161 198.888 22.3594C199.815 23.7824 200.551 25.4189 201.095 27.2688C201.639 29.1188 201.911 31.2025 201.911 33.52C201.911 34.4144 201.821 35.1361 201.639 35.685C201.478 36.2136 201.206 36.6303 200.823 36.9352C200.44 37.2198 199.946 37.413 199.342 37.5146C198.737 37.6162 198.002 37.6671 197.135 37.6671H176.82C177.123 38.4802 177.536 39.2324 178.06 39.9236C178.584 40.5944 179.178 41.1738 179.843 41.6617C180.508 42.1496 181.234 42.5358 182.02 42.8204C182.826 43.0847 183.652 43.2169 184.499 43.2169C185.829 43.2169 186.937 43.105 187.824 42.8814C188.711 42.6578 189.456 42.3834 190.061 42.0581C190.686 41.7328 191.21 41.3771 191.633 40.9908C192.076 40.6046 192.51 40.259 192.933 39.9541ZM183.924 22.9998C185.698 22.9998 187.28 23.5487 188.67 24.6464C190.081 25.7238 191.24 27.279 192.147 29.3119H176.095C176.498 28.4378 176.961 27.6144 177.485 26.8419C178.029 26.0694 178.624 25.3986 179.269 24.8294C179.934 24.2602 180.659 23.8129 181.445 23.4877C182.231 23.1624 183.058 22.9998 183.924 22.9998ZM183.924 23.9146C182.433 23.9146 181.153 24.3313 180.085 25.1648C179.017 25.978 178.16 27.0554 177.516 28.3971H190.726C190.001 26.9537 189.053 25.8458 187.884 25.0733C186.716 24.3008 185.396 23.9146 183.924 23.9146Z" fill="black"/>
<path d="M217.763 57.9756C218.045 57.9756 218.217 57.9045 218.277 57.7622C218.358 57.6199 218.398 57.4877 218.398 57.3658V51.7855H240.799V58.1891C240.799 58.3517 240.99 58.433 241.373 58.433H250.654C250.916 58.433 251.047 58.3415 251.047 58.1586V44.4366C251.047 43.9487 250.936 43.6336 250.714 43.4913C250.513 43.3287 250.21 43.2473 249.807 43.2473H246.603V16.0473C246.603 15.8847 246.542 15.7424 246.421 15.6204C246.3 15.4781 246.089 15.4069 245.787 15.4069H219.154C218.892 15.4069 218.69 15.4883 218.549 15.6509C218.408 15.8135 218.338 15.9863 218.338 16.1693C218.338 18.5681 218.267 21.0177 218.126 23.5182C218.005 25.9983 217.713 28.4276 217.249 30.8061C216.806 33.1642 216.151 35.4106 215.284 37.5451C214.438 39.6593 213.289 41.56 211.838 43.2473H209.208C208.462 43.2473 208.09 43.6438 208.09 44.4366V57.3658C208.09 57.7723 208.341 57.9756 208.845 57.9756H217.763ZM208.845 58.8904C208.301 58.8904 207.888 58.7684 207.606 58.5245C207.324 58.3009 207.183 57.9146 207.183 57.3658V44.4366C207.183 43.7861 207.364 43.2778 207.727 42.9119C208.09 42.5257 208.583 42.3325 209.208 42.3325H211.415C212.745 40.7266 213.803 38.9071 214.589 36.8742C215.375 34.821 215.98 32.656 216.403 30.3792C216.826 28.082 217.098 25.7238 217.219 23.3047C217.36 20.8856 217.431 18.5071 217.431 16.1693C217.431 15.7627 217.582 15.3866 217.884 15.041C218.207 14.6751 218.63 14.4921 219.154 14.4921H245.787C246.431 14.4921 246.875 14.6548 247.117 14.98C247.379 15.3053 247.51 15.6611 247.51 16.0473V42.3325H249.807C250.513 42.3325 251.047 42.4748 251.409 42.7595C251.772 43.0237 251.954 43.5828 251.954 44.4366V58.1586C251.954 58.5245 251.833 58.8091 251.591 59.0124C251.369 59.236 251.057 59.3478 250.654 59.3478H241.373C240.849 59.3478 240.466 59.236 240.224 59.0124C240.003 58.8091 239.892 58.5347 239.892 58.1891V52.7003H219.305V57.3658C219.305 57.5284 219.285 57.691 219.244 57.8536C219.224 58.0366 219.164 58.1992 219.063 58.3415C218.962 58.5042 218.811 58.6363 218.61 58.738C218.408 58.8396 218.126 58.8904 217.763 58.8904H208.845ZM236.355 43.2169H221.875C222.862 41.3873 223.708 39.6898 224.414 38.1245C225.119 36.5591 225.694 35.0243 226.137 33.52C226.6 31.9953 226.933 30.4402 227.135 28.8545C227.356 27.2485 227.467 25.4901 227.467 23.5792H236.355V43.2169ZM235.448 24.494H228.374C228.354 26.2422 228.243 27.8482 228.041 29.3119C227.86 30.7756 227.568 32.1986 227.165 33.581C226.762 34.9633 226.248 36.3559 225.623 37.7585C224.998 39.1612 224.253 40.6757 223.386 42.3021H235.448V24.494Z" fill="black"/>
<path d="M294.506 16.7486C294.607 16.4844 294.657 16.2506 294.657 16.0473C294.657 15.8847 294.597 15.7424 294.476 15.6204C294.355 15.4781 294.123 15.4069 293.781 15.4069H285.105C284.44 15.4069 284.006 15.7322 283.805 16.3827L275.25 41.4482L266.543 16.4742C266.443 16.1489 266.271 15.8948 266.029 15.7119C265.788 15.5086 265.526 15.4069 265.243 15.4069H257.142C256.88 15.4069 256.638 15.4781 256.416 15.6204C256.215 15.7424 256.114 15.9457 256.114 16.2303C256.114 16.4539 256.174 16.7182 256.295 17.0231L270.292 52.1514L265.485 64.5927C265.344 64.9383 265.274 65.2534 265.274 65.538C265.274 65.8836 265.415 66.1275 265.697 66.2698C265.999 66.4324 266.372 66.5138 266.815 66.5138H274.01C274.615 66.5138 275.068 66.1987 275.371 65.5685L294.506 16.7486ZM276.217 65.9344C275.834 66.9305 275.098 67.4286 274.01 67.4286H266.815C266.11 67.4286 265.526 67.2863 265.062 67.0016C264.599 66.717 264.367 66.2291 264.367 65.538C264.367 65.355 264.387 65.1517 264.427 64.9281C264.468 64.7045 264.538 64.4707 264.639 64.2268V64.2572L269.325 52.1819L255.449 17.389C255.368 17.1857 255.298 16.9824 255.237 16.7791C255.197 16.5759 255.187 16.3929 255.207 16.2303C255.207 15.6001 255.399 15.1528 255.781 14.8886C256.184 14.6243 256.638 14.4921 257.142 14.4921H265.243C265.767 14.4921 266.211 14.6446 266.574 14.9495C266.936 15.2341 267.208 15.6407 267.39 16.1693L275.25 38.6733C276.539 34.8922 277.829 31.1313 279.119 27.3908C280.409 23.63 281.689 19.859 282.958 16.0778V16.1083C283.281 15.0309 283.996 14.4921 285.105 14.4921H293.781C294.486 14.4921 294.96 14.6548 295.202 14.98C295.443 15.285 295.564 15.6407 295.564 16.0473C295.564 16.3929 295.494 16.7486 295.353 17.1146L276.217 65.9344Z" fill="black"/>
<path d="M310.868 16.2303C310.868 15.9457 310.778 15.7424 310.596 15.6204C310.435 15.4781 310.254 15.4069 310.052 15.4069H301.437C301.215 15.4069 301.023 15.4883 300.862 15.6509C300.701 15.7932 300.62 15.9863 300.62 16.2303V51.0231C300.62 51.572 300.872 51.8465 301.376 51.8465H310.052C310.314 51.8465 310.495 51.7956 310.596 51.694C310.717 51.5924 310.858 51.4297 311.019 51.2061H310.989L324.2 31.05V51.0231C324.2 51.572 324.472 51.8465 325.016 51.8465H333.632C334.176 51.8465 334.448 51.572 334.448 51.0231V16.2608C334.448 15.9761 334.357 15.7729 334.176 15.6509C334.015 15.5086 333.833 15.4374 333.632 15.4374H324.956C324.815 15.4374 324.684 15.4984 324.563 15.6204C324.442 15.7424 324.301 15.9253 324.139 16.1693H324.17L310.868 36.5388V16.2303ZM311.775 33.4285L323.384 15.6814C323.646 15.2748 323.887 14.98 324.109 14.7971C324.331 14.6141 324.613 14.5226 324.956 14.5226H333.632C334.035 14.5226 334.418 14.6649 334.78 14.9495C335.163 15.2341 335.355 15.6712 335.355 16.2608V51.0231C335.355 51.5517 335.204 51.9786 334.901 52.3039C334.619 52.6088 334.196 52.7613 333.632 52.7613H325.016C323.867 52.7613 323.293 52.1819 323.293 51.0231V34.1298C321.378 37.0572 319.454 39.9846 317.519 42.9119C315.584 45.8393 313.66 48.7666 311.745 51.694C311.503 52.0599 311.271 52.3242 311.05 52.4868C310.848 52.6698 310.516 52.7613 310.052 52.7613H301.376C300.792 52.7613 300.368 52.619 300.106 52.3344C299.844 52.0498 299.713 51.6127 299.713 51.0231V16.2303C299.713 15.7017 299.875 15.285 300.197 14.98C300.52 14.6548 300.933 14.4921 301.437 14.4921H310.052C310.455 14.4921 310.838 14.6344 311.201 14.919C311.584 15.2037 311.775 15.6407 311.775 16.2303V33.4285ZM317.912 8.45446C319 8.45446 320.008 8.2715 320.935 7.90558C321.862 7.51933 322.668 7.01111 323.353 6.38092C324.059 5.73039 324.603 4.98839 324.986 4.1549C325.389 3.32142 325.59 2.45744 325.59 1.56297C325.59 1.38001 325.53 1.22754 325.409 1.10557C325.308 0.983598 325.147 0.922612 324.925 0.922612H320.693C320.592 0.922612 320.542 0.993763 320.542 1.13607C320.542 1.66462 320.32 2.16267 319.877 2.63024C319.434 3.0978 318.819 3.33158 318.033 3.33158C317.126 3.33158 316.461 3.0978 316.038 2.63024C315.635 2.16267 315.433 1.66462 315.433 1.13607C315.433 0.993763 315.363 0.922612 315.221 0.922612H310.989C310.828 0.922612 310.687 0.983598 310.566 1.10557C310.445 1.22754 310.385 1.38001 310.385 1.56297C310.385 2.43711 310.576 3.29093 310.959 4.12441C311.342 4.93757 311.866 5.6694 312.531 6.31993C313.216 6.95012 314.012 7.46851 314.919 7.87509C315.846 8.26134 316.844 8.45446 317.912 8.45446ZM317.912 9.36926C316.703 9.36926 315.584 9.14565 314.556 8.69841C313.529 8.25117 312.632 7.6718 311.866 6.96029C311.12 6.22845 310.536 5.39496 310.113 4.45984C309.689 3.52471 309.478 2.55909 309.478 1.56297C309.478 1.09541 309.619 0.719321 309.901 0.434716C310.183 0.150114 310.546 0.0078125 310.989 0.0078125H315.221C315.685 0.0078125 315.967 0.139949 316.068 0.404223C316.189 0.648171 316.28 0.922611 316.34 1.22754C316.421 1.51215 316.562 1.78659 316.763 2.05087C316.965 2.29481 317.388 2.41678 318.033 2.41678C318.617 2.41678 319 2.29481 319.182 2.05087C319.383 1.78659 319.524 1.51215 319.605 1.22754C319.685 0.922611 319.776 0.648171 319.877 0.404223C319.998 0.139949 320.27 0.0078125 320.693 0.0078125H324.925C325.409 0.0078125 325.792 0.150114 326.074 0.434716C326.356 0.719321 326.497 1.09541 326.497 1.56297C326.497 2.57941 326.276 3.56536 325.832 4.52082C325.389 5.45595 324.774 6.28944 323.988 7.02127C323.222 7.73279 322.315 8.302 321.268 8.7289C320.24 9.15581 319.121 9.36926 317.912 9.36926Z" fill="black"/>
<path d="M24.9175 117.377C24.9175 117.925 25.1895 118.2 25.7337 118.2H33.3819C33.9261 118.2 34.1981 117.925 34.1981 117.377V82.5837C34.1981 82.3398 34.1175 82.1467 33.9563 82.0044C33.7951 81.8417 33.6036 81.7604 33.3819 81.7604H25.7337C25.5321 81.7604 25.3407 81.8316 25.1593 81.9739C24.9981 82.0958 24.9175 82.2991 24.9175 82.5837V95.1165H10.1954V82.5837C10.1954 82.3398 10.1148 82.1467 9.95354 82.0044C9.79231 81.8417 9.60085 81.7604 9.37916 81.7604H1.73093C1.5294 81.7604 1.33794 81.8316 1.15656 81.9739C0.995331 82.0958 0.914717 82.2991 0.914717 82.5837V117.377C0.914717 117.925 1.18679 118.2 1.73093 118.2H9.37916C9.92331 118.2 10.1954 117.925 10.1954 117.377V103.563H24.9175V117.377ZM24.0106 104.478H11.1023V117.377C11.1023 118.535 10.5279 119.115 9.37916 119.115H1.73093C0.582185 119.115 0.0078125 118.535 0.0078125 117.377V82.5837C0.0078125 81.9942 0.189193 81.5571 0.551955 81.2725C0.934871 80.9879 1.32786 80.8456 1.73093 80.8456H9.37916C9.883 80.8456 10.2961 81.0082 10.6186 81.3335C10.9411 81.6384 11.1023 82.0552 11.1023 82.5837V94.2017H24.0106V82.5837C24.0106 81.9942 24.1919 81.5571 24.5547 81.2725C24.9376 80.9879 25.3306 80.8456 25.7337 80.8456H33.3819C33.8857 80.8456 34.2989 81.0082 34.6213 81.3335C34.9438 81.6384 35.105 82.0552 35.105 82.5837V117.377C35.105 118.535 34.5307 119.115 33.3819 119.115H25.7337C24.5849 119.115 24.0106 118.535 24.0106 117.377V104.478Z" fill="black"/>
<path d="M40.2517 100.087C40.2517 102.669 40.7354 105.098 41.7028 107.375C42.6903 109.652 44.0204 111.644 45.6931 113.351C47.386 115.039 49.3611 116.37 51.6183 117.346C53.8956 118.322 56.3241 118.81 58.9037 118.81C61.4834 118.81 63.9018 118.322 66.159 117.346C68.4363 116.35 70.4214 115.008 72.1143 113.321C73.8072 111.634 75.1373 109.652 76.1047 107.375C77.0922 105.098 77.586 102.669 77.586 100.087C77.586 97.5051 77.0922 95.086 76.1047 92.8295C75.1373 90.5527 73.8072 88.5706 72.1143 86.8833C70.4214 85.1757 68.4363 83.834 66.159 82.8582C63.9018 81.8824 61.4834 81.3945 58.9037 81.3945C56.3241 81.3945 53.8956 81.8824 51.6183 82.8582C49.3611 83.834 47.386 85.1655 45.6931 86.8528C44.0204 88.5401 42.6903 90.5222 41.7028 92.799C40.7354 95.0555 40.2517 97.4848 40.2517 100.087ZM39.3448 100.087C39.3448 97.3628 39.8587 94.8116 40.8865 92.4331C41.9144 90.0546 43.305 87.9811 45.0583 86.2124C46.8318 84.4438 48.9076 83.0513 51.2857 82.0349C53.6638 80.9981 56.2032 80.4797 58.9037 80.4797C61.6043 80.4797 64.1436 80.9981 66.5217 82.0349C68.8998 83.0513 70.9756 84.454 72.7491 86.2429C74.5226 88.0115 75.9233 90.0851 76.9511 92.4636C77.979 94.8421 78.4929 97.3832 78.4929 100.087C78.4929 102.791 77.979 105.342 76.9511 107.741C75.9233 110.119 74.5226 112.203 72.7491 113.992C70.9756 115.76 68.8998 117.163 66.5217 118.2C64.1436 119.216 61.6043 119.725 58.9037 119.725C56.2032 119.725 53.6638 119.216 51.2857 118.2C48.9076 117.163 46.8318 115.76 45.0583 113.992C43.305 112.203 41.9144 110.119 40.8865 107.741C39.8587 105.342 39.3448 102.791 39.3448 100.087ZM49.9858 100.087C49.9858 98.7655 50.1974 97.5255 50.6207 96.3667C51.064 95.1876 51.6787 94.1509 52.4647 93.2564C53.2507 92.3619 54.1878 91.6606 55.2761 91.1524C56.3845 90.6238 57.6038 90.3595 58.934 90.3595C60.2641 90.3595 61.4733 90.6238 62.5616 91.1524C63.6499 91.6809 64.5769 92.3924 65.3427 93.2869C66.1287 94.1814 66.7333 95.2181 67.1566 96.3972C67.5798 97.556 67.7914 98.7859 67.7914 100.087C67.7914 101.388 67.5798 102.628 67.1566 103.807C66.7333 104.986 66.1287 106.023 65.3427 106.917C64.5568 107.812 63.6196 108.523 62.5313 109.052C61.4431 109.58 60.2338 109.845 58.9037 109.845C57.5736 109.845 56.3543 109.58 55.2459 109.052C54.1576 108.523 53.2205 107.822 52.4345 106.948C51.6686 106.053 51.064 105.017 50.6207 103.838C50.1974 102.638 49.9858 101.388 49.9858 100.087ZM50.8927 100.087C50.8927 101.266 51.0842 102.394 51.4671 103.472C51.85 104.549 52.3942 105.494 53.0995 106.308C53.8049 107.1 54.6513 107.741 55.6389 108.229C56.6264 108.696 57.7147 108.93 58.9037 108.93C60.0928 108.93 61.1811 108.696 62.1686 108.229C63.1561 107.741 63.9925 107.09 64.6777 106.277C65.3831 105.464 65.9272 104.529 66.3101 103.472C66.693 102.394 66.8845 101.266 66.8845 100.087C66.8845 98.9078 66.693 97.7897 66.3101 96.7326C65.9272 95.6552 65.3831 94.7201 64.6777 93.9273C63.9925 93.1141 63.1561 92.4737 62.1686 92.0062C61.2012 91.5183 60.123 91.2743 58.934 91.2743C57.7449 91.2743 56.6566 91.5081 55.6691 91.9757C54.6816 92.4432 53.8351 93.0836 53.1298 93.8968C52.4244 94.7099 51.8702 95.645 51.4671 96.7021C51.0842 97.7592 50.8927 98.8875 50.8927 100.087Z" fill="black"/>
<path d="M118.51 92.2806C118.51 90.9186 118.208 89.5972 117.603 88.3165C117.019 87.0358 116.213 85.8973 115.185 84.9012C114.177 83.9051 112.988 83.1123 111.618 82.5227C110.267 81.9129 108.836 81.6079 107.325 81.6079H85.5894C84.7833 81.6079 84.3802 82.0349 84.3802 82.8887V117.072C84.3802 117.824 84.7833 118.2 85.5894 118.2H107.748C109.501 118.2 111.104 117.885 112.555 117.255C114.026 116.604 115.285 115.75 116.333 114.693C117.381 113.616 118.198 112.396 118.782 111.034C119.367 109.652 119.659 108.239 119.659 106.795C119.659 105.128 119.286 103.634 118.54 102.313C117.795 100.971 116.787 99.7007 115.517 98.5012C115.88 98.0743 116.243 97.6373 116.606 97.19C116.968 96.7225 117.291 96.2346 117.573 95.7264C117.855 95.1978 118.077 94.6489 118.238 94.0797C118.419 93.5105 118.51 92.9108 118.51 92.2806ZM119.417 92.2806C119.417 93.602 119.155 94.7607 118.631 95.7569C118.107 96.7326 117.492 97.6271 116.787 98.4403C117.956 99.599 118.873 100.849 119.538 102.191C120.223 103.533 120.566 105.067 120.566 106.795C120.566 108.361 120.253 109.885 119.629 111.369C119.004 112.853 118.127 114.175 116.999 115.334C115.87 116.472 114.52 117.387 112.948 118.078C111.376 118.769 109.643 119.115 107.748 119.115H85.5894C84.1787 119.115 83.4733 118.434 83.4733 117.072V82.8887C83.4733 81.425 84.1787 80.6931 85.5894 80.6931H107.325C108.957 80.6931 110.509 81.0184 111.98 81.6689C113.452 82.3195 114.731 83.1834 115.82 84.2609C116.928 85.3383 117.805 86.5784 118.45 87.9811C119.094 89.3634 119.417 90.7966 119.417 92.2806ZM105.813 102.069C106.358 102.069 106.902 102.181 107.446 102.404C108.01 102.608 108.514 102.902 108.957 103.289C109.421 103.675 109.794 104.143 110.076 104.691C110.358 105.24 110.499 105.84 110.499 106.491C110.499 107.1 110.408 107.7 110.227 108.29C110.046 108.859 109.763 109.367 109.381 109.814C108.998 110.262 108.504 110.617 107.899 110.882C107.315 111.146 106.62 111.278 105.813 111.278H94.4166V102.069H105.813ZM95.3235 102.984V110.363H105.813C106.478 110.363 107.043 110.262 107.506 110.058C107.99 109.835 108.383 109.54 108.685 109.174C108.988 108.808 109.209 108.391 109.35 107.924C109.512 107.456 109.592 106.978 109.592 106.491C109.592 105.962 109.471 105.484 109.229 105.057C109.008 104.63 108.715 104.264 108.353 103.96C107.99 103.655 107.577 103.421 107.113 103.258C106.67 103.075 106.237 102.984 105.813 102.984H95.3235ZM109.048 92.0672C109.048 93.3885 108.625 94.344 107.778 94.9335C106.952 95.5231 105.914 95.8178 104.665 95.8178H94.4166V88.5299H104.695C105.299 88.5299 105.864 88.6011 106.388 88.7434C106.932 88.8654 107.395 89.0686 107.778 89.3533C108.181 89.6379 108.494 90.0038 108.715 90.451C108.937 90.8982 109.048 91.437 109.048 92.0672ZM108.141 92.0672C108.141 91.132 107.809 90.4612 107.144 90.0546C106.499 89.648 105.682 89.4447 104.695 89.4447H95.3235V94.903H104.665C105.652 94.903 106.478 94.6794 107.144 94.2322C107.809 93.7849 108.141 93.0633 108.141 92.0672Z" fill="black"/>
<path d="M128.864 118.2H146.549C148.06 118.2 149.471 117.865 150.781 117.194C152.091 116.502 153.229 115.598 154.197 114.48C155.164 113.362 155.92 112.091 156.464 110.668C157.008 109.225 157.28 107.751 157.28 106.247C157.28 104.783 157.008 103.35 156.464 101.947C155.94 100.524 155.204 99.2636 154.257 98.1658C153.31 97.0477 152.191 96.1533 150.902 95.4824C149.612 94.8116 148.221 94.4761 146.73 94.4761H136.966V82.5837C136.966 82.3398 136.885 82.1467 136.724 82.0044C136.562 81.8417 136.371 81.7604 136.149 81.7604H127.564C127.362 81.7604 127.171 81.8316 126.99 81.9739C126.828 82.0958 126.748 82.2991 126.748 82.5837V116.187C126.748 116.899 126.909 117.417 127.231 117.743C127.574 118.047 128.118 118.2 128.864 118.2ZM128.864 119.115C127.776 119.115 127 118.891 126.536 118.444C126.073 117.976 125.841 117.224 125.841 116.187V82.5837C125.841 81.9942 126.022 81.5571 126.385 81.2725C126.768 80.9879 127.161 80.8456 127.564 80.8456H136.149C136.653 80.8456 137.066 81.0082 137.389 81.3335C137.711 81.6384 137.872 82.0552 137.872 82.5837V93.5613H146.73C148.362 93.5613 149.874 93.9273 151.264 94.6591C152.675 95.3706 153.884 96.3261 154.892 97.5255C155.92 98.7045 156.726 100.056 157.31 101.581C157.895 103.106 158.187 104.661 158.187 106.247C158.187 107.873 157.885 109.459 157.28 111.004C156.696 112.549 155.88 113.921 154.832 115.12C153.804 116.32 152.574 117.285 151.143 118.017C149.733 118.749 148.201 119.115 146.549 119.115H128.864ZM147.365 106.216C147.365 106.948 147.224 107.588 146.942 108.137C146.68 108.686 146.317 109.143 145.853 109.509C145.41 109.875 144.886 110.16 144.281 110.363C143.677 110.546 143.032 110.638 142.347 110.638H136.966V102.038H142.347C143.012 102.038 143.646 102.13 144.251 102.313C144.876 102.476 145.41 102.74 145.853 103.106C146.317 103.451 146.68 103.888 146.942 104.417C147.224 104.925 147.365 105.525 147.365 106.216ZM146.458 106.216C146.458 105.667 146.347 105.189 146.125 104.783C145.904 104.376 145.601 104.041 145.218 103.777C144.856 103.492 144.422 103.289 143.918 103.167C143.415 103.024 142.891 102.953 142.347 102.953H137.872V109.723H142.347C142.911 109.723 143.435 109.652 143.918 109.509C144.422 109.347 144.856 109.123 145.218 108.838C145.601 108.534 145.904 108.168 146.125 107.741C146.347 107.293 146.458 106.785 146.458 106.216ZM162.238 117.377C162.238 117.925 162.51 118.2 163.054 118.2H171.67C172.214 118.2 172.486 117.925 172.486 117.377V82.5837C172.486 82.3398 172.405 82.1467 172.244 82.0044C172.083 81.8417 171.891 81.7604 171.67 81.7604H163.054C162.853 81.7604 162.661 81.8316 162.48 81.9739C162.319 82.0958 162.238 82.2991 162.238 82.5837V117.377ZM161.331 82.5837C161.331 81.9942 161.512 81.5571 161.875 81.2725C162.258 80.9879 162.651 80.8456 163.054 80.8456H171.67C172.174 80.8456 172.587 81.0082 172.909 81.3335C173.232 81.6384 173.393 82.0552 173.393 82.5837V117.377C173.393 118.535 172.819 119.115 171.67 119.115H163.054C161.905 119.115 161.331 118.535 161.331 117.377V82.5837Z" fill="black"/>
<path d="M206.06 107.039L205.365 107.619C204.962 107.944 204.529 108.279 204.065 108.625C203.622 108.971 203.088 109.286 202.463 109.57C201.838 109.835 201.093 110.058 200.226 110.241C199.359 110.404 198.311 110.485 197.082 110.485C196.054 110.485 195.067 110.312 194.119 109.967C193.192 109.621 192.346 109.133 191.58 108.503C190.814 107.853 190.139 107.07 189.555 106.155C188.97 105.24 188.527 104.224 188.225 103.106H209.718C210.424 103.106 211.018 103.065 211.502 102.984C212.006 102.902 212.409 102.75 212.711 102.526C213.013 102.303 213.235 101.977 213.376 101.551C213.517 101.124 213.588 100.565 213.588 99.8734C213.588 97.6779 213.326 95.6959 212.802 93.9273C212.298 92.1586 211.613 90.5933 210.746 89.2313C209.879 87.8489 208.872 86.6698 207.723 85.6941C206.594 84.7183 205.405 83.9153 204.156 83.2851C202.927 82.6346 201.677 82.167 200.407 81.8824C199.158 81.5775 197.969 81.425 196.84 81.425C194.14 81.425 191.671 81.9129 189.434 82.8887C187.197 83.8645 185.272 85.2062 183.66 86.9138C182.068 88.6011 180.828 90.5831 179.942 92.86C179.055 95.1165 178.611 97.5356 178.611 100.117C178.611 102.699 179.115 105.128 180.123 107.405C181.131 109.662 182.491 111.644 184.204 113.351C185.917 115.039 187.892 116.37 190.129 117.346C192.366 118.322 194.704 118.81 197.142 118.81C198.211 118.81 199.299 118.728 200.407 118.566C201.516 118.403 202.644 118.129 203.793 117.743C204.942 117.336 206.091 116.807 207.239 116.157C208.408 115.486 209.577 114.653 210.746 113.656C210.827 113.575 210.907 113.484 210.988 113.382C211.068 113.26 211.109 113.158 211.109 113.077C211.109 112.894 210.988 112.63 210.746 112.284L207.028 107.1C206.887 106.978 206.715 106.917 206.514 106.917C206.332 106.917 206.181 106.958 206.06 107.039ZM205.516 106.308C205.819 106.064 206.171 105.942 206.574 105.942C206.796 105.962 207.008 106.013 207.209 106.094C207.411 106.175 207.592 106.328 207.753 106.551L211.472 111.735C211.834 112.264 212.016 112.711 212.016 113.077C212.016 113.524 211.794 113.941 211.351 114.327C210.101 115.425 208.872 116.33 207.663 117.041C206.453 117.732 205.254 118.271 204.065 118.657C202.896 119.064 201.737 119.338 200.589 119.481C199.44 119.643 198.291 119.725 197.142 119.725C194.583 119.725 192.124 119.216 189.766 118.2C187.429 117.163 185.363 115.76 183.569 113.992C181.775 112.203 180.345 110.119 179.276 107.741C178.228 105.362 177.704 102.821 177.704 100.117C177.704 97.4137 178.168 94.8725 179.095 92.4941C180.022 90.1156 181.322 88.042 182.995 86.2734C184.688 84.4845 186.703 83.0818 189.041 82.0653C191.399 81.0286 193.999 80.5102 196.84 80.5102C198.029 80.5102 199.289 80.6728 200.619 80.9981C201.949 81.303 203.259 81.7909 204.549 82.4618C205.859 83.1123 207.108 83.9559 208.297 84.9927C209.507 86.0295 210.565 87.2695 211.472 88.7129C212.399 90.1359 213.134 91.7724 213.678 93.6223C214.223 95.4722 214.495 97.556 214.495 99.8734C214.495 100.768 214.404 101.49 214.223 102.038C214.061 102.567 213.789 102.984 213.406 103.289C213.023 103.573 212.53 103.766 211.925 103.868C211.32 103.97 210.585 104.021 209.718 104.021H189.404C189.706 104.834 190.119 105.586 190.643 106.277C191.167 106.948 191.761 107.527 192.427 108.015C193.092 108.503 193.817 108.889 194.603 109.174C195.409 109.438 196.236 109.57 197.082 109.57C198.412 109.57 199.521 109.459 200.407 109.235C201.294 109.011 202.04 108.737 202.644 108.412C203.269 108.086 203.793 107.731 204.216 107.344C204.66 106.958 205.093 106.612 205.516 106.308ZM196.508 89.3533C198.281 89.3533 199.863 89.9021 201.254 90.9999C202.665 92.0773 203.823 93.6325 204.73 95.6654H188.678C189.081 94.7912 189.545 93.9679 190.069 93.1954C190.613 92.4229 191.207 91.7521 191.852 91.1829C192.517 90.6136 193.243 90.1664 194.029 89.8411C194.815 89.5159 195.641 89.3533 196.508 89.3533ZM196.508 90.2681C195.016 90.2681 193.737 90.6848 192.668 91.5183C191.6 92.3314 190.744 93.4089 190.099 94.7506H203.309C202.584 93.3072 201.637 92.1993 200.468 91.4268C199.299 90.6543 197.979 90.2681 196.508 90.2681Z" fill="black"/>
<path d="M256.431 117.224C256.552 117.57 256.663 117.824 256.764 117.986C256.865 118.129 257.036 118.2 257.278 118.2H264.533C264.795 118.2 264.966 118.119 265.047 117.956C265.148 117.793 265.259 117.549 265.379 117.224L273.209 96.3057L274.025 96.4277L275.416 117.346C275.476 117.915 275.748 118.2 276.232 118.2H283.88C284.424 118.2 284.697 117.936 284.697 117.407L282.369 82.6142C282.349 82.3296 282.248 82.1162 282.067 81.9739C281.905 81.8316 281.734 81.7604 281.553 81.7604H271.395C271.174 81.7604 271.002 81.8621 270.881 82.0653C270.76 82.2483 270.65 82.4719 270.549 82.7362C269.803 84.6878 269.017 86.7308 268.191 88.8654C267.385 90.9796 266.569 93.1141 265.742 95.269C264.916 97.4238 264.1 99.5584 263.294 101.673C262.487 103.787 261.722 105.809 260.996 107.741L251.867 82.7362C251.766 82.4719 251.645 82.2483 251.504 82.0653C251.383 81.8621 251.222 81.7604 251.02 81.7604H240.863C240.661 81.7604 240.48 81.8316 240.319 81.9739C240.157 82.1162 240.067 82.3296 240.047 82.6142C239.865 85.318 239.674 88.1437 239.472 91.0914C239.271 94.0391 239.069 97.0172 238.868 100.026C238.666 103.014 238.465 105.982 238.263 108.93C238.082 111.857 237.9 114.683 237.719 117.407C237.719 117.936 237.991 118.2 238.535 118.2H246.183C246.667 118.2 246.939 117.915 247 117.346L248.33 96.9766L249.146 96.8546L256.431 117.224ZM249.116 99.416C248.914 102.445 248.703 105.454 248.481 108.442C248.279 111.41 248.088 114.398 247.906 117.407C247.826 118.546 247.251 119.115 246.183 119.115H238.535C238.011 119.115 237.598 118.942 237.296 118.596C236.993 118.251 236.832 117.834 236.812 117.346C236.993 114.622 237.185 111.796 237.386 108.869C237.588 105.921 237.779 102.953 237.961 99.9649C238.162 96.9563 238.364 93.9781 238.565 91.0304C238.767 88.0827 238.958 85.257 239.14 82.5532C239.18 81.984 239.371 81.5571 239.714 81.2725C240.077 80.9879 240.46 80.8456 240.863 80.8456H251.02C251.524 80.8456 251.887 80.9981 252.108 81.303C252.35 81.6079 252.552 81.984 252.713 82.4313L260.996 105.149L269.702 82.4313C269.864 81.984 270.055 81.6079 270.277 81.303C270.519 80.9981 270.891 80.8456 271.395 80.8456H281.553C281.956 80.8456 282.329 80.9879 282.671 81.2725C283.034 81.5571 283.235 81.984 283.276 82.5532L285.603 117.346C285.583 117.834 285.422 118.251 285.12 118.596C284.817 118.942 284.404 119.115 283.88 119.115H276.232C275.648 119.115 275.224 118.972 274.962 118.688C274.7 118.424 274.549 117.997 274.509 117.407L273.239 98.8062L266.226 117.529C266.004 118.078 265.803 118.474 265.621 118.718C265.46 118.983 265.097 119.115 264.533 119.115H257.278C256.693 119.115 256.31 118.983 256.129 118.718C255.948 118.454 255.766 118.058 255.585 117.529L249.116 99.416Z" fill="black"/>
<path d="M317.326 107.039L316.631 107.619C316.228 107.944 315.795 108.279 315.331 108.625C314.888 108.971 314.354 109.286 313.729 109.57C313.104 109.835 312.358 110.058 311.492 110.241C310.625 110.404 309.577 110.485 308.348 110.485C307.32 110.485 306.333 110.312 305.385 109.967C304.458 109.621 303.612 109.133 302.846 108.503C302.08 107.853 301.405 107.07 300.821 106.155C300.236 105.24 299.793 104.224 299.49 103.106H320.984C321.689 103.106 322.284 103.065 322.768 102.984C323.272 102.902 323.675 102.75 323.977 102.526C324.279 102.303 324.501 101.977 324.642 101.551C324.783 101.124 324.854 100.565 324.854 99.8734C324.854 97.6779 324.592 95.6959 324.068 93.9273C323.564 92.1586 322.879 90.5933 322.012 89.2313C321.145 87.8489 320.138 86.6698 318.989 85.6941C317.86 84.7183 316.671 83.9153 315.422 83.2851C314.192 82.6346 312.943 82.167 311.673 81.8824C310.424 81.5775 309.235 81.425 308.106 81.425C305.405 81.425 302.937 81.9129 300.7 82.8887C298.463 83.8645 296.538 85.2062 294.926 86.9138C293.334 88.6011 292.094 90.5831 291.207 92.86C290.321 95.1165 289.877 97.5356 289.877 100.117C289.877 102.699 290.381 105.128 291.389 107.405C292.396 109.662 293.757 111.644 295.47 113.351C297.183 115.039 299.158 116.37 301.395 117.346C303.632 118.322 305.97 118.81 308.408 118.81C309.476 118.81 310.565 118.728 311.673 118.566C312.782 118.403 313.91 118.129 315.059 117.743C316.208 117.336 317.356 116.807 318.505 116.157C319.674 115.486 320.843 114.653 322.012 113.656C322.093 113.575 322.173 113.484 322.254 113.382C322.334 113.26 322.375 113.158 322.375 113.077C322.375 112.894 322.254 112.63 322.012 112.284L318.294 107.1C318.153 106.978 317.981 106.917 317.78 106.917C317.598 106.917 317.447 106.958 317.326 107.039ZM316.782 106.308C317.084 106.064 317.437 105.942 317.84 105.942C318.062 105.962 318.273 106.013 318.475 106.094C318.677 106.175 318.858 106.328 319.019 106.551L322.737 111.735C323.1 112.264 323.282 112.711 323.282 113.077C323.282 113.524 323.06 113.941 322.617 114.327C321.367 115.425 320.138 116.33 318.928 117.041C317.719 117.732 316.52 118.271 315.331 118.657C314.162 119.064 313.003 119.338 311.855 119.481C310.706 119.643 309.557 119.725 308.408 119.725C305.849 119.725 303.39 119.216 301.032 118.2C298.694 117.163 296.629 115.76 294.835 113.992C293.041 112.203 291.61 110.119 290.542 107.741C289.494 105.362 288.97 102.821 288.97 100.117C288.97 97.4137 289.434 94.8725 290.361 92.4941C291.288 90.1156 292.588 88.042 294.261 86.2734C295.954 84.4845 297.969 83.0818 300.307 82.0653C302.665 81.0286 305.264 80.5102 308.106 80.5102C309.295 80.5102 310.555 80.6728 311.885 80.9981C313.215 81.303 314.525 81.7909 315.815 82.4618C317.125 83.1123 318.374 83.9559 319.563 84.9927C320.772 86.0295 321.831 87.2695 322.737 88.7129C323.665 90.1359 324.4 91.7724 324.944 93.6223C325.488 95.4722 325.76 97.556 325.76 99.8734C325.76 100.768 325.67 101.49 325.488 102.038C325.327 102.567 325.055 102.984 324.672 103.289C324.289 103.573 323.796 103.766 323.191 103.868C322.586 103.97 321.851 104.021 320.984 104.021H300.669C300.972 104.834 301.385 105.586 301.909 106.277C302.433 106.948 303.027 107.527 303.692 108.015C304.358 108.503 305.083 108.889 305.869 109.174C306.675 109.438 307.501 109.57 308.348 109.57C309.678 109.57 310.786 109.459 311.673 109.235C312.56 109.011 313.306 108.737 313.91 108.412C314.535 108.086 315.059 107.731 315.482 107.344C315.926 106.958 316.359 106.612 316.782 106.308ZM307.774 89.3533C309.547 89.3533 311.129 89.9021 312.52 90.9999C313.93 92.0773 315.089 93.6325 315.996 95.6654H299.944C300.347 94.7912 300.811 93.9679 301.334 93.1954C301.879 92.4229 302.473 91.7521 303.118 91.1829C303.783 90.6136 304.509 90.1664 305.295 89.8411C306.081 89.5159 306.907 89.3533 307.774 89.3533ZM307.774 90.2681C306.282 90.2681 305.002 90.6848 303.934 91.5183C302.866 92.3314 302.01 93.4089 301.365 94.7506H314.575C313.85 93.3072 312.903 92.1993 311.734 91.4268C310.565 90.6543 309.245 90.2681 307.774 90.2681Z" fill="black"/>
<path d="M356.274 107.07C355.891 107.334 355.448 107.629 354.944 107.954C354.46 108.259 353.926 108.544 353.342 108.808C352.777 109.072 352.163 109.296 351.498 109.479C350.853 109.641 350.168 109.723 349.442 109.723C348.213 109.723 347.054 109.489 345.966 109.021C344.897 108.554 343.96 107.903 343.154 107.07C342.368 106.216 341.743 105.2 341.28 104.021C340.836 102.821 340.615 101.5 340.615 100.056C340.615 98.6131 340.857 97.2917 341.34 96.0923C341.824 94.8929 342.469 93.8663 343.275 93.0125C344.081 92.1383 345.008 91.4675 346.056 90.9999C347.124 90.512 348.243 90.2681 349.412 90.2681C350.621 90.2681 351.78 90.451 352.888 90.8169C353.997 91.1625 355.206 91.7927 356.516 92.7075H356.486C356.647 92.8092 356.808 92.86 356.969 92.86C357.151 92.86 357.262 92.8092 357.302 92.7075H357.272L361.413 86.2429C361.474 86.1819 361.504 86.1108 361.504 86.0295C361.504 85.9278 361.474 85.8364 361.413 85.755C361.353 85.6737 361.282 85.5924 361.202 85.5111C360.395 84.8809 359.569 84.3117 358.723 83.8035C357.876 83.2952 356.969 82.8582 356.002 82.4923C355.055 82.1263 354.037 81.8519 352.949 81.6689C351.86 81.4656 350.661 81.364 349.351 81.364C346.812 81.364 344.424 81.8519 342.187 82.8277C339.95 83.8035 337.995 85.135 336.322 86.8223C334.67 88.5096 333.36 90.4917 332.392 92.7685C331.445 95.025 330.971 97.4441 330.971 100.026C330.971 102.77 331.455 105.301 332.422 107.619C333.41 109.916 334.75 111.898 336.443 113.565C338.136 115.232 340.111 116.533 342.368 117.468C344.645 118.403 347.074 118.871 349.654 118.871C350.702 118.871 351.77 118.749 352.858 118.505C353.946 118.261 354.994 117.936 356.002 117.529C357.03 117.123 357.987 116.655 358.874 116.126C359.761 115.598 360.526 115.049 361.171 114.48C361.433 114.236 361.564 114.043 361.564 113.9C361.564 113.697 361.474 113.463 361.292 113.199H361.322C360.637 112.162 359.942 111.146 359.237 110.15C358.531 109.133 357.836 108.107 357.151 107.07C357.07 106.948 356.949 106.887 356.788 106.887C356.607 106.887 356.435 106.948 356.274 107.07ZM355.73 106.338C356.012 106.114 356.365 106.003 356.788 106.003C357.01 106.003 357.221 106.043 357.423 106.125C357.624 106.206 357.796 106.358 357.937 106.582H357.906C358.592 107.619 359.277 108.645 359.962 109.662C360.667 110.658 361.363 111.674 362.048 112.711C362.29 113.138 362.431 113.534 362.471 113.9C362.471 114.327 362.239 114.744 361.776 115.151C361.091 115.72 360.264 116.279 359.297 116.828C358.35 117.377 357.322 117.865 356.214 118.291C355.125 118.718 354.007 119.064 352.858 119.328C351.709 119.613 350.611 119.765 349.563 119.786C346.923 119.725 344.414 119.196 342.036 118.2C339.678 117.183 337.612 115.801 335.838 114.053C334.065 112.305 332.654 110.241 331.606 107.863C330.578 105.464 330.064 102.852 330.064 100.026C330.064 97.3222 330.568 94.7811 331.576 92.4026C332.584 90.0241 333.954 87.9506 335.687 86.1819C337.441 84.4133 339.486 83.0208 341.824 82.0044C344.182 80.9676 346.691 80.4492 349.351 80.4492C350.742 80.4492 352.002 80.5508 353.13 80.7541C354.279 80.9371 355.347 81.2115 356.334 81.5775C357.322 81.9434 358.249 82.4008 359.116 82.9497C360.002 83.4782 360.879 84.0881 361.746 84.7793C362.189 85.1655 362.411 85.5721 362.411 85.999C362.411 86.2633 362.34 86.5072 362.199 86.7308C361.514 87.7879 360.809 88.8654 360.083 89.9631C359.378 91.0609 358.692 92.1383 358.027 93.1954C357.906 93.3987 357.745 93.541 357.544 93.6223C357.342 93.7036 357.141 93.7443 356.939 93.7443C356.596 93.7443 356.274 93.6426 355.972 93.4394C354.763 92.5855 353.644 91.996 352.616 91.6707C351.588 91.3455 350.52 91.1829 349.412 91.1829C348.364 91.1829 347.366 91.4065 346.419 91.8537C345.472 92.2806 344.635 92.8803 343.91 93.6528C343.184 94.4253 342.6 95.3604 342.157 96.4582C341.733 97.5356 341.522 98.735 341.522 100.056C341.522 101.357 341.723 102.547 342.126 103.624C342.529 104.702 343.084 105.627 343.789 106.399C344.514 107.172 345.361 107.771 346.328 108.198C347.296 108.605 348.334 108.808 349.442 108.808C350.087 108.808 350.712 108.727 351.316 108.564C351.921 108.401 352.485 108.198 353.009 107.954C353.553 107.71 354.047 107.446 354.49 107.161C354.954 106.877 355.367 106.602 355.73 106.338Z" fill="black"/>
<path d="M366.439 81.7299C366.197 81.7299 365.985 81.8417 365.804 82.0653C365.643 82.2686 365.562 82.5024 365.562 82.7667V90.2071C365.562 90.8576 365.854 91.1829 366.439 91.1829H376.778V116.797C376.778 117.082 376.818 117.387 376.899 117.712C376.999 118.037 377.251 118.2 377.654 118.2H385.907C386.27 118.2 386.552 118.068 386.754 117.804C386.955 117.519 387.056 117.183 387.056 116.797V91.1829H397.606C397.747 91.1829 397.919 91.1117 398.12 90.9694C398.322 90.8271 398.422 90.5425 398.422 90.1156V82.5227C398.422 82.0145 398.181 81.7604 397.697 81.7604L366.439 81.7299ZM397.697 80.8456C398.785 80.8456 399.329 81.4047 399.329 82.5227V90.1156C399.329 90.5018 399.269 90.8271 399.148 91.0914C399.027 91.3556 398.876 91.5589 398.695 91.7012C398.513 91.8435 398.322 91.9452 398.12 92.0062C397.919 92.0672 397.747 92.0977 397.606 92.0977H387.963V116.797C387.963 117.427 387.781 117.976 387.419 118.444C387.056 118.891 386.552 119.115 385.907 119.115H377.654C377.251 119.115 376.929 119.033 376.687 118.871C376.445 118.728 376.264 118.546 376.143 118.322C376.022 118.078 375.941 117.824 375.901 117.56C375.881 117.275 375.871 117.021 375.871 116.797V92.0977H366.439C365.25 92.0977 364.655 91.4675 364.655 90.2071V82.7667C364.655 82.2585 364.827 81.8112 365.169 81.425C365.532 81.0184 365.955 80.8151 366.439 80.8151L397.697 80.8456Z" fill="black"/>
<path d="M439.101 82.6142C439.101 82.045 438.819 81.7604 438.254 81.7604H432.39C432.108 81.7604 431.926 81.8417 431.846 82.0044C431.785 82.167 431.674 82.4211 431.513 82.7667L430.123 86.121C428.732 84.4743 427.089 83.2749 425.195 82.5227C423.301 81.7503 421.265 81.364 419.089 81.364C416.529 81.364 414.141 81.8621 411.924 82.8582C409.707 83.834 407.782 85.1757 406.15 86.8833C404.518 88.5706 403.238 90.5527 402.311 92.8295C401.384 95.1063 400.92 97.5356 400.92 100.117C400.92 102.923 401.414 105.474 402.401 107.771C403.409 110.068 404.749 112.04 406.422 113.687C408.095 115.313 410.03 116.574 412.226 117.468C414.423 118.363 416.71 118.81 419.089 118.81C420.983 118.81 422.787 118.393 424.5 117.56C426.233 116.706 427.825 115.517 429.276 113.992L430.002 116.096L429.971 115.943C430.052 116.147 430.143 116.381 430.243 116.645C430.344 116.909 430.465 117.153 430.606 117.377C430.747 117.6 430.898 117.793 431.06 117.956C431.241 118.119 431.433 118.2 431.634 118.2H438.254C438.819 118.2 439.101 117.915 439.101 117.346V82.6142ZM440.008 117.346C440.008 118.525 439.423 119.115 438.254 119.115H431.634C431.271 119.115 430.949 119.013 430.667 118.81C430.405 118.607 430.173 118.352 429.971 118.047C429.77 117.743 429.599 117.417 429.457 117.072C429.316 116.726 429.195 116.421 429.095 116.157L429.034 115.882L429.064 116.035C429.004 115.872 428.974 115.811 428.974 115.852C428.994 115.893 428.974 115.832 428.913 115.669C427.583 116.95 426.092 117.946 424.439 118.657C422.787 119.369 421.003 119.725 419.089 119.725C416.589 119.725 414.181 119.257 411.864 118.322C409.566 117.387 407.541 116.065 405.787 114.358C404.034 112.63 402.633 110.566 401.585 108.168C400.537 105.748 400.013 103.065 400.013 100.117C400.013 97.4137 400.497 94.8725 401.464 92.4941C402.452 90.0953 403.802 88.0115 405.515 86.2429C407.228 84.454 409.244 83.0411 411.561 82.0044C413.899 80.9676 416.408 80.4492 419.089 80.4492C421.245 80.4492 423.24 80.7541 425.074 81.364C426.908 81.9739 428.47 82.97 429.76 84.3523L430.667 82.4618C430.788 82.1975 430.888 81.9637 430.969 81.7604C431.07 81.5571 431.171 81.3945 431.271 81.2725C431.372 81.1302 431.503 81.0286 431.664 80.9676C431.846 80.8863 432.087 80.8456 432.39 80.8456H438.254C439.423 80.8456 440.008 81.4352 440.008 82.6142V117.346ZM428.913 100.056C428.913 101.357 428.671 102.598 428.188 103.777C427.724 104.956 427.069 105.992 426.223 106.887C425.397 107.761 424.409 108.462 423.26 108.991C422.132 109.499 420.912 109.753 419.602 109.753C418.292 109.753 417.083 109.509 415.975 109.021C414.866 108.534 413.899 107.863 413.073 107.009C412.267 106.135 411.632 105.108 411.168 103.929C410.705 102.73 410.473 101.439 410.473 100.056C410.473 98.6131 410.715 97.3018 411.198 96.1228C411.702 94.9234 412.367 93.8968 413.194 93.0429C414.04 92.1891 415.018 91.5284 416.126 91.0609C417.234 90.5933 418.393 90.3595 419.602 90.3595C420.912 90.3595 422.132 90.6238 423.26 91.1524C424.409 91.6606 425.397 92.3619 426.223 93.2564C427.069 94.1305 427.724 95.1571 428.188 96.3362C428.671 97.5153 428.913 98.7554 428.913 100.056ZM428.006 100.056C428.006 98.8773 427.795 97.7592 427.372 96.7021C426.948 95.6247 426.354 94.6896 425.588 93.8968C424.842 93.0836 423.956 92.4432 422.928 91.9757C421.9 91.5081 420.791 91.2743 419.602 91.2743C418.514 91.2743 417.466 91.4878 416.459 91.9147C415.471 92.3416 414.594 92.9413 413.828 93.7138C413.083 94.4863 412.488 95.4113 412.045 96.4887C411.602 97.5661 411.38 98.7554 411.38 100.056C411.38 101.296 411.581 102.455 411.984 103.533C412.408 104.61 412.982 105.545 413.708 106.338C414.453 107.111 415.33 107.72 416.338 108.168C417.345 108.615 418.434 108.838 419.602 108.838C420.791 108.838 421.9 108.605 422.928 108.137C423.956 107.67 424.842 107.039 425.588 106.247C426.354 105.433 426.948 104.498 427.372 103.441C427.795 102.364 428.006 101.235 428.006 100.056Z" fill="black"/>
</svg>
