<svg width="526" height="512" viewBox="0 0 526 512" fill="none" xmlns="http://www.w3.org/2000/svg">
<path d="M519.65 429.264C532.439 453.422 523.495 486.688 500.295 501.255C480.342 513.782 454.949 512.34 431.433 510.468C366.594 505.307 301.756 500.145 236.919 494.982C213.739 493.136 186.425 496.829 169.442 481.604C151.387 465.416 139.185 423.624 127.845 401.905C119.646 386.196 111.4 370.414 100.862 356.154C89.1305 340.303 74.7577 326.57 58.3678 315.553C119.751 316.883 180.86 323.748 241.872 330.603L287.693 335.752C304.924 337.689 322.165 339.627 339.261 342.511C359.207 345.88 378.912 350.524 398.599 355.168L483.395 375.159" fill="#3A2E26"/>
<g style="mix-blend-mode:multiply" opacity="0.25">
<path d="M424.326 431.457C440.267 433.279 456.413 431.144 471.323 425.242C472.141 424.916 473.096 424.38 473.078 423.503C473.06 422.627 471.247 422.69 471.638 423.475L449.218 367.097C432.346 363.12 415.473 359.143 398.6 355.165C378.912 350.524 359.208 345.876 339.259 342.514C322.163 339.629 304.922 337.691 287.691 335.755L241.869 330.605C180.856 323.748 119.749 316.884 58.3651 315.554C72.0959 324.798 84.4236 335.957 94.9712 348.688C96.5749 348.693 98.1786 348.738 99.7762 348.869C98.7867 349.557 97.7654 350.196 96.729 350.811C98.0216 352.423 99.2849 354.058 100.519 355.716L107.869 355.334C105.955 356.242 103.993 357.049 101.992 357.75C102.444 358.375 102.89 359.002 103.331 359.632L124.301 358.183C121.397 358.526 118.665 359.74 116.471 361.666C114.277 363.592 112.723 366.137 112.017 368.964C117.265 364.442 123.9 361.829 130.834 361.554L122.797 367.718C130.953 364.372 139.767 362.918 148.57 363.466C144.288 364.277 140.21 365.929 136.576 368.326C142.628 366.868 148.845 366.203 155.07 366.345C153.336 366.402 151.649 366.924 150.189 367.857C148.728 368.789 147.547 370.098 146.772 371.643C153.936 368.528 161.759 367.216 169.553 367.825C163.865 368.144 158.384 370.064 153.748 373.362C157.817 371.859 162.07 370.909 166.393 370.537C163.063 371.033 160.405 373.744 159.056 376.816C157.706 379.888 157.437 383.307 157.204 386.65C158.346 382.842 160.876 379.596 164.297 377.548C167.706 375.532 171.531 374.315 175.483 373.99C172.696 374.714 170.248 376.381 168.56 378.705C166.872 381.029 166.049 383.866 166.231 386.728C167.94 381.756 173.2 379.065 177.995 376.868C176.879 377.864 176.115 379.192 175.818 380.655C175.521 382.118 175.706 383.637 176.346 384.987C177.741 378.247 184.603 373.089 191.494 373.597C187.815 375.409 184.517 377.904 181.777 380.947C186.83 378.39 192.486 377.246 198.141 377.636C196.166 378.067 194.298 378.885 192.644 380.043C190.991 381.201 189.585 382.675 188.51 384.379C192.745 380.198 198.337 377.654 204.284 377.203C202.692 378.389 201.432 379.963 200.625 381.772C199.818 383.582 199.491 385.568 199.676 387.539C202.841 384.197 207.028 381.99 211.584 381.263C209.859 382.715 208.64 384.674 208.101 386.859C207.563 389.044 207.734 391.342 208.589 393.424C209.68 389.227 212.809 385.718 216.628 383.637C220.52 381.643 224.876 380.717 229.246 380.957C225.818 381.78 222.793 383.785 220.707 386.617C224.811 384.772 229.255 383.793 233.758 383.743C231.489 384.651 229.467 386.078 227.855 387.908C227.059 388.83 226.484 389.92 226.175 391.096C225.865 392.271 225.829 393.502 226.069 394.694C229.681 390.982 234.195 388.263 239.173 386.799C237.091 389.263 235.702 392.232 235.146 395.404C235.659 392.452 241.324 389.005 243.714 387.762C247.623 385.724 250.935 386.448 255.151 387.394C252.608 387.685 250.247 388.852 248.478 390.694C246.709 392.535 245.643 394.935 245.465 397.478C250.512 392.934 256.798 389.981 263.529 388.99C261.822 390.083 260.378 391.538 259.3 393.251C258.222 394.963 257.537 396.891 257.293 398.898C262.7 394.192 269.516 391.394 276.683 390.937C274.892 391.445 273.232 392.33 271.816 393.533C270.399 394.736 269.259 396.228 268.473 397.908C273.581 395.764 278.959 394.322 284.458 393.622L275.661 399.622C282.559 399.448 289.353 397.913 295.651 395.108C293.424 398.691 290.441 401.749 286.909 404.071C294.807 403.571 302.491 401.305 309.389 397.442C307.633 398.871 305.878 400.3 304.124 401.731C309.627 400.486 315.13 399.242 320.632 397.999C317.601 402.177 316.112 407.268 316.417 412.412C317.598 409.514 319.529 406.98 322.014 405.067C324.498 403.154 327.448 401.931 330.561 401.523C328.168 403.686 326.311 406.374 325.139 409.374C332.969 404.913 341.795 402.471 350.814 402.271C345.21 404.536 340.183 408.017 336.1 412.46C342.002 410.134 347.904 407.808 353.808 405.481C353.397 408.375 352.065 411.061 350.007 413.145L364.832 409.46C362.579 411.731 360.9 414.503 359.935 417.548C358.97 420.592 358.746 423.822 359.282 426.969C362.881 421.03 368.636 416.696 375.355 414.866C372.509 417.413 370.329 420.612 369.001 424.185C367.674 427.759 367.24 431.601 367.736 435.379C369.86 427.048 374.883 419.737 381.912 414.749C378.147 419.473 375.701 425.103 374.821 431.07C376.222 427.737 378.28 424.717 380.873 422.19C383.467 419.663 386.543 417.68 389.92 416.357C387.129 420.033 385.369 424.381 384.82 428.956C390.37 425.378 395.919 421.801 401.467 418.226C400.305 421.097 399.142 423.968 397.978 426.839C404.631 425.666 411.059 423.469 417.032 420.326C413.247 424.394 410.738 429.474 409.811 434.942L428.95 426.324C426.838 427.424 425.196 429.247 424.326 431.457Z" fill="#3A2E26"/>
</g>
<path d="M469.047 410.688C468.66 409.9 470.472 409.841 470.489 410.717C470.505 411.594 469.548 412.13 468.729 412.453C453.803 418.314 437.652 420.407 421.716 418.544C422.222 417.261 422.994 416.098 423.981 415.132C424.967 414.165 426.148 413.416 427.444 412.934L407.191 421.988C408.133 416.524 410.656 411.451 414.45 407.393C408.469 410.521 402.035 412.702 395.379 413.857C396.549 410.989 397.72 408.122 398.891 405.256L382.217 415.938C382.778 411.365 384.55 407.022 387.351 403.355C383.97 404.668 380.888 406.643 378.288 409.163C375.688 411.683 373.621 414.697 372.212 418.027C373.108 412.063 375.569 406.44 379.345 401.726C372.302 406.696 367.258 413.993 365.111 422.319C364.625 418.54 365.068 414.7 366.405 411.13C367.741 407.559 369.929 404.366 372.781 401.826C366.057 403.64 360.291 407.959 356.677 413.889C356.149 410.74 356.382 407.511 357.355 404.469C358.328 401.426 360.014 398.658 362.273 396.393L347.44 400.039C349.502 397.96 350.84 395.278 351.257 392.385L333.535 399.318C337.632 394.887 342.668 391.419 348.277 389.167C339.258 389.343 330.426 391.762 322.585 396.204C323.764 393.207 325.627 390.523 328.027 388.366C324.912 388.767 321.96 389.982 319.47 391.888C316.98 393.795 315.042 396.324 313.853 399.219C313.564 394.073 315.068 388.985 318.11 384.815L301.591 388.504C303.349 387.078 305.107 385.653 306.866 384.229C299.958 388.073 292.269 390.319 284.37 390.799C287.908 388.487 290.899 385.436 293.135 381.858C286.831 384.648 280.034 386.165 273.137 386.32C276.073 384.329 279.01 382.337 281.948 380.345C276.447 381.03 271.066 382.458 265.952 384.589C266.743 382.911 267.887 381.422 269.306 380.223C270.726 379.024 272.388 378.143 274.179 377.64C267.011 378.079 260.189 380.86 254.77 385.552C255.019 383.546 255.709 381.62 256.792 379.91C257.874 378.2 259.322 376.75 261.033 375.662C254.298 376.634 248.004 379.571 242.944 384.102C243.129 381.56 244.201 379.163 245.975 377.326C247.748 375.489 250.112 374.327 252.655 374.043C248.44 373.085 245.132 372.354 241.218 374.381C238.827 375.62 233.152 379.05 232.631 382.001C233.196 378.831 234.593 375.866 236.68 373.407C231.699 374.857 227.179 377.562 223.556 381.26C223.319 380.068 223.358 378.837 223.671 377.662C223.984 376.487 224.561 375.398 225.36 374.479C226.976 372.652 229.001 371.23 231.272 370.328C226.77 370.368 222.324 371.336 218.216 373.171C220.309 370.345 223.339 368.349 226.769 367.535C222.399 367.283 218.041 368.197 214.144 370.182C210.321 372.252 207.181 375.755 206.08 379.947C205.231 377.863 205.066 375.563 205.61 373.38C206.154 371.196 207.379 369.24 209.109 367.792C204.55 368.507 200.357 370.703 197.183 374.038C197.003 372.067 197.334 370.083 198.145 368.276C198.955 366.469 200.218 364.899 201.812 363.717C195.863 364.152 190.264 366.681 186.017 370.852C187.098 369.151 188.507 367.68 190.164 366.527C191.82 365.374 193.691 364.561 195.667 364.135C190.013 363.73 184.356 364.86 179.296 367.403C182.044 364.367 185.348 361.881 189.031 360.078C182.141 359.553 175.267 364.693 173.854 371.431C173.217 370.08 173.036 368.56 173.337 367.098C173.637 365.635 174.405 364.309 175.524 363.316C170.723 365.5 165.456 368.178 163.734 373.145C163.559 370.282 164.389 367.448 166.084 365.128C167.778 362.808 170.23 361.148 173.019 360.431C169.067 360.745 165.239 361.952 161.825 363.96C158.4 365.999 155.862 369.238 154.708 373.042C154.951 369.698 155.228 366.281 156.585 363.213C157.942 360.144 160.608 357.439 163.94 356.951C159.617 357.312 155.363 358.251 151.292 359.743C155.937 356.458 161.422 354.553 167.111 354.25C159.32 353.621 151.492 354.911 144.32 358.007C145.1 356.464 146.284 355.158 147.747 354.229C149.21 353.301 150.898 352.782 152.632 352.73C146.409 352.571 140.191 353.22 134.135 354.661C137.776 352.274 141.857 350.633 146.142 349.834C137.34 349.263 128.523 350.693 120.358 354.017C123.041 351.97 125.725 349.923 128.41 347.876C121.475 348.134 114.834 350.729 109.575 355.238C110.288 352.413 111.848 349.872 114.047 347.953C116.246 346.033 118.98 344.826 121.886 344.492L89.563 346.638C95.0727 345.702 100.424 344.006 105.464 341.598L80.0574 342.847C86.2612 341.35 92.1353 338.728 97.3862 335.113C89.0607 334.406 79.2137 333.332 71.9005 337.969C74.1512 334.492 77.3502 331.724 81.1229 329.992C75.0325 329.481 68.9551 331.112 63.9475 334.602C66.8333 330.321 71.269 327.316 76.3276 326.216C68.7381 326.033 61.2125 327.636 54.3624 330.895C58.7442 326.316 64.2364 322.938 70.3099 321.085C61.1737 320.637 52.1574 323.307 44.7517 328.654C46.0385 325.515 48.1649 322.787 50.8997 320.767C53.6344 318.747 56.873 317.512 60.2632 317.197C52.3503 317.133 44.5168 318.629 36.7462 320.12L54.0093 313.668L32.7448 316.262C38.6376 314.669 44.2999 312.327 49.5919 309.294C39.5881 310.969 29.3666 310.533 19.2322 310.094C27.4448 310.32 35.6052 308.726 43.1238 305.428C33.6766 302.99 23.6816 303.771 14.7319 307.646C16.9017 304.684 19.7028 302.237 22.9344 300.48C26.1659 298.724 29.7479 297.701 33.4233 297.485C28.9596 296.041 24.2043 295.729 19.5891 296.579C14.9738 297.429 10.6447 299.412 6.99448 302.35C7.35724 298.153 11.3835 295.117 15.4671 294.011C19.5507 292.905 23.8783 293.166 28.0524 292.47C18.7993 290.289 9.05908 291.714 0.826904 296.453C4.03438 291.685 9.42323 288.667 15.0442 287.393C20.6653 286.12 26.5309 286.434 32.2376 287.239C25.1105 283.077 17.0682 280.717 8.81379 280.366C18.0078 278.876 28.2846 277.613 35.8914 282.968C32.4472 279.302 29.148 275.509 25.994 271.589C31.618 275.709 37.418 279.578 43.394 283.193C39.3766 280.063 35.7713 276.441 32.6632 272.414C38.6297 276.629 44.6577 280.877 51.3926 283.728C46.4142 280.575 42.5667 275.933 40.4021 270.467C45.9181 276.206 52.5925 280.716 59.9855 283.7C55.5538 278.666 50.0794 274.648 43.9391 271.922C52.4059 274.039 60.174 278.312 66.4799 284.323C63.3855 280.11 61.9211 274.927 62.3555 269.725C64.0784 275.563 67.8218 280.605 72.9218 283.957C71.839 282.001 70.9359 279.712 69.4227 278.063C71.9337 280.372 75.5931 281.019 77.9147 283.549C78.5787 284.272 79.126 285.156 80.0083 285.587C79.5207 284.177 78.7505 282.88 77.7445 281.775C76.7385 280.67 75.5176 279.78 74.1558 279.159C78.254 280.498 82.529 281.943 85.5064 285.048C83.1923 282.1 80.8078 278.998 80.1058 275.321C82.1897 279.025 85.5284 281.87 89.525 283.348C87.214 281.297 85.4111 278.741 84.2578 275.88C84.993 277.706 87.8246 278.451 89.4767 279.203C91.7407 280.236 94.044 281.178 96.3863 282.028C94.1484 277.894 90.5244 274.673 86.1462 272.927C93.1331 274.137 99.6997 277.086 105.236 281.499C103.487 276.561 98.5843 273.546 93.9735 271.031C100.162 272.581 105.587 276.204 110.874 279.761C109.728 277.501 108.57 275.198 108.143 272.701C107.716 270.204 108.123 267.442 109.812 265.545C110.461 268.928 111.963 272.092 114.177 274.739C116.39 277.386 119.243 279.429 122.467 280.678C120.894 277.617 119.08 274.685 117.041 271.91C121.027 274.481 125.012 277.053 128.995 279.625C128.389 278.585 127.783 277.545 127.176 276.506C126.454 275.437 125.955 274.234 125.71 272.969C125.599 272.334 125.679 271.68 125.941 271.091C126.202 270.501 126.633 270.002 127.179 269.656C127.091 270.024 127.085 270.407 127.161 270.779C127.237 271.15 127.393 271.5 127.618 271.805C129.773 275.584 133.111 278.558 137.122 280.273C135.581 278.669 134.413 276.748 133.702 274.644C133.108 272.511 133.439 270.007 135.029 268.464C134.804 270.164 135.968 271.711 137.138 272.967C139.419 275.413 141.98 277.584 144.77 279.435C143.344 277.569 142.471 275.343 142.251 273.009C142.32 273.755 143.649 274.997 144.136 275.539C144.923 276.42 145.796 277.221 146.742 277.93C148.605 279.463 150.917 280.353 153.331 280.466L143.738 271.126C148.408 275.459 153.917 278.796 159.928 280.933L156.483 276.68C161.852 278.87 167.406 280.283 172.876 282.129C171.246 281.047 169.858 279.642 168.798 278.002C167.739 276.361 167.03 274.52 166.718 272.595C170.667 277.383 176.067 280.77 182.111 282.246C180.491 281.385 179.065 280.201 177.923 278.769C176.781 277.337 175.946 275.687 175.47 273.921C179.156 277.645 183.685 280.435 188.677 282.057C185.642 279.359 183.687 275.662 183.172 271.644C182.975 273.352 184.294 274.828 185.572 275.979C188.732 278.835 192.228 281.3 195.984 283.319C193.392 279.99 191.527 276.159 190.507 272.071C193.479 277.784 198.35 282.292 204.289 284.825C203.828 283.034 203.015 281.352 201.898 279.876C200.78 278.4 199.38 277.159 197.778 276.224C203.476 278.143 208.791 281.043 213.482 284.791C210.956 280.25 210.033 274.997 210.86 269.872C211.601 276.217 214.807 282.022 219.793 286.041C217.621 281.999 216.457 277.497 216.398 272.913C217.823 280.465 225.01 285.386 231.748 289.132C229.813 284.622 227.137 280.465 223.83 276.831C228.611 281.392 233.105 286.242 237.286 291.355L233.611 279.669C236.202 285.302 240.548 289.953 246.005 292.93C244.418 289.603 242.83 286.274 241.244 282.944C244.402 287.7 248.233 291.977 252.62 295.641C250.821 291.527 250.259 286.98 251.005 282.554C250.889 285.258 251.406 287.951 252.515 290.422C253.624 292.892 255.295 295.072 257.395 296.79C256.475 294.133 255.543 291.416 255.535 288.606C255.527 285.796 256.609 282.823 258.963 281.27C256.531 288.02 260.636 296.367 267.48 298.596C267.215 296.762 266.562 295.005 265.564 293.442C264.566 291.878 263.245 290.544 261.69 289.528C266.997 291.424 271.41 295.212 274.077 300.158C271.935 294.952 269.782 289.041 272.018 283.873C271.741 287.262 273.181 290.609 275.279 293.291C277.376 295.972 280.099 298.089 282.794 300.177C281.943 295.54 279.367 291.394 275.579 288.567C280.895 290.035 285.496 293.372 288.529 297.96C287.208 293.833 284.686 290.191 281.281 287.496C287.397 289.65 290.592 296.402 296.106 299.807C294.249 295.06 293.511 289.952 293.947 284.876C293.692 287.812 296.081 291.648 298.02 293.653C300.129 295.832 304.078 297.071 306.934 297.972C305.456 295.958 303.978 293.943 302.5 291.927C307.025 294.392 311.13 297.553 314.667 301.291C312.493 297.507 311.639 293.111 312.237 288.792C313.744 292.97 316.2 296.744 319.412 299.822C317.679 297.024 316.941 293.726 317.317 290.46C319.974 293.682 322.631 296.905 325.289 300.128C323.406 296.474 322.558 292.378 322.838 288.281C324.63 291.577 327.197 294.392 330.319 296.486C333.441 298.58 337.025 299.891 340.766 300.306C337.818 297.682 334.873 295.059 331.931 292.435C339.285 297.046 347.391 300.343 355.884 302.177C353.135 299.029 350.386 295.88 347.637 292.73L366.49 302.975C363.527 299.36 361.335 295.183 360.045 290.697C364.58 294.599 369.114 298.503 373.647 302.407L365.571 296.91L388.869 304.677C387.186 303.423 385.84 301.774 384.95 299.878C384.06 297.982 383.653 295.896 383.766 293.806C388.001 298.359 393.066 302.07 398.691 304.741L391.804 297.222C398.6 299.853 404.959 303.489 410.667 308.006C409.082 306.561 407.936 304.702 407.362 302.639C406.788 300.577 406.808 298.395 407.42 296.344C409.907 301.207 413.323 305.542 417.476 309.104C415.853 306.008 413.684 303.227 411.072 300.896C417.095 302.994 422.47 306.607 426.676 311.384C426.051 307.568 426.63 303.652 428.335 300.178C428.934 304.145 429.535 308.111 430.139 312.077" fill="url(#paint0_linear)"/>
<path d="M96.0415 406.751C94.6599 404.534 93.7919 402.039 93.5009 399.446C93.3618 398.152 93.4846 396.842 93.8621 395.596C94.2396 394.349 94.8642 393.19 95.6988 392.188C97.5644 390.124 100.355 389.249 103.029 388.574C105.704 387.898 108.506 387.286 110.676 385.559C110.915 389.343 108.493 392.773 105.802 395.403C103.111 398.034 99.9794 400.317 98.0681 403.576C97.7379 404.042 97.5032 404.568 97.3776 405.125C97.2521 405.682 97.238 406.257 97.3364 406.819" fill="url(#paint1_linear)"/>
<path d="M111.987 420.164C110.481 417.839 109.53 415.202 109.206 412.454C109.056 411.081 109.192 409.691 109.607 408.373C110.021 407.055 110.705 405.836 111.614 404.793C113.655 402.614 116.227 401.742 119.22 401.404C122.958 400.981 126.102 400.789 128.013 397.795C128.275 401.793 127.392 404.706 122.676 407.697C119.268 409.861 111.987 411.306 111.987 420.163" fill="url(#paint2_linear)"/>
<path d="M81.2833 397.795C78.4779 396.733 74.5614 393.903 73.7516 390.942C73.3693 389.454 73.4268 387.887 73.9171 386.431C74.4075 384.975 75.3097 383.691 76.5155 382.733C77.1107 382.346 77.6738 381.912 78.1994 381.435C78.7002 380.847 79.1031 380.183 79.3928 379.468L81.0214 375.999C81.738 377.697 81.4996 379.656 80.9869 381.428C80.4742 383.2 79.6989 384.896 79.3513 386.707C78.6244 390.488 79.3893 395.17 82.1615 397.792" fill="url(#paint3_linear)"/>
<path d="M111.355 419.681C109.314 418.927 107.219 418.329 105.087 417.892C101.356 417.025 97.2866 416.191 93.8207 417.846C89.6749 419.824 88.9839 423.969 86.3976 427.355C85.0318 429.279 83.0516 430.686 80.7801 431.346C83.4444 432.417 86.3618 432.703 89.1849 432.171C92.008 431.638 94.618 430.309 96.7041 428.341C98.2933 426.807 99.5329 424.933 101.067 423.341C103.834 420.465 108.162 419.185 111.964 420.643" fill="url(#paint4_linear)"/>
<path d="M96.2834 406.917C93.1934 404.773 86.8213 403.308 83.4114 403.615C80.0319 403.918 76.1487 404.671 73.6052 407.255C71.0618 409.839 69.0621 415.73 69.3212 420.641C75.5213 413.885 86.4302 407.435 95.732 407.092" fill="url(#paint5_linear)"/>
<path d="M81.4158 397.77C78.1883 396.3 71.9219 395.812 68.7096 396.49C65.5249 397.161 61.9202 398.279 59.83 400.813C57.7398 403.347 56.599 408.657 57.4862 412.854C62.5192 406.286 72.0857 399.408 80.91 397.984" fill="url(#paint6_linear)"/>
<path d="M51.392 389.555C69.2936 390.895 86.4834 398.524 100.524 409.895C114.564 421.266 125.549 436.252 133.547 452.592" stroke="#707070" stroke-miterlimit="10"/>
<path d="M67.2738 392.491C65.8491 391.752 64.5265 390.821 63.128 390.03C59.3126 387.823 54.9138 386.823 50.5144 387.161C46.0906 387.538 41.9578 389.512 38.8937 392.712C42.0867 392.313 45.2313 393.508 48.389 394.131C52.3518 394.908 56.4393 394.787 60.349 393.778C62.6249 393.192 64.9387 392.761 67.2738 392.491Z" fill="url(#paint7_linear)"/>
<path d="M158.584 429.699C158.082 427.175 157.05 424.785 155.555 422.686C154.016 420.672 151.792 419.166 149.393 418.983C146.815 418.785 144.387 420.084 142.164 421.448C139.941 422.813 137.672 424.308 135.108 424.565C137.399 427.455 141.232 428.247 144.729 428.281C148.226 428.314 151.79 427.791 155.176 428.814C155.708 428.929 156.211 429.151 156.655 429.465C157.099 429.778 157.475 430.178 157.76 430.64" fill="url(#paint8_linear)"/>
<path d="M156.61 450.376C156.124 447.688 155.057 445.138 153.482 442.903C151.863 440.77 149.497 439.201 146.918 439.054C144.147 438.898 141.866 440.05 139.649 441.875C136.885 444.155 134.659 446.191 131.447 445.36C133.858 448.417 136.333 449.901 141.414 448.794C145.086 447.995 150.88 444.001 156.61 450.377" fill="url(#paint9_linear)"/>
<path d="M162.642 413.048C163.827 410.344 164.611 405.6 163.235 402.911C162.583 401.607 161.552 400.529 160.277 399.816C159.002 399.103 157.54 398.788 156.083 398.912C155.437 399.045 154.78 399.123 154.12 399.143C153.402 399.066 152.703 398.867 152.053 398.555L148.721 397.183C149.428 398.837 150.674 400.205 152.258 401.067C153.746 401.987 155.36 402.673 156.765 403.736C159.696 405.954 162.211 409.852 162.058 413.657" fill="url(#paint10_linear)"/>
<path d="M156.722 449.59C157.591 447.645 158.602 445.765 159.747 443.967C161.682 440.761 163.854 437.35 167.238 436.143C171.283 434.698 174.424 437.206 178.344 437.856C180.508 438.295 182.758 437.936 184.675 436.843C182.587 442.088 177.449 445.702 172.099 445.691C170.045 445.686 168.008 445.194 165.954 445.108C164.06 445.026 162.185 445.517 160.575 446.514C158.966 447.512 157.697 448.971 156.935 450.7" fill="url(#paint11_linear)"/>
<path d="M158.529 429.984C159.204 426.304 162.51 420.845 164.984 418.708C167.437 416.59 170.515 414.447 173.884 414.548C177.252 414.648 182.398 417.506 185.402 421.222C176.893 420.647 165.44 423.545 159.007 429.731" fill="url(#paint12_linear)"/>
<path d="M162.538 413.121C163.739 409.832 167.607 405.149 170.189 403.415C172.75 401.695 175.879 400.01 178.914 400.388C181.948 400.765 186.144 403.801 188.266 407.433C180.658 406.187 169.825 407.852 163.013 412.931" fill="url(#paint13_linear)"/>
<path d="M177.265 386.452C166.182 399.794 159.645 417.169 157.623 435.059C155.602 452.95 157.964 471.33 163.193 488.619" stroke="#707070" stroke-miterlimit="10"/>
<path d="M168.564 399.543C169.038 398.025 169.319 396.443 169.739 394.907C170.816 390.747 173.099 386.995 176.303 384.118C179.418 381.362 183.485 379.914 187.649 380.08C185.261 382.001 183.933 385.034 182.228 387.667C180.133 390.92 177.326 393.66 174.017 395.681C172.109 396.839 170.285 398.129 168.559 399.543" fill="url(#paint14_linear)"/>
<path style="mix-blend-mode:multiply" opacity="0.45" d="M59.4445 301.252C60.8119 305.286 64.8106 307.864 68.8417 309.293C72.8728 310.722 76.8569 312.383 81.0663 313.123C89.5534 314.612 113.298 352.515 113.298 352.515C113.298 352.515 122.101 356.392 122.985 356.891C124.017 357.386 125.131 357.687 126.272 357.78C134.794 359.037 165.511 369.979 165.511 369.979C165.511 369.979 110.86 307.823 108.672 305.464C104.785 301.313 99.4732 298.768 93.7904 298.334" fill="url(#paint15_linear)"/>
<path style="mix-blend-mode:multiply" opacity="0.45" d="M157.216 326.667C155.472 327.901 153.532 329.514 153.661 331.641C153.853 334.816 158.084 335.712 161.28 335.701L177.256 335.664C187.518 351.847 197.418 368.25 206.954 384.873L244.913 387.22C244.913 387.22 198.682 326.735 196.018 324.082C193.353 321.429 157.216 326.667 157.216 326.667Z" fill="url(#paint16_linear)"/>
<path style="mix-blend-mode:multiply" opacity="0.45" d="M244.879 343.608C243.411 345.079 240.824 345.122 241.819 346.943C244.787 352.37 260.475 349.833 265.58 348.944C278.099 362.77 290.307 376.866 302.201 391.233L386.604 434.667C386.604 434.667 278.187 335.553 275.193 333.447C272.199 331.34 244.879 343.608 244.879 343.608Z" fill="url(#paint17_linear)"/>
<path d="M70.3106 272.697L77.1713 289.371C77.1713 289.371 63.0333 292.217 58.9152 296.32C58.3702 296.936 57.9914 297.679 57.8145 298.481C57.5132 299.608 58.9746 302.237 60.1396 302.374L97.4457 307.511C100.658 307.89 103.05 302.667 102.081 299.593L89.4312 259.436" fill="#DB340A"/>
<path d="M73.3674 274.094C73.3674 274.094 72.7967 273.049 71.9226 271.579L70.3106 272.697L77.1712 289.371C77.1712 289.371 63.0334 292.217 58.9152 296.32C58.3703 296.936 57.9915 297.679 57.8145 298.481C58.8289 293.404 79.7229 290.588 79.7229 290.588L73.3674 274.094Z" fill="#FFE633"/>
<path d="M70.0487 295.347C70.0488 295.476 70.0234 295.603 69.974 295.722C69.9245 295.841 69.852 295.949 69.7605 296.04C69.6691 296.131 69.5605 296.204 69.441 296.253C69.3215 296.302 69.1934 296.327 69.0641 296.327C68.9348 296.327 68.8069 296.302 68.6875 296.253C68.5681 296.203 68.4597 296.131 68.3683 296.04C68.277 295.949 68.2046 295.841 68.1553 295.722C68.1059 295.603 68.0807 295.475 68.0808 295.347C68.0808 295.087 68.1844 294.838 68.3688 294.654C68.5532 294.471 68.8033 294.368 69.0641 294.368C69.1933 294.368 69.3213 294.393 69.4407 294.442C69.5601 294.491 69.6686 294.563 69.7601 294.654C69.8515 294.745 69.924 294.853 69.9736 294.972C70.0231 295.091 70.0486 295.218 70.0487 295.347Z" fill="#9B2710"/>
<path d="M78.0757 293.375C78.0757 293.504 78.0504 293.631 78.0009 293.75C77.9515 293.869 77.8789 293.977 77.7875 294.068C77.696 294.159 77.5874 294.232 77.4679 294.281C77.3484 294.33 77.2204 294.355 77.091 294.355C76.83 294.355 76.5796 294.252 76.395 294.068C76.2104 293.884 76.1066 293.635 76.1064 293.375C76.1068 293.115 76.2107 292.866 76.3953 292.682C76.5799 292.499 76.8301 292.396 77.091 292.396C77.2202 292.396 77.3482 292.421 77.4676 292.47C77.587 292.519 77.6955 292.591 77.787 292.682C77.8784 292.773 77.951 292.881 78.0005 293C78.05 293.119 78.0756 293.246 78.0757 293.375Z" fill="#9B2710"/>
<path d="M100.122 293.373C100.122 293.373 90.9568 295.487 92.8631 304.188" stroke="#721C0E" stroke-width="0.5" stroke-linejoin="round"/>
<path d="M57.9782 299.802L96.4049 304.633C98.0931 304.704 99.784 304.681 101.47 304.564" stroke="#721C0E" stroke-width="0.5" stroke-linejoin="round"/>
<path d="M75.9538 289.635L72.8893 294.155" stroke="#721C0E" stroke-width="0.5" stroke-linecap="round" stroke-linejoin="round"/>
<path d="M72.0526 290.586L68.988 295.106" stroke="#721C0E" stroke-width="0.5" stroke-linecap="round" stroke-linejoin="round"/>
<path d="M72.8893 290.382L76.9751 293.373" stroke="#721C0E" stroke-width="0.5" stroke-linecap="round" stroke-linejoin="round"/>
<path d="M67.7361 291.895L72.6842 294.019" stroke="#721C0E" stroke-width="0.5" stroke-linecap="round" stroke-linejoin="round"/>
<path d="M64.2129 293.199C63.6323 295.627 63.6323 298.157 64.2129 300.584" stroke="#721C0E" stroke-width="0.5" stroke-linejoin="round"/>
<path d="M72.8894 278.963C72.8894 278.963 87.0403 277.975 94.5994 275.841" stroke="#721C0E" stroke-width="0.5" stroke-linejoin="round"/>
<path d="M160.356 298.127L168.693 316.479C168.693 316.479 155.988 322.338 153.027 327.134C152.651 327.838 152.461 328.625 152.474 329.422C152.445 330.555 154.421 332.708 155.551 332.577L191.937 329.056C195.055 328.693 196.132 323.227 194.521 320.542L179.417 283.95" fill="#DB340A"/>
<path d="M171.486 318.017L162.933 299.802C162.933 299.802 162.399 300.122 161.507 300.659L168.693 316.48C168.693 316.48 155.988 322.338 153.027 327.135C152.651 327.839 152.461 328.626 152.474 329.423C154.607 322.524 171.486 318.017 171.486 318.017Z" fill="#FFE633"/>
<path d="M163.32 323.72C163.35 323.842 163.354 323.968 163.335 324.091C163.315 324.215 163.271 324.333 163.206 324.439C163.14 324.546 163.054 324.639 162.952 324.712C162.851 324.785 162.736 324.838 162.614 324.867C162.367 324.925 162.107 324.884 161.891 324.752C161.675 324.619 161.521 324.407 161.462 324.162C161.433 324.04 161.428 323.914 161.448 323.791C161.468 323.668 161.512 323.549 161.577 323.443C161.643 323.336 161.729 323.244 161.831 323.171C161.933 323.098 162.048 323.045 162.17 323.016C162.292 322.987 162.418 322.982 162.542 323.002C162.666 323.022 162.785 323.065 162.892 323.131C162.999 323.196 163.091 323.282 163.165 323.383C163.238 323.484 163.291 323.599 163.32 323.72Z" fill="#9B2710"/>
<path d="M170.453 320.053C170.512 320.299 170.471 320.558 170.338 320.773C170.206 320.988 169.993 321.142 169.746 321.2C169.5 321.259 169.24 321.217 169.024 321.085C168.808 320.953 168.654 320.741 168.595 320.495C168.536 320.25 168.578 319.991 168.711 319.777C168.844 319.562 169.056 319.408 169.303 319.35C169.425 319.321 169.551 319.316 169.675 319.335C169.799 319.355 169.918 319.399 170.024 319.464C170.131 319.529 170.224 319.615 170.298 319.716C170.371 319.817 170.424 319.932 170.453 320.053Z" fill="#9B2710"/>
<path d="M192.222 314.959C192.222 314.959 183.092 319.16 186.861 326.948" stroke="#721C0E" stroke-width="0.5" stroke-linejoin="round"/>
<path d="M152.932 330.633L190.307 326.574C191.918 326.26 193.509 325.859 195.075 325.37" stroke="#721C0E" stroke-width="0.5" stroke-linejoin="round"/>
<path d="M167.603 317.001L165.733 321.956" stroke="#721C0E" stroke-width="0.5" stroke-linecap="round" stroke-linejoin="round"/>
<path d="M164.136 318.774L162.265 323.729" stroke="#721C0E" stroke-width="0.5" stroke-linecap="round" stroke-linejoin="round"/>
<path d="M164.879 318.394L169.414 320.301" stroke="#721C0E" stroke-width="0.5" stroke-linecap="round" stroke-linejoin="round"/>
<path d="M160.357 320.978L165.509 321.873" stroke="#721C0E" stroke-width="0.5" stroke-linecap="round" stroke-linejoin="round"/>
<path d="M157.324 323C157.326 325.423 157.899 327.812 158.996 329.974" stroke="#721C0E" stroke-width="0.5" stroke-linejoin="round"/>
<path d="M164.137 306.446C164.137 306.446 176.901 305.965 185.95 300.343" stroke="#721C0E" stroke-width="0.5" stroke-linejoin="round"/>
<path d="M122.411 138.296C122.411 138.296 120.663 198.522 128.106 229.067C133.9 252.845 154.017 290.265 160.021 300.85C160.496 301.687 161.227 302.35 162.108 302.742C162.989 303.135 163.974 303.235 164.917 303.029L183.987 298.918C184.498 298.809 184.98 298.595 185.404 298.291C185.828 297.987 186.184 297.598 186.45 297.151C186.716 296.703 186.886 296.205 186.95 295.689C187.014 295.173 186.969 294.649 186.82 294.15C182.567 279.967 166.605 231.704 164.895 221.888C163.48 213.769 163.526 188.858 164.895 183.695C165.953 179.704 171.528 156.293 161.09 140.591" fill="#031B2D"/>
<g style="mix-blend-mode:screen">
<path d="M130.791 231.443C123.348 200.899 126.947 140.704 126.947 140.704L162.477 142.917C162.047 142.128 161.592 141.349 161.089 140.592L122.409 138.296C122.409 138.296 120.661 198.522 128.104 229.067C133.898 252.845 154.015 290.265 160.019 300.85C160.571 301.818 161.465 302.546 162.528 302.892C156.298 291.859 136.522 254.967 130.791 231.443Z" fill="#FFE633"/>
</g>
<path d="M128.595 155.551C128.595 155.551 126.012 199.224 132.706 229.067C138.064 252.942 158.915 292.446 164.918 303.029" stroke="#174866" stroke-width="0.5" stroke-miterlimit="10"/>
<path d="M106.133 141.923C106.133 141.923 104.835 148.698 102.535 150.99C100.234 153.281 47.0803 166.825 43.4969 192.872C39.5695 221.42 61.0033 261.895 67.7837 273.826C68.3581 274.835 69.2323 275.643 70.2861 276.138C71.34 276.633 72.5218 276.79 73.6694 276.59L90.3908 273.7C91.1149 273.576 91.8046 273.301 92.4144 272.892C93.0243 272.484 93.5406 271.952 93.9295 271.332C94.3184 270.711 94.571 270.015 94.6709 269.29C94.7708 268.565 94.7156 267.828 94.5089 267.125C90.2153 252.564 81.2666 213.989 85.3661 206.528C90.4419 197.29 115.764 194.36 130.003 190.344C140.518 187.379 158.734 171.776 149.192 147.011" fill="#031B2D"/>
<path d="M125.545 162.095C125.545 162.095 133.651 168.769 142.547 171.113C142.547 171.113 137.849 183.438 129.3 183.438C119.986 183.438 116.16 177.051 115.329 174.142C114.34 170.685 125.545 162.095 125.545 162.095Z" fill="#062D38"/>
<path d="M164.152 186.804C164.208 186.749 164.264 186.69 164.317 186.631C166.679 183.967 167.604 176.435 167.042 171.073C163.178 171.961 159.208 172.307 155.248 172.101C155.248 172.101 151.808 183.729 154.056 185.669C156.202 187.522 161.772 189.121 164.152 186.804Z" fill="#062D38"/>
<g style="mix-blend-mode:screen">
<path d="M69.3087 274C62.5275 262.069 42.9138 221.594 46.844 193.046C50.4273 167.001 103.581 155.272 105.882 152.979C108.182 150.685 107.661 142.158 107.657 142.107L106.133 141.926C106.133 141.926 104.835 148.701 102.535 150.992C100.234 153.284 47.0803 166.828 43.4969 192.875C39.5695 221.423 61.0033 261.898 67.7837 273.828C68.2889 274.715 69.027 275.448 69.919 275.949C70.8109 276.45 71.823 276.699 72.8464 276.67C72.1056 276.488 71.4098 276.157 70.8016 275.697C70.1934 275.238 69.6854 274.661 69.3087 274Z" fill="#FFE633"/>
</g>
<path d="M77.1954 275.534C70.4128 263.603 49.9713 219.481 52.6073 192.984C54.893 169.989 108.151 156.448 111.264 154.404C114.378 152.361 115.293 143.416 115.293 143.416" stroke="#174866" stroke-width="0.5" stroke-miterlimit="10"/>
<path d="M123.772 191.913C123.772 191.913 145.285 187.785 150.665 169.932" stroke="#174866" stroke-width="0.5" stroke-miterlimit="10"/>
<path d="M97.6087 88.6915C101.647 106.776 103.444 125.285 102.962 143.805C102.836 144.713 103.019 145.636 103.481 146.428C104.079 147.218 105.147 147.461 106.123 147.632C123.585 150.736 141.495 150.313 158.79 146.389C159.618 146.274 160.399 145.938 161.051 145.417C161.875 144.626 162.006 143.378 162.075 142.24C162.772 130.695 162.097 118.903 158.285 107.978C154.474 97.0535 147.286 87.0161 137.169 81.3328" fill="#DB340A"/>
<g style="mix-blend-mode:screen">
<path d="M106.273 147.637C105.786 146.86 105.574 145.942 105.67 145.03C105.568 126.506 103.187 108.064 98.5795 90.1158L137.574 81.588C137.435 81.5075 137.309 81.4085 137.168 81.3293L97.6073 88.6915C101.645 106.776 103.443 125.285 102.96 143.805C102.835 144.713 103.018 145.636 103.48 146.428C104.078 147.218 105.145 147.461 106.121 147.632C106.177 147.644 106.235 147.648 106.292 147.658L106.273 147.637Z" fill="#FFE633"/>
</g>
<path d="M117.017 52.8554C117.017 52.8554 117.952 65.0272 118.826 70.8578C121.14 73.1621 137.583 70.8578 137.583 70.8578L129.465 50.4177" fill="#DD864B"/>
<path d="M120.718 33.9352C120.718 33.9352 105.112 49.4736 110.314 54.654C115.516 59.8344 133.486 59.8344 133.486 54.654C133.486 49.4736 132.539 33.9352 120.718 33.9352Z" fill="#DD864B"/>
<path d="M120.607 48.6026C121.01 49.0264 121.517 49.339 122.077 49.51C122.638 49.6809 123.233 49.7045 123.805 49.5782C124.501 49.391 125.132 49.0187 125.631 48.5014C126.13 47.984 126.478 47.3411 126.638 46.6416C127.159 44.4164 125.872 42.2807 124.554 40.5929C123.32 39.0104 122.193 37.7911 120.034 37.8833C119.155 37.9212 118.139 37.9521 117.558 37.2902C117.22 36.7668 117.01 36.171 116.947 35.5515C116.779 34.7768 116.352 34.0819 115.736 33.5802C115.426 33.3357 115.057 33.1767 114.665 33.1191C114.274 33.0615 113.874 33.1073 113.506 33.252C113.143 33.4327 112.837 33.7111 112.624 34.0557C112.411 34.4003 112.3 34.7974 112.301 35.202C112.312 35.6056 112.405 36.0028 112.575 36.3695C112.744 36.7361 112.987 37.0646 113.288 37.335C113.649 37.6728 114.117 38.0106 114.124 38.5047C114.124 38.8673 113.869 39.1851 113.838 39.5464C113.785 40.1429 114.378 40.6163 114.964 40.7525C115.55 40.8888 116.169 40.8083 116.76 40.9273C117.334 41.0828 117.861 41.3751 118.296 41.7788C118.731 42.1826 119.06 42.6857 119.256 43.2447C119.868 44.7625 119.449 46.5143 120.166 47.9551C120.694 49.0182 121.837 49.7337 122.446 50.783C122.892 51.6414 123.252 52.5419 123.519 53.4713C123.887 54.5556 124.318 55.6173 124.748 56.6783C124.933 57.2282 125.22 57.7383 125.596 58.1817C126.253 58.7543 127.078 59.102 127.949 59.1739C130.177 59.5365 132.686 59.403 134.367 57.9017C134.692 57.6357 134.94 57.2878 135.084 56.8943C135.194 56.3661 135.173 55.8188 135.021 55.3008C134.793 54.1444 134.647 52.9734 134.584 51.7965C134.508 50.3888 134.533 48.9005 133.83 47.6765" fill="#5B3719"/>
<path d="M139.845 42.8862C139.828 42.7596 139.811 42.6344 139.791 42.5071C139.152 38.3519 136.728 36.3249 133.486 34.1974C129.014 31.2622 121.907 31.8257 118.041 35.9176C117.819 36.1639 117.674 36.4693 117.624 36.7964C117.574 37.1235 117.621 37.458 117.759 37.7588C118.865 39.834 121.402 41.1358 122.043 43.4532C122.227 44.2307 122.212 45.042 121.997 45.8118C121.594 47.4962 120.451 49.1214 120.294 50.8553C120.156 52.3532 121.325 53.7596 122.379 54.6513C125.2 57.0375 129.634 58.19 133.151 57.1035C138.621 55.4123 140.525 48.2248 139.845 42.8862Z" fill="#031B2D"/>
<path d="M118.041 35.9162C119.441 37.3962 121.586 39.6558 122.935 41.2245C124.105 42.5862 124.954 44.3249 124.467 46.215C123.84 48.6507 121.72 50.8181 123.683 53.269C125.154 55.1047 127.576 56.0281 129.773 56.3411C132.21 56.6852 134.493 55.7811 136.682 54.7586" stroke="#41526D" stroke-width="0.5" stroke-linejoin="round"/>
<path d="M118.504 36.9434C122.564 32.8529 130.027 32.2894 134.723 35.2233C135.226 35.5364 135.701 35.8494 136.163 36.1659C135.313 35.4545 134.419 34.7968 133.486 34.1967C129.015 31.2615 121.907 31.825 118.041 35.9169C117.819 36.1632 117.675 36.4686 117.625 36.7957C117.575 37.1228 117.622 37.4573 117.76 37.7581C117.848 37.9212 117.955 38.0712 118.058 38.226C118.038 37.993 118.068 37.7586 118.145 37.5378C118.222 37.317 118.344 37.1145 118.504 36.9434Z" fill="#FFE633"/>
<path d="M120.869 51.8805C121.037 50.1466 122.235 48.5214 122.66 46.837C122.886 46.0689 122.902 45.255 122.709 44.4784C122.513 43.8595 122.199 43.2842 121.784 42.7844C121.889 42.9991 121.977 43.2224 122.045 43.4518C122.229 44.2294 122.213 45.0406 121.998 45.8104C121.595 47.4948 120.453 49.12 120.295 50.8539C120.263 51.7556 120.563 52.6379 121.14 53.3343C120.926 52.8807 120.833 52.3801 120.869 51.8805Z" fill="#FFE633"/>
<path d="M121.994 43.566C123.601 41.1497 125.858 39.2332 128.509 38.0365C131.159 36.8398 134.094 36.4114 136.978 36.8003C136.978 36.4067 135.396 34.7134 133.884 34.015C129.331 33.7398 123.328 37.4347 120.837 41.3938" fill="#091319"/>
<path d="M134.605 34.3983C134.373 34.2554 134.133 34.1267 133.885 34.013C129.332 33.7378 123.328 37.4326 120.836 41.3917L121.016 41.7296C123.872 37.9019 130.103 33.9979 134.605 34.3983Z" fill="#FFB133"/>
<path d="M134.678 29.5496L133.858 28.4418C133.858 28.4418 134.016 26.8001 136.157 26.3962C136.98 26.1961 137.846 26.2773 138.617 26.6267L139.872 28.4115" fill="#FFB133"/>
<path d="M134.188 35.6595L138.482 29.9913" stroke="#0E1C26" stroke-linecap="round" stroke-linejoin="round"/>
<path d="M136.415 29.0156L133.858 32.2612L140.534 32.5743L143.373 29.5468L136.415 29.0156Z" fill="#123A49"/>
<path d="M136.415 29.0156L135.447 27.6051L142.123 27.9175L143.367 29.5475L136.415 29.0156Z" fill="#FFE633"/>
<path d="M136.415 29.0156L135.447 27.6051L132.936 30.777L133.856 32.2605L136.415 29.0156Z" fill="#FFB133"/>
<path d="M201.221 144.928C202.614 151.42 206.119 163.849 207.312 163.784C208.505 163.719 207.215 157.184 208.088 156.801C208.961 156.418 214.652 168.3 215.519 167.921C216.387 167.542 211.343 156.344 211.343 156.344C211.343 156.344 218.018 167.23 218.489 166.527C218.959 165.825 215.835 158.676 214.54 154.86C215.475 156.91 219.745 163.277 220.146 162.773C220.546 162.268 216.11 152.358 216.11 152.358C216.11 152.358 220.108 159.297 220.711 159.032C221.315 158.768 218.037 151.889 216.987 149.766L209.744 135.111" fill="#DD864B"/>
<path d="M214.391 151.519C214.391 151.519 211.658 151.357 208.547 146.146" stroke="#964B18" stroke-width="0.5" stroke-miterlimit="10"/>
<path d="M207.087 154.162C207.087 154.162 208.242 152.27 207.484 148.832" stroke="#964B18" stroke-width="0.5" stroke-miterlimit="10"/>
<path d="M139.413 69.3774C139.413 69.3774 172.221 70.8966 192.484 94.6139C212.748 118.331 216.765 143.427 216.765 143.427L199.606 149.681C199.606 149.681 188.36 118.175 175.902 109.315C164.371 101.114 145.361 94.7639 145.361 94.7639" fill="#DB340A"/>
<path d="M198.263 146.146L215.91 139.491" stroke="#721C0E" stroke-width="0.5" stroke-linejoin="round"/>
<path d="M143.29 73.1958C143.29 73.1958 170.595 74.4701 190.77 92.7016C170.425 70.8213 139.412 69.3764 139.412 69.3764L145.362 94.7657C145.362 94.7657 146.595 95.1786 148.618 95.9244L143.29 73.1958Z" fill="#FFE633"/>
<path d="M180.715 113.852C191.114 125.901 199.607 149.68 199.607 149.68L201.722 148.909C198.207 140.14 189.862 121.207 180.715 113.852Z" fill="#FFE633"/>
<path d="M95.3851 47.6379C100.953 43.9871 111.312 36.223 110.817 35.14C110.322 34.057 104.498 37.1719 103.825 36.4996C103.151 35.8274 112.378 26.6914 111.708 26.024C111.038 25.3566 101.444 33.6862 101.444 33.6862C101.444 33.6862 110.155 23.9536 109.321 23.7782C108.487 23.6027 102.633 28.3138 99.5343 30.8995C101.112 29.2874 105.822 23.7912 105.208 23.6013C104.594 23.4114 96.9273 31.1266 96.9273 31.1266C96.9273 31.1266 101.971 24.8997 101.502 24.4332C101.033 23.9667 95.7886 29.5076 94.1835 31.2532L83.0976 43.2942" fill="#DD864B"/>
<path d="M86.1932 35.7992L100.159 46.237C100.159 46.237 78.6008 66.6379 84.9025 72.9102C91.2041 79.1826 115.34 72.9859 115.34 72.9859C115.34 72.9859 138.261 77.5216 135.074 92.6368C131.886 107.752 134.633 113.347 128.554 113.347C122.475 113.347 105.907 101.253 97.9479 101.253C89.9887 101.253 63.1197 98.8355 58.8675 82.9641C54.6761 67.3115 86.1932 35.7992 86.1932 35.7992Z" fill="#DB340A"/>
<path d="M100.081 101.491C100.081 101.491 105.008 102.316 106.15 103.454" stroke="#721C0E" stroke-width="0.5" stroke-linejoin="round"/>
<path d="M83.8611 38.2253L97.4222 48.9686" stroke="#721C0E" stroke-width="0.5" stroke-linejoin="round"/>
<g style="mix-blend-mode:screen">
<path d="M61.0738 83.9233C57.156 69.2945 84.4284 40.8165 88.0069 37.1561L86.1931 35.7999C86.1931 35.7999 54.6768 67.3129 58.8675 82.9628C60.6696 89.692 66.5421 93.9971 73.3087 96.7315C67.4984 93.9799 62.6775 89.9094 61.0738 83.9233Z" fill="#FFE633"/>
</g>
<path d="M100.551 104.497C106.384 115.088 116.344 124.74 126.117 131.889C125.52 133.968 124.657 136.95 125.076 139.073C119.617 135.304 114.126 131.504 109.47 126.788C104.814 122.071 100.386 115.756 100.549 104.495" fill="url(#paint18_linear)"/>
<path d="M138.906 98.1791C129.13 91.0295 119.514 73.5907 106.15 74.5726C113.254 77.2182 116.326 85.3366 123.729 91.613C128.787 95.9017 132.407 101.594 137.864 105.363C137.447 103.24 138.308 100.258 138.906 98.1791Z" fill="url(#paint19_linear)"/>
<g style="mix-blend-mode:screen">
<path d="M110.712 126.389C106.506 122.132 102.821 114.761 100.719 104.773C100.665 104.68 100.603 104.59 100.551 104.498C100.389 115.757 104.815 122.075 109.473 126.791C113.303 130.512 117.462 133.881 121.9 136.857C117.951 133.602 114.108 129.829 110.712 126.389Z" fill="#FFE633"/>
</g>
<path d="M123.776 81.7146C122.048 89.8963 122.091 98.3326 122.137 106.691C122.199 117.46 122.26 124.6 122.319 135.367C122.367 143.768 123.103 151.72 130.067 156.462C133.752 158.97 138.419 159.44 142.866 159.833C153.549 160.781 164.465 161.712 174.885 159.179C177.136 158.628 179.465 157.854 181.001 156.125C182.949 153.936 183.179 150.762 183.249 147.838C183.647 131.071 181.9 119.696 178.061 103.364C177.468 100.613 176.664 97.9103 175.658 95.2804C174.032 91.3098 171.637 87.6972 168.608 84.6492C165.579 81.6012 161.977 79.1776 158.007 77.5168C154.02 75.8967 149.752 75.075 145.446 75.0986C141.14 75.1222 136.881 75.9907 132.912 77.6544" fill="#196461"/>
<path d="M160.791 116.228C160.791 116.228 160.335 119.462 162.316 119.462C164.297 119.462 170.457 120.047 170.457 118.821V115.899" fill="#389E7E"/>
<path d="M129.223 112.769C128.948 114.581 129.22 116.434 130.004 118.092C130.292 118.698 131.052 119.347 131.532 118.873C131.695 118.672 131.777 118.418 131.762 118.16C131.788 117.221 131.587 116.289 131.175 115.445C130.762 114.6 130.151 113.867 129.393 113.307" fill="#389E7E"/>
<path d="M155.231 124.629C154.957 126.441 155.229 128.293 156.013 129.951C156.301 130.559 157.06 131.207 157.54 130.734C157.704 130.533 157.786 130.279 157.771 130.02C157.797 129.082 157.596 128.15 157.184 127.306C156.772 126.461 156.161 125.728 155.404 125.168" fill="#389E7E"/>
<path d="M123.186 125.062C123.186 125.062 132.94 129.37 143.373 127.103" stroke="#0E1C26" stroke-width="0.5" stroke-linejoin="round"/>
<path d="M148.203 160.214C147.069 159.973 146.057 159.338 145.348 158.424C144.64 157.509 144.28 156.374 144.334 155.22C144.334 150.912 141.985 109.169 144.334 106.832" stroke="#0E1C26" stroke-width="0.5" stroke-linejoin="round"/>
<path d="M136.68 85.3372C135.462 85.3372 128.789 87.2954 128.789 93.7363C128.789 100.177 128.554 113.346 128.554 113.346L129.962 114.346C129.962 114.346 130.595 95.365 130.722 93.4295C131.02 88.8608 138.107 86.8434 138.107 86.8434" fill="#0E1C26"/>
<path d="M148.23 141.639C153.444 142.029 158.68 142.029 163.894 141.639C163.894 141.639 166.206 159.749 162.898 160.532C158.099 161.667 151.151 161.762 149.304 160.088C147.106 158.097 148.23 141.639 148.23 141.639Z" fill="url(#paint20_linear)"/>
<path d="M169.404 140.701C169.404 140.701 177.093 141.152 183.252 139.167C183.252 139.167 184.565 153.725 182.05 156.226C178.112 160.148 172.543 159.343 170.751 157.819C168.959 156.294 169.404 140.701 169.404 140.701Z" fill="url(#paint21_linear)"/>
<path d="M148.23 141.639C153.414 142.517 158.71 142.517 163.894 141.639" stroke="#0E1C26" stroke-width="0.5" stroke-linecap="round" stroke-linejoin="round"/>
<path d="M169.404 140.701C169.404 140.701 178.378 140.828 183.252 139.167" stroke="#0E1C26" stroke-width="0.5" stroke-linecap="round" stroke-linejoin="round"/>
<path d="M129.963 84.248C131.126 84.248 136.591 87.4221 139.977 94.4519C142.907 100.534 144.772 113.221 147.066 115.506C149.36 117.792 179.079 118.186 180.15 113.349C181.221 108.512 176.881 78.5901 153.597 76.0209" fill="url(#paint22_linear)"/>
<path d="M134.221 84.248C135.287 84.248 140.288 87.1537 143.387 93.5864C146.066 99.1507 147.773 110.762 149.873 112.852C151.973 114.942 179.17 115.304 180.15 110.877" stroke="#389E7E" stroke-width="0.5" stroke-miterlimit="10" stroke-linecap="round"/>
<path d="M154.669 125.062C162.502 125.259 170.336 124.788 178.088 123.653" stroke="#0E1C26" stroke-width="0.5" stroke-linecap="round" stroke-linejoin="round"/>
<path d="M119.335 66.0441C123.366 66.0441 127.389 66.5141 131.418 66.4019C132.057 66.4364 132.693 66.2975 133.258 66.0001C134.379 65.2914 134.522 63.6731 134.54 62.297C136.118 63.23 138.256 63.4157 139.998 64.0123C142.036 64.7079 144.207 65.6719 145.203 67.6679C146.327 67.5052 147.474 67.6312 148.535 68.034C151.719 69.1396 154.41 71.3267 156.136 74.2114C158.105 77.4099 159.147 81.0887 159.146 84.8405C159.149 85.4403 159.051 86.0363 158.857 86.604C158.311 87.7223 157.382 88.6093 156.237 89.1044C151.513 91.6178 146.041 92.0004 140.867 91.2587C135.568 90.4977 130.416 88.9372 125.589 86.6308C120.523 84.1965 116.463 80.1094 111.447 77.6173C108.007 75.915 104.146 74.9538 100.386 75.5304C100.784 75.4691 102.784 71.9477 103.282 71.4247C104.56 70.0813 106.052 68.9581 107.698 68.1007C111.163 66.3063 115.524 66.0427 119.335 66.0441Z" fill="#DB340A"/>
<path d="M156.24 89.103C157.385 88.6079 158.315 87.7209 158.86 86.6026C159.055 86.0349 159.152 85.4389 159.15 84.8391C159.15 81.0873 158.108 77.4085 156.139 74.21C154.413 71.3253 151.722 69.1382 148.538 68.0326C147.477 67.6298 146.33 67.5038 145.207 67.6666C145.125 67.5143 145.035 67.3664 144.937 67.2234C145.209 67.9686 145.52 68.7 145.778 69.45C146.102 70.3995 146.305 71.5465 145.722 72.346C145.022 73.3093 143.85 73.0712 142.855 73.2013C141.783 73.3526 140.69 73.2688 139.654 72.9557C137.097 72.2339 134.786 70.813 132.3 69.8821C130.32 69.1418 128.277 68.5797 126.196 68.2025C121.262 67.3129 116.039 67.487 111.369 69.5257C116.118 68.012 121.274 68.9656 125.969 70.6513C130.664 72.3371 135.12 74.7384 139.88 76.2074C142.144 76.9065 144.766 77.1831 146.896 75.8792C147.141 75.6828 147.44 75.5643 147.754 75.5393C147.949 75.5799 148.133 75.6636 148.292 75.7842C148.451 75.9048 148.581 76.0593 148.672 76.2363C149.395 77.3028 149.771 78.9624 148.81 79.7997C148.451 80.0708 148.031 80.2512 147.587 80.3254C141.189 81.8511 134.457 81.108 128.55 78.2241C130.079 78.8076 131.092 80.3137 132.411 81.3142C135.571 83.7086 140.366 83.1354 142.992 86.1594C143.138 86.2948 143.25 86.4612 143.322 86.6461C143.394 86.831 143.423 87.0297 143.407 87.2273C143.302 87.7089 142.776 87.9291 142.319 88.0482C137.29 89.3472 131.996 87.9794 127.112 86.1711C124.989 85.3847 122.879 84.515 120.75 83.7285C122.286 84.8182 123.904 85.7874 125.591 86.6273C130.418 88.9337 135.57 90.4942 140.869 91.2552C146.045 91.999 151.516 91.6164 156.24 89.103Z" fill="#B72609"/>
<path d="M102.367 75.5324C102.367 75.5324 103.07 74.4081 107.259 76.0141C111.449 77.62 120.337 83.8359 123.186 85.3372" stroke="#721C0E" stroke-width="0.5" stroke-linejoin="round"/>
<path d="M119.335 66.0441C115.523 66.0441 111.163 66.3063 107.7 68.1028C106.054 68.9601 104.562 70.0833 103.284 71.4268C102.786 71.949 100.786 75.4712 100.388 75.5324C100.537 75.509 100.685 75.5042 100.836 75.4863C103.717 72.1321 107.17 69.225 111.286 68.0402C112.333 67.7586 113.394 67.5342 114.465 67.368C116.373 67.0031 118.298 66.7362 120.234 66.5684C122.187 66.4308 124.178 66.4941 126.119 66.2932C123.859 66.1872 121.598 66.0441 119.335 66.0441Z" fill="#FFE633"/>
<path d="M116.42 42.4431C116.26 42.6633 116.154 42.9171 116.109 43.1848" stroke="#091319" stroke-miterlimit="10"/>
<path d="M111.743 48.4092L115.356 50.664C115.356 50.664 112.299 53.5538 110.846 51.7257C109.891 50.5161 111.743 48.4092 111.743 48.4092Z" fill="white"/>
<path d="M113.729 43.1848C113.729 43.1848 109.057 44.6985 109.505 45.5875C109.954 46.4765 112.039 46.9733 112.039 46.9733" fill="#DD864B"/>
<path d="M200.253 27.305C198.28 22.8154 193.896 14.3406 193.043 14.5649C192.19 14.7892 193.742 19.3972 193.165 19.8024C192.589 20.2077 187.063 12.381 186.492 12.7842C185.921 13.1874 190.813 21.1785 190.813 21.1785C190.813 21.1785 184.787 13.6532 184.552 14.2347C184.316 14.8161 187.034 19.6455 188.537 22.2161C187.556 20.871 184.126 16.7722 183.908 17.1933C183.689 17.6144 188.375 24.1303 188.375 24.1303C188.375 24.1303 184.452 19.702 184.055 19.982C183.658 20.262 187.051 24.7537 188.125 26.1346L195.543 35.6676" fill="#DD864B"/>
<path d="M190.809 33.9571C190.809 33.9571 187.383 28.1259 188.133 27.3463C188.883 26.5667 197.931 22.1728 198.843 23.1189C199.755 24.0649 204.09 33.1576 204.09 33.1576" fill="#196461"/>
<path d="M191.544 33.1645C191.544 33.1645 188.73 28.3735 188.769 26.9032C188.542 27.0284 188.329 27.1769 188.132 27.3463C187.383 28.1258 190.808 33.9571 190.808 33.9571L204.086 33.1576L203.741 32.431L191.544 33.1645Z" fill="#FFE633"/>
<path d="M289.644 18.8729C288.878 14.428 287.94 6.075 288.709 5.81766C289.479 5.56033 289.981 9.49327 290.628 9.5146C291.274 9.53592 292.193 0.758383 292.839 0.776272C293.484 0.794162 293.784 9.40244 293.784 9.40244C293.784 9.40244 294.59 0.582928 295.065 0.911131C295.54 1.23933 295.907 6.31856 296.058 9.04946C296.127 7.52129 296.68 2.64503 297.061 2.86039C297.443 3.07575 297.154 10.4435 297.154 10.4435C297.154 10.4435 297.914 5.06218 298.365 5.07663C298.816 5.09108 298.487 10.2536 298.365 11.8554C298.079 15.5438 297.793 19.2318 297.51 22.9193" fill="#DD864B"/>
<path d="M287.495 19.6428C287.495 19.6428 287.333 13.4297 288.283 13.1324C289.233 12.8352 298.485 13.292 298.798 14.4576C299.111 15.6232 298.551 24.8672 298.551 24.8672" fill="#196461"/>
<path d="M288.437 19.3263C288.437 19.3263 288.305 14.2223 288.99 13.0553C288.751 13.055 288.512 13.0804 288.278 13.131C287.328 13.4276 287.491 19.6414 287.491 19.6414L298.546 24.8658L298.589 24.1255L288.437 19.3263Z" fill="#FFE633"/>
<path d="M341.821 261.542L377.902 269.513C377.902 269.513 381.524 286.577 385.645 290.679C386.264 291.22 387.01 291.596 387.814 291.773C388.948 292.073 391.586 290.614 391.724 289.454L396.269 254.923C396.648 251.724 392.821 249.543 381.833 248.336L342.033 237.445" fill="#031B2D"/>
<path d="M379.416 268.522C379.416 268.522 360.375 263.81 360.144 263.246C360.144 263.246 359.993 264.1 359.804 265.517L377.908 269.516C377.908 269.516 380.912 283.629 384.558 289.258C381.759 284.405 379.416 268.522 379.416 268.522Z" fill="#FFE633"/>
<path d="M385.029 289.945C384.897 289.782 384.776 289.611 384.666 289.433C384.787 289.612 384.906 289.784 385.029 289.945Z" fill="#FFE633"/>
<path d="M384.664 279.592C384.793 279.592 384.921 279.617 385.04 279.666C385.16 279.715 385.269 279.787 385.36 279.878C385.452 279.969 385.524 280.077 385.574 280.196C385.623 280.315 385.648 280.443 385.648 280.571C385.648 280.831 385.545 281.08 385.36 281.264C385.176 281.448 384.926 281.551 384.665 281.552C384.536 281.552 384.408 281.527 384.288 281.477C384.169 281.428 384.06 281.356 383.969 281.265C383.878 281.174 383.805 281.066 383.756 280.948C383.706 280.829 383.68 280.701 383.68 280.573C383.68 280.444 383.706 280.317 383.755 280.198C383.804 280.079 383.877 279.971 383.968 279.88C384.059 279.789 384.168 279.716 384.287 279.667C384.406 279.618 384.534 279.592 384.664 279.592Z" fill="#9B2710"/>
<path d="M382.676 271.598C382.805 271.598 382.933 271.624 383.053 271.673C383.172 271.722 383.281 271.794 383.372 271.885C383.464 271.976 383.536 272.084 383.585 272.203C383.635 272.322 383.66 272.45 383.66 272.579C383.66 272.707 383.635 272.835 383.586 272.954C383.536 273.073 383.464 273.181 383.373 273.272C383.281 273.363 383.173 273.435 383.054 273.485C382.934 273.534 382.806 273.559 382.677 273.559C382.416 273.559 382.166 273.456 381.981 273.272C381.796 273.088 381.693 272.839 381.692 272.579C381.693 272.319 381.796 272.07 381.981 271.886C382.165 271.703 382.415 271.599 382.676 271.598Z" fill="#9B2710"/>
<path d="M381.833 248.336C381.833 248.336 384.492 257.02 392.82 258.54" stroke="#721C0E" stroke-width="0.5" stroke-linejoin="round"/>
<path d="M389.142 291.609L393.38 255.96C393.449 254.28 393.425 252.597 393.307 250.919" stroke="#721C0E" stroke-width="0.5" stroke-linejoin="round"/>
<path d="M378.924 273.715L383.464 276.764" stroke="#721C0E" stroke-width="0.5" stroke-linecap="round" stroke-linejoin="round"/>
<path d="M379.881 277.598L384.422 280.648" stroke="#721C0E" stroke-width="0.5" stroke-linecap="round" stroke-linejoin="round"/>
<path d="M379.676 276.766L382.677 272.696" stroke="#721C0E" stroke-width="0.5" stroke-linecap="round" stroke-linejoin="round"/>
<path d="M381.197 281.896L383.328 276.968" stroke="#721C0E" stroke-width="0.5" stroke-linecap="round" stroke-linejoin="round"/>
<path d="M382.51 285.405C384.948 285.981 387.489 285.979 389.927 285.4" stroke="#721C0E" stroke-width="0.5" stroke-linejoin="round"/>
<path d="M255.914 165.912C255.914 165.912 267.379 228.869 298.801 248.37C322.802 263.265 350.896 268.191 362.829 270.543C364.386 270.85 366.001 270.538 367.33 269.675C368.658 268.811 369.595 267.464 369.939 265.922L374.044 247.71C374.387 246.204 374.139 244.625 373.35 243.296C372.562 241.966 371.292 240.988 369.802 240.561C357.158 236.935 326.352 227.331 316.107 217.129C308.629 209.683 302.259 194.572 297.666 180.919C293.846 159.19 291.62 151.518 291.62 151.518" fill="#2BA393"/>
<path d="M300.873 247.132C269.451 227.633 257.895 165.912 257.895 165.912H255.918C255.918 165.912 267.383 228.869 298.805 248.37C322.805 263.265 350.899 268.191 362.832 270.543C363.83 270.733 364.859 270.669 365.825 270.356C353.417 267.929 324.282 261.659 300.873 247.132Z" fill="#FFE633"/>
<path d="M268.064 191.913C268.064 191.913 284.099 228.394 295.304 239.554C306.51 250.714 355.004 270.777 369.94 265.921" stroke="#5DC9B7" stroke-width="0.5" stroke-miterlimit="10"/>
<path d="M244.039 295.592L250.664 331.8C250.664 331.8 236.275 341.746 234.081 347.119C233.82 347.898 233.761 348.729 233.91 349.536C234.073 350.693 236.446 352.549 237.573 352.224L272.129 342.523C275.239 341.628 276.264 339.633 271.79 327.19L266.421 286.435" fill="#031B2D"/>
<path d="M252.168 332.802C252.168 332.802 249.14 313.5 249.572 313.069C249.572 313.069 248.725 313.262 247.341 313.637L250.664 331.802C250.664 331.802 238.769 340.034 234.974 345.563C238.378 341.119 252.168 332.802 252.168 332.802Z" fill="#FFE633"/>
<path d="M234.521 346.269C234.62 346.086 234.731 345.908 234.853 345.738C234.734 345.917 234.621 346.096 234.521 346.269Z" fill="#FFE633"/>
<path d="M243.961 341.916C244.062 342.156 244.064 342.426 243.966 342.666C243.867 342.907 243.677 343.099 243.437 343.2C243.196 343.301 242.925 343.302 242.684 343.204C242.442 343.106 242.249 342.917 242.147 342.678C242.097 342.559 242.071 342.432 242.07 342.303C242.069 342.175 242.093 342.047 242.142 341.928C242.191 341.808 242.263 341.7 242.354 341.608C242.444 341.517 242.553 341.444 242.672 341.394C242.791 341.344 242.919 341.318 243.048 341.317C243.177 341.316 243.306 341.341 243.425 341.389C243.545 341.438 243.654 341.509 243.746 341.6C243.838 341.69 243.911 341.798 243.961 341.916Z" fill="#9B2710"/>
<path d="M250.586 336.991C250.688 337.23 250.689 337.5 250.591 337.741C250.493 337.981 250.302 338.173 250.062 338.274C249.943 338.325 249.815 338.351 249.686 338.352C249.556 338.353 249.428 338.328 249.308 338.28C249.189 338.231 249.08 338.16 248.988 338.069C248.896 337.979 248.823 337.871 248.772 337.752C248.722 337.634 248.696 337.506 248.695 337.378C248.694 337.249 248.719 337.121 248.767 337.002C248.816 336.883 248.888 336.774 248.979 336.683C249.07 336.591 249.178 336.518 249.297 336.468C249.537 336.368 249.808 336.366 250.05 336.464C250.292 336.562 250.485 336.751 250.586 336.991Z" fill="#9B2710"/>
<path d="M271.79 327.188C271.79 327.188 264.782 332.998 266.608 341.232" stroke="#721C0E" stroke-width="0.5" stroke-linejoin="round"/>
<path d="M234.576 350.691L270.047 340.273C271.629 339.685 273.177 339.009 274.684 338.25" stroke="#721C0E" stroke-width="0.5" stroke-linejoin="round"/>
<path d="M247.172 334.367L246.112 339.717" stroke="#721C0E" stroke-width="0.5" stroke-linecap="round" stroke-linejoin="round"/>
<path d="M243.949 336.753L242.889 342.104" stroke="#721C0E" stroke-width="0.5" stroke-linecap="round" stroke-linejoin="round"/>
<path d="M244.64 336.241L249.572 337.416" stroke="#721C0E" stroke-width="0.5" stroke-linecap="round" stroke-linejoin="round"/>
<path d="M240.482 339.629L245.87 339.672" stroke="#721C0E" stroke-width="0.5" stroke-linecap="round" stroke-linejoin="round"/>
<path d="M237.745 342.195C238.158 344.657 239.146 346.987 240.628 349" stroke="#721C0E" stroke-width="0.5" stroke-linejoin="round"/>
<path d="M237.058 157.664C237.058 157.664 230.809 208.399 232.401 232.002C234.577 264.241 241.481 301.617 244.005 317.843C244.253 319.436 245.083 320.881 246.335 321.903C247.587 322.924 249.174 323.45 250.791 323.379L271.443 322.496C271.895 322.478 272.338 322.368 272.745 322.171C273.151 321.973 273.512 321.694 273.804 321.351C274.097 321.007 274.314 320.607 274.443 320.176C274.572 319.744 274.609 319.29 274.552 318.844C272.723 304.48 265.909 250.281 265.787 238.68C265.654 226.131 271.388 184.88 271.388 184.88C271.388 184.88 280.36 172.468 273.184 153.279" fill="#2BA393"/>
<path d="M234.26 235.602C232.666 212.002 238.916 161.264 238.916 161.264L237.057 157.663C237.057 157.663 230.807 208.397 232.399 232.001C234.576 264.24 241.479 301.616 244.003 317.842C244.222 319.208 244.873 320.469 245.862 321.441C243.339 305.217 236.437 267.842 234.26 235.602Z" fill="#FFE633"/>
<path d="M243.625 158.243C243.625 158.243 237.375 208.978 238.967 232.581C241.141 264.82 245.87 315.94 251.084 321.722" stroke="#5DC9B7" stroke-width="0.5" stroke-miterlimit="10"/>
<g style="mix-blend-mode:multiply" opacity="0.25">
<g style="mix-blend-mode:multiply" opacity="0.25">
<g style="mix-blend-mode:multiply" opacity="0.25">
<path d="M225.825 176.055C227.959 174.485 230.357 173.306 232.906 172.574C234.16 172.215 235.66 172.015 236.637 172.875C237.315 173.472 237.541 174.413 237.918 175.234C238.951 177.476 241.266 178.912 243.658 179.553C246.049 180.195 248.564 180.163 251.043 180.242C253.295 180.31 256.072 180.871 256.683 183.032C257.178 184.787 255.854 186.536 254.411 187.653C252.967 188.769 251.239 189.685 250.379 191.293C249.667 192.627 249.677 194.206 249.474 195.7C248.919 199.624 246.824 203.17 243.649 205.559C239.551 208.611 234.235 209.344 229.346 210.841C224.458 212.339 219.327 215.281 218.128 220.236L225.825 176.055ZM268.634 217.505C268.05 216.827 267.287 216.325 266.431 216.059C265.574 215.793 264.66 215.772 263.793 215.999C262.933 216.252 262.162 216.742 261.568 217.411C260.974 218.08 260.582 218.902 260.436 219.783C260.257 220.983 260.552 222.231 260.27 223.411C259.732 225.664 257.378 226.899 255.346 228.021C253.314 229.143 251.124 230.911 251.339 233.214C251.539 235.37 253.774 236.8 254.395 238.876C255.16 241.421 253.264 244.036 251.079 245.564C248.894 247.091 246.289 248.083 244.481 250.04C242.674 251.997 242.096 255.517 244.24 257.102C245.216 257.737 246.383 258.013 247.542 257.885C252.434 257.61 256.529 253.834 261.394 253.242C263.708 252.96 266.038 253.422 268.356 253.677C270.675 253.932 273.132 253.952 275.202 252.889C277.272 251.826 278.776 249.359 278.052 247.152C277.423 245.231 275.352 243.987 274.916 242.015C274.559 240.39 275.469 238.691 276.774 237.658C278.149 236.702 279.709 236.044 281.354 235.726C284.838 234.848 288.431 234.23 291.677 232.689C294.923 231.147 297.861 228.474 298.647 224.982C299.011 223.587 298.856 222.108 298.21 220.818C296.942 218.528 293.95 217.769 291.335 217.986C288.721 218.204 286.204 219.156 283.586 219.326C283.434 219.356 283.277 219.352 283.126 219.314C282.975 219.276 282.835 219.205 282.715 219.106C282.487 218.851 282.553 218.46 282.586 218.119C282.87 215.268 279.645 213.074 276.775 213.28C273.906 213.486 271.439 215.294 269.153 217.033L268.634 217.505ZM301.08 156.432C298.183 161.828 295.286 167.224 292.389 172.619C291.587 173.944 290.995 175.385 290.636 176.891C290.199 179.267 290.924 181.792 290.201 184.099C289.559 186.145 287.894 187.671 286.545 189.339C285.196 191.007 284.082 193.217 284.808 195.233C287.227 196.296 290.285 193.994 292.561 195.33C295.681 197.157 293.276 203.097 296.371 204.966C298.241 206.095 300.6 204.749 302.296 203.374C309.042 197.904 314.752 191.277 319.156 183.806L301.08 156.432ZM320.862 210.571C319.896 212.95 319.642 215.556 320.129 218.075C320.616 220.594 321.824 222.92 323.608 224.771C325.467 226.637 327.945 228.005 329.108 230.369C330.345 232.881 329.775 235.85 329.805 238.649C329.844 241.933 330.746 245.151 332.423 247.98C333.054 249.038 334.05 250.156 335.273 249.98C336.586 249.79 337.188 248.279 337.535 247.003L339.005 241.613C339.121 240.962 339.415 240.355 339.854 239.858C340.488 239.414 341.221 239.131 341.989 239.033C346.804 237.769 349.175 232.133 349.006 227.179C348.836 222.225 346.879 217.508 346.19 212.598L320.862 210.571ZM349.422 285.688C354.538 284.28 359.338 281.914 363.564 278.716C365.181 277.494 366.788 276.025 367.295 274.065C368.313 270.1 364.485 266.565 363.758 262.538C362.929 257.948 366.218 253.144 364.684 248.738C364.222 247.414 362.933 246.101 361.595 246.536C360.932 246.831 360.386 247.336 360.041 247.972C358.614 250.086 357.417 252.345 356.471 254.711C355.771 256.465 354.586 258.663 352.724 258.319C350.781 257.958 350.044 254.938 348.068 254.958C347.513 255.001 346.981 255.198 346.532 255.525C343.961 257.152 342.222 259.768 340.156 261.997C336.72 265.696 332.326 268.38 327.458 269.755L349.422 285.688ZM229.203 317.437C232.401 318.147 235.679 316.808 238.564 315.264C243.308 312.722 247.688 309.556 251.585 305.851C253.637 303.9 255.661 301.546 255.787 298.723C255.938 295.268 253.27 291.456 255.303 288.655C255.856 287.891 256.685 287.369 257.275 286.634C259.57 283.761 257.314 279.227 258.998 275.961C259.638 274.714 260.848 273.658 260.864 272.259C260.882 270.396 258.604 269.208 256.777 269.599C254.95 269.99 253.546 271.404 252.255 272.751L247.453 277.77C247.066 278.23 246.592 278.609 246.058 278.884C245.339 279.124 244.572 279.182 243.826 279.051L231.153 277.881L229.203 317.437ZM276.502 283.533C274.283 283.939 272.279 285.11 270.842 286.842C269.405 288.574 268.627 290.755 268.645 293.001C268.714 294.832 269.267 296.892 268.137 298.338C267.506 298.982 266.773 299.519 265.968 299.928C264.861 300.661 263.94 301.639 263.277 302.786C262.614 303.932 262.227 305.216 262.146 306.537C262.032 308.693 263.012 311.111 265.056 311.835C267.588 312.73 270.109 310.729 272.361 309.267C275.33 307.346 278.74 306.207 282.272 305.96C283.569 305.869 285.087 305.795 285.823 304.727" fill="#2BA393"/>
</g>
</g>
</g>
<path d="M235.784 151.616C235.095 155.149 234.811 158.748 234.939 162.345C255.576 170.144 282.473 162.228 282.473 161.554C282.473 160.88 277.736 144.708 277.736 144.708" fill="#196461"/>
<path d="M248.853 57.4639C245.566 59.0547 242.862 61.6219 240.417 64.3287C238.735 66.1864 234.959 71.5966 238.977 73.1234C240.028 73.5231 241.121 73.8001 242.236 73.9491L243.026 79.0964C243.089 79.9927 243.376 80.859 243.862 81.6161C244.583 82.394 245.54 82.9151 246.588 83.0996C247.983 83.4687 249.411 83.7092 250.851 83.8179C251.415 83.9005 251.991 83.8409 252.526 83.6445C253.789 83.0727 253.973 81.3918 253.977 80.0088" fill="#DD864B"/>
<path d="M245.818 61.2978C243.666 61.748 241.541 62.3197 239.454 63.0104C239.201 63.0943 238.901 63.2409 238.901 63.5065C238.914 63.6422 238.972 63.7696 239.067 63.8677C239.439 64.3264 239.908 64.6964 240.442 64.9505C240.976 65.2046 241.561 65.3363 242.152 65.336" fill="#DD864B"/>
<path d="M247.017 61.95C246.67 62.1837 246.369 62.4787 246.129 62.8204" stroke="#091319" stroke-miterlimit="10"/>
<path d="M242.85 69.0419L239.429 67.4249C239.429 67.4249 237.728 70.1049 238.898 70.5728C240.667 71.2836 242.85 69.0419 242.85 69.0419Z" fill="white"/>
<path d="M269.577 80.2434C272.18 72.0686 276.618 61.0377 279.029 50.4155C282.829 33.6702 284.296 19.7605 286.209 17.8566C289.334 14.7452 299.511 18.2853 299.514 21.8549C299.204 32.9244 298.171 43.9621 296.422 54.8982C293.218 75.6169 287.566 99.3597 286.208 107.724C284.911 115.721 281.179 120.003 280.859 128.091C280.702 132.086 280.616 136.083 280.6 140.081C280.596 141.77 280.678 143.47 280.635 145.157C280.59 146.878 280.075 148.383 280.672 150.095C281.103 151.341 281.696 152.648 281.363 153.923C280.922 155.604 279.09 156.477 277.432 157.01C265.692 160.787 252.959 158.592 240.826 156.374C239.037 156.046 237.192 155.697 235.681 154.69C235.003 154.285 234.48 153.666 234.195 152.931C234.039 152.268 234.009 151.581 234.109 150.907C234.372 146.887 233.217 142.426 232.306 138.522C231.339 134.371 230.313 130.235 229.393 126.074C227.332 116.765 225.756 107.3 225.756 97.7421C207.993 65.0724 190.229 43.4544 190.229 33.62C190.229 30.4191 192.801 29.9891 195.878 29.0169C198.288 28.2552 201.009 27.1199 203.041 28.1224C207.671 30.4033 233.827 76.1687 239.189 78.3065C243.467 80.0122 248.073 79.47 250.824 79.7108C255.301 80.1044 258.681 81.6209 263.153 81.1778" fill="#053A36"/>
<path d="M270.497 78.7318C273.102 72.2448 278.248 59.5591 280.658 48.9389C284.261 33.0675 285.913 18.2571 288.655 16.7592C287.743 16.8599 286.887 17.2453 286.209 17.86C284.296 19.7653 282.829 33.6757 279.029 50.421C276.755 60.4418 272.695 70.795 270.055 78.802L270.497 78.7318Z" fill="#FFE633"/>
<path d="M236.936 155.048C236.781 154.384 236.752 153.698 236.85 153.024C237.114 149.004 235.959 144.542 235.049 140.639C234.082 136.489 231.236 128.723 230.314 124.563C228.253 115.255 226.677 105.79 226.677 96.2318C209.521 64.6748 192.011 41.8663 190.836 31.4856C190.414 32.1155 190.202 32.8618 190.23 33.6186C190.23 43.4516 207.994 65.0718 225.757 97.7407C225.757 107.299 227.332 116.763 229.394 126.072C230.314 130.234 231.339 134.371 232.307 138.52C233.217 142.425 234.372 146.887 234.109 150.906C234.01 151.58 234.039 152.266 234.196 152.93C234.48 153.665 235.004 154.284 235.682 154.688C236.131 154.978 236.607 155.221 237.105 155.414C237.04 155.296 236.983 155.174 236.936 155.048Z" fill="#FFE633"/>
<path d="M278.352 155.498C273.243 157.182 267.983 158.37 262.645 159.045C267.652 159.166 272.645 158.478 277.432 157.01C279.09 156.476 280.922 155.604 281.363 153.923V153.9C280.488 154.645 279.461 155.19 278.352 155.498Z" fill="#FFE633"/>
<path d="M225.758 100.263C226.587 104.181 228.475 107.788 230.462 111.272C236.851 122.466 244.452 132.928 253.131 142.471C251.981 144.465 251.038 146.57 250.318 148.754C239.402 139.665 222.059 114.846 225.758 100.263Z" fill="#601E15"/>
<path d="M225.402 102.265C223.601 117.021 239.887 140.067 250.316 148.753C250.375 148.576 250.458 148.409 250.52 148.23C241.09 139.594 226.805 118.471 225.402 102.265Z" fill="#FFE633"/>
<path d="M249.239 99.046C247.809 105.826 247.842 112.816 247.882 119.745C247.932 128.667 247.981 134.583 248.032 143.506C248.072 150.468 248.681 157.057 254.453 160.983C257.506 163.063 261.373 163.452 265.059 163.778C273.912 164.563 282.955 165.334 291.592 163.236C293.457 162.783 295.387 162.135 296.66 160.706C298.273 158.892 298.465 156.261 298.522 153.839C298.853 139.945 297.403 130.518 294.224 116.986C293.731 114.706 293.065 112.467 292.232 110.287C290.885 106.997 288.899 104.003 286.389 101.477C283.879 98.9516 280.894 96.9433 277.604 95.5671C274.3 94.2237 270.763 93.5421 267.194 93.5614C263.625 93.5806 260.095 94.3003 256.806 95.6793" fill="#601E15"/>
<path d="M279.91 127.648C279.91 127.648 279.533 130.332 281.173 130.332C282.814 130.332 287.919 130.818 287.919 129.801V127.38" fill="#3F1A11"/>
<path d="M253.749 124.783C253.523 126.284 253.748 127.819 254.397 129.193C254.637 129.696 255.266 130.233 255.663 129.841C255.799 129.674 255.866 129.463 255.853 129.249C255.875 128.471 255.708 127.699 255.366 126.999C255.025 126.299 254.519 125.691 253.891 125.227" fill="#3F1A11"/>
<path d="M275.305 134.61C275.076 136.112 275.302 137.647 275.952 139.021C276.191 139.524 276.819 140.06 277.218 139.668C277.353 139.501 277.421 139.29 277.408 139.076C277.43 138.299 277.263 137.527 276.922 136.827C276.58 136.127 276.074 135.519 275.447 135.055" fill="#3F1A11"/>
<path d="M248.748 134.969C248.748 134.969 256.832 138.539 265.476 136.661" stroke="#B2683F" stroke-width="0.5" stroke-linejoin="round"/>
<path d="M269.479 164.097C268.539 163.897 267.7 163.372 267.113 162.614C266.525 161.856 266.227 160.915 266.272 159.958C266.272 156.389 264.327 121.799 266.272 119.862" stroke="#B2683F" stroke-width="0.5" stroke-linejoin="round"/>
<path d="M259.929 102.049C258.92 102.049 253.39 103.672 253.39 109.011C253.39 114.35 253.195 125.262 253.195 125.262L254.363 126.087C254.363 126.087 254.888 110.359 254.992 108.754C255.239 104.969 261.112 103.297 261.112 103.297" fill="#38110D"/>
<path d="M269.501 148.705C273.821 149.028 278.16 149.028 282.48 148.705C282.48 148.705 284.395 163.713 281.651 164.363C277.675 165.302 271.918 165.381 270.388 163.995C268.569 162.344 269.501 148.705 269.501 148.705Z" fill="#7F3622"/>
<path d="M287.046 147.93C287.046 147.93 293.418 148.305 298.521 146.658C298.521 146.658 299.609 158.722 297.525 160.796C294.261 164.046 289.648 163.379 288.162 162.114C286.675 160.849 287.046 147.93 287.046 147.93Z" fill="#7F3622"/>
<path d="M269.501 148.705C273.796 149.433 278.184 149.433 282.48 148.705" stroke="#B2683F" stroke-width="0.5" stroke-linecap="round" stroke-linejoin="round"/>
<path d="M287.046 147.93C287.046 147.93 294.483 148.034 298.521 146.658" stroke="#B2683F" stroke-width="0.5" stroke-linecap="round" stroke-linejoin="round"/>
<path d="M254.363 101.148C255.33 101.148 259.856 103.778 262.662 109.603C265.088 114.643 266.634 125.153 268.535 127.049C270.436 128.944 295.063 129.27 295.95 125.26C296.837 121.249 293.242 96.4547 273.947 94.3259" fill="#7F3622"/>
<path d="M257.892 101.148C258.774 101.148 262.919 103.556 265.487 108.886C267.708 113.496 269.121 123.118 270.863 124.849C272.604 126.58 295.14 126.881 295.951 123.212" stroke="#B2683F" stroke-width="0.5" stroke-linejoin="round"/>
<path d="M274.837 134.969C281.327 135.132 287.82 134.74 294.243 133.8" stroke="#B2683F" stroke-width="0.5" stroke-linecap="round" stroke-linejoin="round"/>
<path d="M253.84 56.5777C252.786 56.4255 251.71 56.6082 250.766 57.0999C249.113 58.0852 248.63 60.265 248.699 62.1826C248.866 66.8139 248.307 70.3705 244.31 73.3078C242.949 74.3069 241.392 75.0417 240.146 76.1791C238.899 77.3164 237.979 79.0386 238.433 80.6604C239.406 84.1378 245.373 84.2025 246.203 87.7178C246.673 89.7132 245.143 91.553 244.303 93.4239C243.781 94.6112 243.522 95.8969 243.543 97.1931C243.565 98.4893 243.868 99.7655 244.43 100.935C245.009 102.096 245.832 103.119 246.844 103.935C247.855 104.751 249.032 105.341 250.292 105.663C253.579 106.477 257.459 105.501 260.126 107.581C261.969 109.022 262.605 111.497 264.009 113.368C267.415 117.909 273.752 121.533 279.474 121.561C284.435 121.585 291.29 119.1 293.068 114.073C293.756 111.788 294.009 109.395 293.816 107.018C293.669 102.748 292.783 97.5226 289.35 94.5165C286.926 92.3952 282.324 92.4626 281.249 88.9226C280.143 85.2952 284.41 80.8035 281.817 78.0265C280.417 76.5286 276.842 76.2121 274.913 75.7422C272.374 75.1229 269.91 75.1229 268.101 72.8812C267.392 71.9015 266.843 70.8169 266.474 69.6673C265.75 67.7605 265.026 65.8536 264.3 63.9468" fill="#031B2D"/>
<path d="M268.038 62.2748C268.021 62.1475 268.003 62.0209 267.985 61.8957C267.346 57.7391 264.921 55.7135 261.679 53.584C257.207 50.6487 250.1 51.2136 246.234 55.3041C246.012 55.5504 245.866 55.8561 245.817 56.1835C245.767 56.5109 245.814 56.8457 245.953 57.1467C247.058 59.2219 249.594 60.5237 250.237 62.8411C250.42 63.6187 250.404 64.4298 250.19 65.1997C249.785 66.8841 248.645 68.5072 248.486 70.2432C248.347 71.7411 249.519 73.1475 250.573 74.0385C253.394 76.4233 260.799 77.3563 264.317 76.2699C269.787 74.58 268.716 67.6135 268.038 62.2748Z" fill="#DB340A"/>
<path d="M246.236 55.3034C247.636 56.7834 249.781 59.0451 251.13 60.6139C252.3 61.9755 253.148 63.7101 252.663 65.6043C252.035 68.0401 249.915 70.2074 251.878 72.6569C253.35 74.4947 255.771 75.416 257.968 75.7291C260.406 76.0766 265.661 74.9509 267.849 73.9291" stroke="#F7882D" stroke-width="0.5" stroke-miterlimit="10"/>
<path d="M246.697 56.33C250.755 52.2409 258.219 51.676 262.915 54.6099C263.418 54.925 263.894 55.2381 264.355 55.5546C263.505 54.8425 262.612 54.1841 261.679 53.5833C257.207 50.648 250.1 51.2129 246.234 55.3034C246.012 55.5498 245.866 55.8555 245.817 56.1829C245.767 56.5103 245.814 56.8451 245.953 57.146C246.039 57.3077 246.148 57.4591 246.25 57.6125C246.231 57.3796 246.261 57.1453 246.338 56.9245C246.415 56.7037 246.537 56.5013 246.697 56.33Z" fill="#FFE633"/>
<path d="M249.062 71.2671C249.229 69.5332 250.427 67.908 250.853 66.2257C251.077 65.4573 251.093 64.6437 250.901 63.867C250.705 63.2481 250.391 62.6729 249.975 62.173C250.081 62.3877 250.169 62.611 250.237 62.8404C250.421 63.6181 250.405 64.4291 250.191 65.1991C249.785 66.8834 248.645 68.5066 248.486 70.2425C248.456 71.1431 248.757 72.0237 249.332 72.7195C249.119 72.2663 249.026 71.7662 249.062 71.2671Z" fill="#FFE633"/>
<path d="M250.185 62.9525C251.792 60.5365 254.051 58.6203 256.701 57.4236C259.352 56.227 262.287 55.7984 265.171 56.1869C265.171 55.7926 263.589 54.1 262.076 53.3996C257.523 53.1243 251.522 56.8192 249.029 60.7797" fill="#091319"/>
<path d="M262.798 53.7869C262.565 53.6436 262.324 53.5142 262.076 53.3996C257.523 53.1243 251.522 56.8192 249.029 60.7783L249.209 61.1175C252.063 57.2892 258.297 53.3851 262.798 53.7869Z" fill="#FFB133"/>
<path d="M262.869 48.9348L262.051 47.8291C262.051 47.8291 262.209 46.1873 264.35 45.7821C265.172 45.5822 266.038 45.6634 266.808 46.0126L268.064 47.8015" fill="#FFB133"/>
<path d="M262.382 55.0482C263.814 53.1592 265.245 51.2705 266.676 49.382" stroke="#0E1C26" stroke-linecap="round" stroke-linejoin="round"/>
<path d="M264.607 48.4043L262.051 51.6498L268.727 51.9622L271.565 48.9348L264.607 48.4043Z" fill="#123A49"/>
<path d="M264.607 48.4043L263.64 46.9944L270.316 47.3068L271.56 48.9368L264.607 48.4043Z" fill="#FFE633"/>
<path d="M264.607 48.4043L263.64 46.9944L261.129 50.1664L262.049 51.6498L264.607 48.4043Z" fill="#FFB133"/>
<path d="M342.255 420.245C340.929 418.214 339.165 416.503 337.092 415.236C336.054 414.608 334.901 414.195 333.7 414.019C332.499 413.843 331.274 413.909 330.099 414.213C327.621 414.958 325.781 416.947 324.157 418.92C322.533 420.892 320.909 422.996 318.594 424.13C321.696 425.824 325.544 425.15 328.826 423.935C332.108 422.72 335.27 421.001 338.776 420.688C339.299 420.596 339.835 420.607 340.354 420.721C340.873 420.836 341.364 421.051 341.799 421.354" fill="url(#paint23_linear)"/>
<path d="M347.279 438.884C345.911 436.706 344.061 434.868 341.87 433.512C340.77 432.844 339.544 432.41 338.268 432.237C336.992 432.063 335.694 432.154 334.455 432.503C331.81 433.352 330.059 435.16 328.593 437.532C326.761 440.49 325.357 443.05 322.077 443.467C325.348 445.263 328.158 445.672 332.541 442.908C335.711 440.913 339.803 435.388 347.28 438.884" fill="url(#paint24_linear)"/>
<path d="M340.441 407.885C339.074 405.708 337.224 403.873 335.033 402.518C333.933 401.85 332.706 401.416 331.43 401.242C330.154 401.069 328.855 401.16 327.616 401.51C324.973 402.357 323.221 404.166 321.755 406.538C319.923 409.497 318.519 412.054 315.239 412.473C318.509 414.27 321.319 414.675 325.702 411.913C328.871 409.918 332.965 404.393 340.441 407.889" fill="url(#paint25_linear)"/>
<path d="M340.52 398.641C340.727 395.873 339.887 391.481 337.707 389.635C336.603 388.728 335.258 388.158 333.836 387.993C332.413 387.828 330.973 388.076 329.689 388.706C329.128 389.052 328.539 389.352 327.93 389.604C327.236 389.791 326.517 389.867 325.799 389.828C324.61 389.825 323.42 389.823 322.229 389.822C323.478 391.022 325.097 391.767 326.824 391.935C328.523 392.205 330.258 392.226 331.927 392.65C335.404 393.534 339.051 396.022 340.173 399.378" fill="url(#paint26_linear)"/>
<path d="M347.122 438.165C347.29 436.158 347.612 434.168 348.084 432.21C348.827 428.744 349.726 425.011 352.491 422.763C355.796 420.075 359.567 421.133 363.448 420.304C365.612 419.921 367.581 418.819 369.034 417.178C368.886 419.83 367.976 422.385 366.413 424.537C364.849 426.69 362.697 428.35 360.214 429.32C358.291 430.045 356.221 430.341 354.271 430.997C352.506 431.556 350.943 432.615 349.774 434.046C348.605 435.477 347.882 437.217 347.692 439.051" fill="url(#paint27_linear)"/>
<path d="M342.298 420.512C341.709 417.08 342.989 411.17 344.591 408.438C346.18 405.728 348.348 402.776 351.532 401.667C354.717 400.558 360.48 401.209 364.522 403.365C356.375 405.888 346.627 412.47 342.664 420.121" fill="url(#paint28_linear)"/>
<path d="M340.447 404.459C340.478 401.179 342.54 395.742 344.379 393.321C346.203 390.921 348.57 388.345 351.532 387.597C354.495 386.849 359.431 387.989 362.623 390.387C355.092 392.009 345.513 397.299 340.827 404.124" fill="url(#paint29_linear)"/>
<path d="M345.363 376.093C339.427 391.602 339.083 408.998 343.138 425.237C347.194 441.475 355.507 456.582 366.141 469.725" stroke="#707070" stroke-miterlimit="10"/>
<path d="M341.574 390.539C341.512 389.055 341.249 387.581 341.131 386.099C340.774 382.035 341.666 377.958 343.688 374.409C345.753 370.857 349.049 368.178 352.958 366.876C351.362 369.391 351.129 372.494 350.409 375.381C349.501 379.005 347.786 382.379 345.39 385.252C343.997 386.925 342.722 388.692 341.572 390.539" fill="url(#paint30_linear)"/>
<path d="M379.267 361.596C378.484 358.089 378.496 354.453 379.3 350.951C380.212 347.479 382.345 344.221 385.474 342.51C388.839 340.669 392.867 340.798 396.653 341.134C400.438 341.471 404.36 341.94 407.97 340.677C406.551 345.709 401.838 349.066 397.137 351.266C392.436 353.467 387.325 355.016 383.35 358.388C382.157 359.401 381.023 360.704 380.921 362.269" fill="url(#paint31_linear)"/>
<path d="M393.872 386.251C393.093 382.528 392.826 378.635 393.777 374.967C394.729 371.299 397.015 367.871 400.406 366.098C404.053 364.19 407.794 364.223 411.841 365.135C416.89 366.277 421.068 367.452 424.92 364.426C423.434 369.741 420.952 373.127 413.459 374.881C408.04 376.149 397.916 374.732 393.871 386.246" fill="url(#paint32_linear)"/>
<path d="M364.173 343.269C361.01 340.617 357.213 335.165 357.515 330.949C357.697 328.842 358.486 326.832 359.788 325.161C361.09 323.49 362.849 322.228 364.853 321.529C365.804 321.295 366.735 320.987 367.636 320.606C368.555 320.068 369.382 319.389 370.085 318.592L373.786 314.819C373.944 317.351 372.739 319.79 371.262 321.86C369.786 323.931 368.005 325.782 366.724 327.984C364.053 332.569 362.912 338.998 365.316 343.668" fill="url(#paint33_linear)"/>
<path d="M393.272 385.338C390.963 383.432 388.513 381.705 385.941 380.169C381.482 377.352 376.579 374.425 371.315 375.009C365.027 375.704 362.231 380.779 357.321 384.012C354.611 385.796 351.392 386.959 348.196 386.656C351.171 389.255 354.833 390.947 358.746 391.533C362.66 392.118 366.66 391.572 370.27 389.959C373.037 388.684 375.502 386.811 378.224 385.435C383.137 382.951 389.349 383.246 393.623 386.862" fill="url(#paint34_linear)"/>
<path d="M379.505 361.921C376.465 357.733 368.855 352.944 364.282 351.798C359.749 350.663 354.36 349.881 349.873 352.089C345.385 354.296 340.094 361.048 338.189 367.55C349.334 361.577 366.461 358.131 378.711 361.898" fill="url(#paint35_linear)"/>
<path d="M364.355 343.295C360.831 339.924 352.909 336.451 348.423 335.875C343.977 335.307 338.78 335.129 334.905 337.476C331.031 339.823 327.12 346.214 326.357 352.07C335.902 345.809 351.478 341.204 363.6 343.35" fill="url(#paint36_linear)"/>
<path d="M329.078 319.021C351.738 328.869 370.6 346.572 383.658 367.71C396.717 388.849 404.154 413.308 407.088 438.167" stroke="#707070" stroke-width="1.5" stroke-miterlimit="10"/>
<path d="M348.38 330.028C346.865 328.421 345.572 326.615 344.116 324.952C340.164 320.354 334.902 317.061 329.027 315.508C323.105 313.996 316.832 314.691 311.389 317.463C315.72 318.391 319.262 321.369 323.082 323.607C327.879 326.413 333.248 328.108 338.792 328.565C342.018 328.834 345.221 329.323 348.38 330.028Z" fill="url(#paint37_linear)"/>
<defs>
<linearGradient id="paint0_linear" x1="399.1" y1="462.61" x2="362.477" y2="135.356" gradientUnits="userSpaceOnUse">
<stop offset="0.048" stop-color="#063347"/>
<stop offset="0.385" stop-color="#0B404E"/>
<stop offset="0.995" stop-color="#196461"/>
</linearGradient>
<linearGradient id="paint1_linear" x1="110.589" y1="385.474" x2="89.8159" y2="399.075" gradientUnits="userSpaceOnUse">
<stop stop-color="#083C4C"/>
<stop offset="0.423" stop-color="#0E5358"/>
<stop offset="1" stop-color="#19796E"/>
</linearGradient>
<linearGradient id="paint2_linear" x1="127.28" y1="397.057" x2="105.428" y2="412.591" gradientUnits="userSpaceOnUse">
<stop stop-color="#083C4C"/>
<stop offset="0.423" stop-color="#0E5358"/>
<stop offset="1" stop-color="#19796E"/>
</linearGradient>
<linearGradient id="paint3_linear" x1="86.7772" y1="381.732" x2="73.5343" y2="383.813" gradientUnits="userSpaceOnUse">
<stop stop-color="#083C4C"/>
<stop offset="0.423" stop-color="#0E5358"/>
<stop offset="1" stop-color="#19796E"/>
</linearGradient>
<linearGradient id="paint4_linear" x1="80.7801" y1="424.664" x2="111.964" y2="424.664" gradientUnits="userSpaceOnUse">
<stop stop-color="#083C4C"/>
<stop offset="0.423" stop-color="#0E5358"/>
<stop offset="1" stop-color="#19796E"/>
</linearGradient>
<linearGradient id="paint5_linear" x1="91.2103" y1="587.815" x2="116.36" y2="587.815" gradientUnits="userSpaceOnUse">
<stop stop-color="#083C4C"/>
<stop offset="0.423" stop-color="#0E5358"/>
<stop offset="1" stop-color="#19796E"/>
</linearGradient>
<linearGradient id="paint6_linear" x1="57.1827" y1="404.522" x2="81.4158" y2="404.522" gradientUnits="userSpaceOnUse">
<stop stop-color="#083C4C"/>
<stop offset="0.423" stop-color="#0E5358"/>
<stop offset="1" stop-color="#19796E"/>
</linearGradient>
<linearGradient id="paint7_linear" x1="38.8937" y1="390.866" x2="67.2738" y2="390.866" gradientUnits="userSpaceOnUse">
<stop stop-color="#083C4C"/>
<stop offset="0.423" stop-color="#0E5358"/>
<stop offset="1" stop-color="#19796E"/>
</linearGradient>
<linearGradient id="paint8_linear" x1="2250.4" y1="-495.482" x2="2245.54" y2="-475.953" gradientUnits="userSpaceOnUse">
<stop stop-color="#083C4C"/>
<stop offset="0.423" stop-color="#0E5358"/>
<stop offset="1" stop-color="#19796E"/>
</linearGradient>
<linearGradient id="paint9_linear" x1="2266.98" y1="-483.848" x2="2262.79" y2="-463.273" gradientUnits="userSpaceOnUse">
<stop stop-color="#083C4C"/>
<stop offset="0.423" stop-color="#0E5358"/>
<stop offset="1" stop-color="#19796E"/>
</linearGradient>
<linearGradient id="paint10_linear" x1="2227.33" y1="-500.047" x2="2215.66" y2="-490.094" gradientUnits="userSpaceOnUse">
<stop stop-color="#083C4C"/>
<stop offset="0.423" stop-color="#0E5358"/>
<stop offset="1" stop-color="#19796E"/>
</linearGradient>
<linearGradient id="paint11_linear" x1="2223.33" y1="-458.379" x2="2252.96" y2="-458.379" gradientUnits="userSpaceOnUse">
<stop stop-color="#083C4C"/>
<stop offset="0.423" stop-color="#0E5358"/>
<stop offset="1" stop-color="#19796E"/>
</linearGradient>
<linearGradient id="paint12_linear" x1="2090.76" y1="-580.147" x2="2114.74" y2="-580.147" gradientUnits="userSpaceOnUse">
<stop stop-color="#083C4C"/>
<stop offset="0.423" stop-color="#0E5358"/>
<stop offset="1" stop-color="#19796E"/>
</linearGradient>
<linearGradient id="paint13_linear" x1="2199.88" y1="-478.778" x2="2222.78" y2="-478.778" gradientUnits="userSpaceOnUse">
<stop stop-color="#083C4C"/>
<stop offset="0.423" stop-color="#0E5358"/>
<stop offset="1" stop-color="#19796E"/>
</linearGradient>
<linearGradient id="paint14_linear" x1="2181.98" y1="-491.928" x2="2209.3" y2="-491.928" gradientUnits="userSpaceOnUse">
<stop stop-color="#083C4C"/>
<stop offset="0.423" stop-color="#0E5358"/>
<stop offset="1" stop-color="#19796E"/>
</linearGradient>
<linearGradient id="paint15_linear" x1="157.875" y1="377.573" x2="109.703" y2="272.371" gradientUnits="userSpaceOnUse">
<stop offset="0.048" stop-color="#063347"/>
<stop offset="0.385" stop-color="#0B404E"/>
<stop offset="0.995" stop-color="#196461"/>
</linearGradient>
<linearGradient id="paint16_linear" x1="239.346" y1="392.715" x2="195.505" y2="303.585" gradientUnits="userSpaceOnUse">
<stop offset="0.048" stop-color="#063347"/>
<stop offset="0.385" stop-color="#0B404E"/>
<stop offset="0.995" stop-color="#196461"/>
</linearGradient>
<linearGradient id="paint17_linear" x1="380.804" y1="238.639" x2="310.083" y2="94.8454" gradientUnits="userSpaceOnUse">
<stop offset="0.048" stop-color="#063347"/>
<stop offset="0.385" stop-color="#0B404E"/>
<stop offset="0.995" stop-color="#196461"/>
</linearGradient>
<linearGradient id="paint18_linear" x1="100.544" y1="121.784" x2="126.117" y2="121.784" gradientUnits="userSpaceOnUse">
<stop offset="0.048" stop-color="#063347"/>
<stop offset="0.385" stop-color="#0B404E"/>
<stop offset="0.995" stop-color="#196461"/>
</linearGradient>
<linearGradient id="paint19_linear" x1="106.15" y1="89.948" x2="138.906" y2="89.948" gradientUnits="userSpaceOnUse">
<stop offset="0.048" stop-color="#063347"/>
<stop offset="0.385" stop-color="#0B404E"/>
<stop offset="0.995" stop-color="#196461"/>
</linearGradient>
<linearGradient id="paint20_linear" x1="164.713" y1="158.941" x2="145.54" y2="145.215" gradientUnits="userSpaceOnUse">
<stop offset="0.048" stop-color="#063347"/>
<stop offset="0.385" stop-color="#0B404E"/>
<stop offset="0.995" stop-color="#196461"/>
</linearGradient>
<linearGradient id="paint21_linear" x1="185.075" y1="57.4" x2="168.356" y2="48.8791" gradientUnits="userSpaceOnUse">
<stop offset="0.048" stop-color="#063347"/>
<stop offset="0.385" stop-color="#0B404E"/>
<stop offset="0.995" stop-color="#196461"/>
</linearGradient>
<linearGradient id="paint22_linear" x1="176.221" y1="117.593" x2="145.51" y2="71.7397" gradientUnits="userSpaceOnUse">
<stop offset="0.048" stop-color="#063347"/>
<stop offset="0.385" stop-color="#0B404E"/>
<stop offset="0.995" stop-color="#196461"/>
</linearGradient>
<linearGradient id="paint23_linear" x1="2250.24" y1="-774.912" x2="2245.85" y2="-755.55" gradientUnits="userSpaceOnUse">
<stop stop-color="#083C4C"/>
<stop offset="0.423" stop-color="#0E5358"/>
<stop offset="1" stop-color="#19796E"/>
</linearGradient>
<linearGradient id="paint24_linear" x1="2265.86" y1="-764.567" x2="2260.46" y2="-743.6" gradientUnits="userSpaceOnUse">
<stop stop-color="#083C4C"/>
<stop offset="0.423" stop-color="#0E5358"/>
<stop offset="1" stop-color="#19796E"/>
</linearGradient>
<linearGradient id="paint25_linear" x1="2240.64" y1="-783.903" x2="2235.24" y2="-762.926" gradientUnits="userSpaceOnUse">
<stop stop-color="#083C4C"/>
<stop offset="0.423" stop-color="#0E5358"/>
<stop offset="1" stop-color="#19796E"/>
</linearGradient>
<linearGradient id="paint26_linear" x1="2222.98" y1="-782.827" x2="2217.85" y2="-769.717" gradientUnits="userSpaceOnUse">
<stop stop-color="#083C4C"/>
<stop offset="0.423" stop-color="#0E5358"/>
<stop offset="1" stop-color="#19796E"/>
</linearGradient>
<linearGradient id="paint27_linear" x1="2222.67" y1="-740.805" x2="2251.64" y2="-740.805" gradientUnits="userSpaceOnUse">
<stop stop-color="#083C4C"/>
<stop offset="0.423" stop-color="#0E5358"/>
<stop offset="1" stop-color="#19796E"/>
</linearGradient>
<linearGradient id="paint28_linear" x1="2052.91" y1="-858.662" x2="2076.24" y2="-858.662" gradientUnits="userSpaceOnUse">
<stop stop-color="#083C4C"/>
<stop offset="0.423" stop-color="#0E5358"/>
<stop offset="1" stop-color="#19796E"/>
</linearGradient>
<linearGradient id="paint29_linear" x1="2200.77" y1="-759.477" x2="2223.28" y2="-759.477" gradientUnits="userSpaceOnUse">
<stop stop-color="#083C4C"/>
<stop offset="0.423" stop-color="#0E5358"/>
<stop offset="1" stop-color="#19796E"/>
</linearGradient>
<linearGradient id="paint30_linear" x1="2185.31" y1="-772.2" x2="2211.68" y2="-772.2" gradientUnits="userSpaceOnUse">
<stop stop-color="#083C4C"/>
<stop offset="0.423" stop-color="#0E5358"/>
<stop offset="1" stop-color="#19796E"/>
</linearGradient>
<linearGradient id="paint31_linear" x1="485.186" y1="734.233" x2="469.139" y2="763.618" gradientUnits="userSpaceOnUse">
<stop stop-color="#089070"/>
<stop offset="1" stop-color="#19796E"/>
</linearGradient>
<linearGradient id="paint32_linear" x1="508.142" y1="750.282" x2="493.067" y2="782.076" gradientUnits="userSpaceOnUse">
<stop stop-color="#089070"/>
<stop offset="1" stop-color="#19796E"/>
</linearGradient>
<linearGradient id="paint33_linear" x1="452.378" y1="729.108" x2="433.056" y2="735.256" gradientUnits="userSpaceOnUse">
<stop stop-color="#089070"/>
<stop offset="1" stop-color="#19796E"/>
</linearGradient>
<linearGradient id="paint34_linear" x1="444.139" y1="788.154" x2="487.068" y2="788.154" gradientUnits="userSpaceOnUse">
<stop stop-color="#089070"/>
<stop offset="1" stop-color="#19796E"/>
</linearGradient>
<linearGradient id="paint35_linear" x1="495.605" y1="894.445" x2="530.228" y2="894.445" gradientUnits="userSpaceOnUse">
<stop stop-color="#089070"/>
<stop offset="1" stop-color="#19796E"/>
</linearGradient>
<linearGradient id="paint36_linear" x1="411.625" y1="760.474" x2="444.988" y2="760.474" gradientUnits="userSpaceOnUse">
<stop stop-color="#089070"/>
<stop offset="1" stop-color="#19796E"/>
</linearGradient>
<linearGradient id="paint37_linear" x1="386.444" y1="741.922" x2="425.506" y2="741.922" gradientUnits="userSpaceOnUse">
<stop stop-color="#089070"/>
<stop offset="1" stop-color="#19796E"/>
</linearGradient>
</defs>
</svg>
