<svg width="541" height="148" viewBox="0 0 541 148" fill="none" xmlns="http://www.w3.org/2000/svg">
<path d="M15.6643 12.4325C15.6643 12.158 15.5777 11.921 15.4046 11.7214C15.2314 11.4969 14.9717 11.3846 14.6255 11.3846H4.7196C4.44752 11.3846 4.17545 11.4844 3.90338 11.684C3.65604 11.8836 3.53237 12.1331 3.53237 12.4325V62.6175C3.53237 63.2912 3.92811 63.628 4.7196 63.628H15.2191C16.06 63.628 16.7526 63.1914 17.2967 62.3181C18.7807 59.8482 20.339 57.241 21.9714 54.4966C23.6286 51.7273 25.2981 48.9454 26.98 46.1511C28.6619 43.3568 30.319 40.5875 31.9515 37.8431C33.6086 35.0987 35.1792 32.504 36.6633 30.059V62.6175C36.6633 63.2912 37.059 63.628 37.8505 63.628H47.7935C48.4613 63.628 48.7952 63.2912 48.7952 62.6175V12.4325C48.7952 12.158 48.7086 11.921 48.5355 11.7214C48.3871 11.4969 48.1397 11.3846 47.7935 11.3846H36.4778C35.6615 11.3846 34.9814 11.8337 34.4372 12.7318L15.6643 43.2321V12.4325ZM16.7773 39.3026C19.5722 34.7619 22.3424 30.2336 25.0879 25.7178C27.858 21.2021 30.653 16.6738 33.4726 12.1331C33.8189 11.5592 34.2517 11.1102 34.7711 10.7858C35.2905 10.4365 35.8594 10.2619 36.4778 10.2619H47.7935C48.5107 10.2619 49.0425 10.4864 49.3888 10.9355C49.7351 11.3596 49.9082 11.8586 49.9082 12.4325V62.6175C49.9082 64.0396 49.2033 64.7507 47.7935 64.7507H37.8505C36.317 64.7507 35.5502 64.0396 35.5502 62.6175V34.1382C32.6811 38.9533 29.7996 43.756 26.9058 48.5463C24.0119 53.3115 21.1305 58.1018 18.2613 62.9169C17.4946 64.1394 16.4805 64.7507 15.2191 64.7507H4.7196C3.1861 64.7507 2.41935 64.0396 2.41935 62.6175V12.4325C2.41935 12.1081 2.49356 11.8212 2.64196 11.5717C2.79036 11.2973 2.97586 11.0727 3.19847 10.8981C3.42107 10.6985 3.66841 10.5488 3.94048 10.449C4.21255 10.3243 4.47226 10.2619 4.7196 10.2619H14.6255C15.3428 10.2619 15.8745 10.4864 16.2208 10.9355C16.5918 11.3596 16.7773 11.8586 16.7773 12.4325V39.3026Z" fill="black"/>
<path d="M88.6598 49.9684C88.1899 50.2927 87.6457 50.6545 87.0274 51.0536C86.4338 51.4279 85.7783 51.7772 85.0611 52.1015C84.3685 52.4258 83.6141 52.7003 82.7979 52.9248C82.0064 53.1244 81.1655 53.2242 80.2751 53.2242C78.7663 53.2242 77.3441 52.9373 76.0085 52.3635C74.6976 51.7896 73.5475 50.9913 72.5581 49.9684C71.5935 48.9205 70.8268 47.673 70.2579 46.226C69.7138 44.754 69.4417 43.1323 69.4417 41.3609C69.4417 39.5895 69.7385 37.9678 70.3321 36.4958C70.9257 35.0239 71.7172 33.7639 72.7065 32.7161C73.6959 31.6433 74.8336 30.8199 76.1198 30.2461C77.4307 29.6473 78.8034 29.3479 80.238 29.3479C81.722 29.3479 83.1442 29.5725 84.5045 30.0216C85.8649 30.4457 87.3489 31.2191 88.9566 32.3418H88.9195C89.1174 32.4666 89.3153 32.5289 89.5131 32.5289C89.7357 32.5289 89.8718 32.4666 89.9212 32.3418H89.8841L94.9669 24.408C95.0411 24.3332 95.0782 24.2458 95.0782 24.1461C95.0782 24.0213 95.0411 23.909 94.9669 23.8092C94.8927 23.7094 94.8062 23.6096 94.7072 23.5099C93.7179 22.7364 92.7038 22.0379 91.665 21.4141C90.6262 20.7904 89.5131 20.254 88.3259 19.8049C87.1634 19.3558 85.9144 19.019 84.5788 18.7945C83.2431 18.545 81.7715 18.4202 80.1638 18.4202C77.0473 18.4202 74.1164 19.019 71.3709 20.2166C68.6255 21.4141 66.2263 23.0483 64.1734 25.1191C62.1452 27.1898 60.5375 29.6224 59.3503 32.4167C58.1878 35.186 57.6066 38.155 57.6066 41.3235C57.6066 44.6916 58.2002 47.7978 59.3874 50.642C60.5994 53.4612 62.2442 55.8938 64.3218 57.9396C66.3994 59.9854 68.8233 61.5822 71.5935 62.7298C74.3884 63.8775 77.3689 64.4513 80.5348 64.4513C81.8209 64.4513 83.1318 64.3016 84.4674 64.0022C85.8031 63.7028 87.0892 63.3036 88.3259 62.8047C89.5873 62.3057 90.7622 61.7318 91.8505 61.0832C92.9388 60.4345 93.8786 59.7609 94.6701 59.0623C94.9917 58.7629 95.1524 58.5259 95.1524 58.3512C95.1524 58.1018 95.0411 57.8148 94.8185 57.4905H94.8556C94.0147 56.2181 93.1614 54.9706 92.2957 53.7481C91.43 52.5007 90.5767 51.2408 89.7357 49.9684C89.6368 49.8187 89.4884 49.7438 89.2905 49.7438C89.0679 49.7438 88.8577 49.8187 88.6598 49.9684ZM87.992 49.0702C88.3383 48.7957 88.7711 48.6585 89.2905 48.6585C89.5626 48.6585 89.8223 48.7084 90.0696 48.8082C90.317 48.908 90.5272 49.0951 90.7004 49.3696H90.6633C91.5042 50.642 92.3452 51.9019 93.1861 53.1494C94.0518 54.3719 94.9051 55.6193 95.746 56.8917C96.0429 57.4157 96.216 57.9022 96.2655 58.3512C96.2655 58.8752 95.981 59.3866 95.4121 59.8856C94.5712 60.5842 93.5571 61.2703 92.3699 61.9439C91.2074 62.6175 89.946 63.2163 88.5856 63.7402C87.25 64.2642 85.8773 64.6883 84.4674 65.0127C83.0576 65.3619 81.7096 65.5491 80.4235 65.574C77.1834 65.4992 74.104 64.8505 71.1854 63.628C68.2916 62.3805 65.7564 60.684 63.5798 58.5384C61.4032 56.3927 59.6718 53.8604 58.3857 50.9414C57.1243 47.9974 56.4936 44.7914 56.4936 41.3235C56.4936 38.0053 57.1119 34.8866 58.3486 31.9676C59.5853 29.0485 61.2672 26.5037 63.3943 24.3332C65.5461 22.1626 68.0566 20.4536 70.9257 19.2061C73.8196 17.9337 76.8989 17.2975 80.1638 17.2975C81.8704 17.2975 83.4163 17.4223 84.8014 17.6718C86.2112 17.8963 87.5221 18.2331 88.734 18.6822C89.946 19.1313 91.0837 19.6926 92.1473 20.3663C93.2356 21.0149 94.3115 21.7634 95.375 22.6117C95.9192 23.0857 96.1913 23.5847 96.1913 24.1086C96.1913 24.433 96.1047 24.7324 95.9316 25.0068C95.0906 26.3041 94.2249 27.6264 93.3345 28.9737C92.4688 30.321 91.6279 31.6433 90.8117 32.9406C90.6633 33.1901 90.4654 33.3647 90.218 33.4645C89.9707 33.5643 89.7234 33.6142 89.476 33.6142C89.0556 33.6142 88.6598 33.4895 88.2888 33.24C86.8048 32.1921 85.4321 31.4686 84.1706 31.0694C82.9092 30.6702 81.5983 30.4706 80.238 30.4706C78.9518 30.4706 77.7275 30.7451 76.565 31.294C75.4025 31.8179 74.3761 32.5539 73.4857 33.502C72.5952 34.45 71.878 35.5977 71.3338 36.9449C70.8144 38.2672 70.5547 39.7392 70.5547 41.3609C70.5547 42.9577 70.802 44.4172 71.2967 45.7395C71.7914 47.0618 72.4716 48.197 73.3373 49.145C74.2277 50.0931 75.2665 50.8291 76.4537 51.353C77.6409 51.852 78.9147 52.1015 80.2751 52.1015C81.0666 52.1015 81.8333 52.0017 82.5753 51.8021C83.3173 51.6025 84.0099 51.353 84.653 51.0536C85.3208 50.7542 85.9267 50.4299 86.4709 50.0806C87.0398 49.7313 87.5468 49.3945 87.992 49.0702Z" fill="black"/>
<path d="M133.041 49.9684C132.572 50.2927 132.027 50.6545 131.409 51.0536C130.815 51.4279 130.16 51.7772 129.443 52.1015C128.75 52.4258 127.996 52.7003 127.18 52.9248C126.388 53.1244 125.547 53.2242 124.657 53.2242C123.148 53.2242 121.726 52.9373 120.39 52.3635C119.079 51.7896 117.929 50.9913 116.94 49.9684C115.975 48.9205 115.208 47.673 114.64 46.226C114.095 44.754 113.823 43.1323 113.823 41.3609C113.823 39.5895 114.12 37.9678 114.714 36.4958C115.307 35.0239 116.099 33.7639 117.088 32.7161C118.078 31.6433 119.215 30.8199 120.501 30.2461C121.812 29.6473 123.185 29.3479 124.62 29.3479C126.104 29.3479 127.526 29.5725 128.886 30.0216C130.247 30.4457 131.731 31.2191 133.338 32.3418H133.301C133.499 32.4666 133.697 32.5289 133.895 32.5289C134.117 32.5289 134.253 32.4666 134.303 32.3418H134.266L139.349 24.408C139.423 24.3332 139.46 24.2458 139.46 24.1461C139.46 24.0213 139.423 23.909 139.349 23.8092C139.274 23.7094 139.188 23.6096 139.089 23.5099C138.1 22.7364 137.085 22.0379 136.047 21.4141C135.008 20.7904 133.895 20.254 132.708 19.8049C131.545 19.3558 130.296 19.019 128.96 18.7945C127.625 18.545 126.153 18.4202 124.545 18.4202C121.429 18.4202 118.498 19.019 115.753 20.2166C113.007 21.4141 110.608 23.0483 108.555 25.1191C106.527 27.1898 104.919 29.6224 103.732 32.4167C102.569 35.186 101.988 38.155 101.988 41.3235C101.988 44.6916 102.582 47.7978 103.769 50.642C104.981 53.4612 106.626 55.8938 108.703 57.9396C110.781 59.9854 113.205 61.5822 115.975 62.7298C118.77 63.8775 121.751 64.4513 124.916 64.4513C126.203 64.4513 127.513 64.3016 128.849 64.0022C130.185 63.7028 131.471 63.3036 132.708 62.8047C133.969 62.3057 135.144 61.7318 136.232 61.0832C137.32 60.4345 138.26 59.7609 139.052 59.0623C139.373 58.7629 139.534 58.5259 139.534 58.3512C139.534 58.1018 139.423 57.8148 139.2 57.4905H139.237C138.396 56.2181 137.543 54.9706 136.677 53.7481C135.812 52.5007 134.958 51.2408 134.117 49.9684C134.018 49.8187 133.87 49.7438 133.672 49.7438C133.45 49.7438 133.239 49.8187 133.041 49.9684ZM132.374 49.0702C132.72 48.7957 133.153 48.6585 133.672 48.6585C133.944 48.6585 134.204 48.7084 134.451 48.8082C134.699 48.908 134.909 49.0951 135.082 49.3696H135.045C135.886 50.642 136.727 51.9019 137.568 53.1494C138.433 54.3719 139.287 55.6193 140.128 56.8917C140.425 57.4157 140.598 57.9022 140.647 58.3512C140.647 58.8752 140.363 59.3866 139.794 59.8856C138.953 60.5842 137.939 61.2703 136.752 61.9439C135.589 62.6175 134.328 63.2163 132.967 63.7402C131.632 64.2642 130.259 64.6883 128.849 65.0127C127.439 65.3619 126.091 65.5491 124.805 65.574C121.565 65.4992 118.486 64.8505 115.567 63.628C112.673 62.3805 110.138 60.684 107.961 58.5384C105.785 56.3927 104.054 53.8604 102.767 50.9414C101.506 47.9974 100.875 44.7914 100.875 41.3235C100.875 38.0053 101.494 34.8866 102.73 31.9676C103.967 29.0485 105.649 26.5037 107.776 24.3332C109.928 22.1626 112.438 20.4536 115.307 19.2061C118.201 17.9337 121.281 17.2975 124.545 17.2975C126.252 17.2975 127.798 17.4223 129.183 17.6718C130.593 17.8963 131.904 18.2331 133.116 18.6822C134.328 19.1313 135.465 19.6926 136.529 20.3663C137.617 21.0149 138.693 21.7634 139.757 22.6117C140.301 23.0857 140.573 23.5847 140.573 24.1086C140.573 24.433 140.486 24.7324 140.313 25.0068C139.472 26.3041 138.607 27.6264 137.716 28.9737C136.85 30.321 136.01 31.6433 135.193 32.9406C135.045 33.1901 134.847 33.3647 134.6 33.4645C134.352 33.5643 134.105 33.6142 133.858 33.6142C133.437 33.6142 133.041 33.4895 132.67 33.24C131.186 32.1921 129.814 31.4686 128.552 31.0694C127.291 30.6702 125.98 30.4706 124.62 30.4706C123.333 30.4706 122.109 30.7451 120.947 31.294C119.784 31.8179 118.758 32.5539 117.867 33.502C116.977 34.45 116.26 35.5977 115.715 36.9449C115.196 38.2672 114.936 39.7392 114.936 41.3609C114.936 42.9577 115.184 44.4172 115.678 45.7395C116.173 47.0618 116.853 48.197 117.719 49.145C118.609 50.0931 119.648 50.8291 120.835 51.353C122.023 51.852 123.296 52.1015 124.657 52.1015C125.448 52.1015 126.215 52.0017 126.957 51.8021C127.699 51.6025 128.392 51.353 129.035 51.0536C129.702 50.7542 130.308 50.4299 130.853 50.0806C131.421 49.7313 131.928 49.3945 132.374 49.0702Z" fill="black"/>
<path d="M179.612 62.6175C179.612 63.2912 179.946 63.628 180.614 63.628H191.113C191.781 63.628 192.115 63.2912 192.115 62.6175V19.9172C192.115 19.6178 192.016 19.3808 191.818 19.2061C191.62 19.0065 191.385 18.9067 191.113 18.9067H153.605C152.863 18.9067 152.491 19.281 152.491 20.0295V46.5254C152.491 47.4485 152.405 48.3467 152.232 49.2199C152.083 50.0681 151.799 50.8166 151.378 51.4653C150.983 52.114 150.439 52.6379 149.746 53.0371C149.078 53.4363 148.237 53.6359 147.223 53.6359C146.852 53.6359 146.568 53.6858 146.37 53.7856C146.197 53.8854 146.061 54.0101 145.962 54.1598C145.863 54.2845 145.801 54.4342 145.776 54.6089C145.776 54.7586 145.776 54.8958 145.776 55.0205V63.2912C145.776 63.391 145.789 63.5032 145.813 63.628C145.863 63.7527 145.974 63.865 146.147 63.9648C146.345 64.0646 146.63 64.1394 147.001 64.1893C147.372 64.2642 147.891 64.3016 148.559 64.3016C150.933 64.3016 153.122 63.865 155.126 62.9918C157.154 62.1186 158.898 60.9834 160.357 59.5862C161.841 58.1641 162.991 56.5549 163.807 54.7586C164.648 52.9622 165.069 51.141 165.069 49.2947V30.6578H179.612V62.6175ZM178.499 31.8179C176.347 31.8179 174.294 31.8179 172.34 31.8179C170.411 31.7929 168.358 31.7805 166.182 31.7805V49.2947C166.182 51.2657 165.736 53.2242 164.846 55.1702C163.98 57.0913 162.756 58.8128 161.173 60.3347C159.615 61.8566 157.76 63.0916 155.608 64.0396C153.456 64.9628 151.106 65.4243 148.559 65.4243C147.644 65.4243 146.926 65.3619 146.407 65.2372C145.888 65.1124 145.492 64.9378 145.22 64.7133C144.972 64.5137 144.812 64.2891 144.737 64.0396C144.688 63.7901 144.663 63.5407 144.663 63.2912V55.0205C144.663 54.7711 144.676 54.5091 144.7 54.2346C144.725 53.9353 144.812 53.6608 144.96 53.4113C145.133 53.1618 145.393 52.9498 145.739 52.7751C146.085 52.6005 146.58 52.5132 147.223 52.5132C148.015 52.5132 148.67 52.351 149.19 52.0267C149.734 51.6774 150.167 51.2283 150.488 50.6794C150.81 50.1305 151.032 49.4943 151.156 48.7708C151.304 48.0473 151.378 47.2988 151.378 46.5254V20.0295C151.378 18.5325 152.12 17.784 153.605 17.784H191.113C191.732 17.784 192.239 17.9836 192.634 18.3828C193.03 18.757 193.228 19.2685 193.228 19.9172V62.6175C193.228 64.0396 192.523 64.7507 191.113 64.7507H180.614C179.204 64.7507 178.499 64.0396 178.499 62.6175V31.8179Z" fill="black"/>
<path d="M237.447 49.9309L236.594 50.642C236.099 51.0412 235.568 51.4528 234.999 51.877C234.455 52.3011 233.799 52.6878 233.032 53.0371C232.266 53.3614 231.35 53.6359 230.287 53.8604C229.223 54.06 227.937 54.1598 226.428 54.1598C225.167 54.1598 223.955 53.9477 222.793 53.5236C221.655 53.0995 220.616 52.5007 219.676 51.7273C218.736 50.9289 217.908 49.9684 217.19 48.8456C216.473 47.7229 215.929 46.4755 215.558 45.1033H241.937C242.802 45.1033 243.532 45.0534 244.125 44.9536C244.744 44.8538 245.238 44.6667 245.609 44.3922C245.981 44.1178 246.253 43.7186 246.426 43.1947C246.599 42.6707 246.685 41.9846 246.685 41.1364C246.685 38.4419 246.364 36.0093 245.721 33.8388C245.102 31.6682 244.262 29.7471 243.198 28.0755C242.134 26.379 240.898 24.9319 239.488 23.7344C238.103 22.5368 236.644 21.5513 235.11 20.7779C233.601 19.9796 232.068 19.4057 230.51 19.0564C228.976 18.6822 227.517 18.4951 226.132 18.4951C222.817 18.4951 219.787 19.0939 217.042 20.2914C214.297 21.489 211.934 23.1356 209.956 25.2313C208.002 27.3021 206.481 29.7346 205.392 32.5289C204.304 35.2983 203.76 38.2672 203.76 41.4358C203.76 44.6043 204.378 47.5857 205.615 50.38C206.852 53.1494 208.521 55.5819 210.624 57.6776C212.726 59.7484 215.15 61.3826 217.895 62.5801C220.641 63.7777 223.51 64.3764 226.503 64.3764C227.814 64.3764 229.149 64.2767 230.51 64.0771C231.87 63.8775 233.255 63.5407 234.665 63.0666C236.075 62.5676 237.484 61.919 238.894 61.1206C240.329 60.2973 241.763 59.2744 243.198 58.0519C243.297 57.9521 243.396 57.8398 243.495 57.715C243.594 57.5653 243.643 57.4406 243.643 57.3408C243.643 57.1163 243.495 56.7919 243.198 56.3678L238.635 50.0058C238.461 49.8561 238.251 49.7812 238.004 49.7812C237.781 49.7812 237.596 49.8311 237.447 49.9309ZM236.78 49.0328C237.151 48.7334 237.583 48.5837 238.078 48.5837C238.35 48.6086 238.61 48.671 238.857 48.7708C239.105 48.8706 239.327 49.0577 239.525 49.3322L244.088 55.6942C244.534 56.3428 244.756 56.8917 244.756 57.3408C244.756 57.8897 244.484 58.4011 243.94 58.8752C242.406 60.2224 240.898 61.3327 239.414 62.2059C237.93 63.0541 236.458 63.7153 234.999 64.1893C233.564 64.6883 232.142 65.0251 230.732 65.1998C229.322 65.3994 227.912 65.4992 226.503 65.4992C223.361 65.4992 220.344 64.8754 217.45 63.628C214.581 62.3556 212.046 60.6341 209.844 58.4635C207.643 56.268 205.887 53.7107 204.576 50.7917C203.29 47.8726 202.647 44.754 202.647 41.4358C202.647 38.1175 203.216 34.9989 204.354 32.0799C205.491 29.1608 207.087 26.616 209.14 24.4454C211.217 22.2499 213.691 20.5284 216.56 19.281C219.454 18.0086 222.644 17.3724 226.132 17.3724C227.591 17.3724 229.137 17.572 230.769 17.9712C232.402 18.3454 234.009 18.9442 235.592 19.7675C237.2 20.5659 238.734 21.6012 240.193 22.8736C241.677 24.1461 242.975 25.6679 244.088 27.4393C245.226 29.1858 246.129 31.1942 246.797 33.4645C247.465 35.7349 247.798 38.2922 247.798 41.1364C247.798 42.2341 247.687 43.1198 247.465 43.7935C247.267 44.4421 246.933 44.9536 246.463 45.3278C245.993 45.6771 245.387 45.9141 244.645 46.0389C243.903 46.1636 243 46.226 241.937 46.226H217.005C217.376 47.224 217.883 48.1471 218.526 48.9953C219.169 49.8187 219.899 50.5297 220.715 51.1285C221.531 51.7273 222.422 52.2013 223.386 52.5506C224.376 52.8749 225.39 53.0371 226.428 53.0371C228.061 53.0371 229.421 52.8999 230.51 52.6254C231.598 52.351 232.513 52.0142 233.255 51.615C234.022 51.2158 234.665 50.7792 235.184 50.3052C235.728 49.8311 236.26 49.407 236.78 49.0328ZM225.724 28.2252C227.9 28.2252 229.842 28.8988 231.548 30.2461C233.28 31.5684 234.702 33.477 235.815 35.9719H216.114C216.609 34.8991 217.178 33.8887 217.821 32.9406C218.489 31.9925 219.219 31.1692 220.01 30.4706C220.826 29.7721 221.717 29.2232 222.681 28.824C223.646 28.4248 224.66 28.2252 225.724 28.2252ZM225.724 29.3479C223.893 29.3479 222.323 29.8594 221.012 30.8823C219.701 31.8803 218.65 33.2026 217.858 34.8492H234.071C233.181 33.0778 232.018 31.7181 230.584 30.77C229.149 29.822 227.529 29.3479 225.724 29.3479Z" fill="black"/>
<path d="M267.253 71.1501C267.599 71.1501 267.81 71.0628 267.884 70.8882C267.983 70.7135 268.032 70.5513 268.032 70.4017V63.5531H295.524V71.4121C295.524 71.6117 295.759 71.7115 296.229 71.7115H307.619C307.94 71.7115 308.101 71.5992 308.101 71.3747V54.534C308.101 53.9353 307.965 53.5485 307.693 53.3739C307.445 53.1743 307.074 53.0745 306.58 53.0745H302.647V19.6926C302.647 19.493 302.573 19.3184 302.425 19.1687C302.276 18.9941 302.016 18.9067 301.645 18.9067H268.96C268.638 18.9067 268.391 19.0065 268.218 19.2061C268.045 19.4057 267.958 19.6178 267.958 19.8423C267.958 22.7863 267.871 25.7927 267.698 28.8614C267.55 31.9052 267.191 34.8866 266.622 37.8057C266.078 40.6998 265.274 43.4566 264.211 46.0763C263.172 48.671 261.762 51.0037 259.981 53.0745H256.754C255.838 53.0745 255.381 53.561 255.381 54.534V70.4017C255.381 70.9006 255.69 71.1501 256.308 71.1501H267.253ZM256.308 72.2728C255.641 72.2728 255.134 72.1231 254.787 71.8238C254.441 71.5493 254.268 71.0753 254.268 70.4017V54.534C254.268 53.7357 254.49 53.1119 254.936 52.6629C255.381 52.1888 255.987 51.9518 256.754 51.9518H259.462C261.094 49.9808 262.393 47.7479 263.358 45.253C264.322 42.7331 265.064 40.076 265.584 37.2817C266.103 34.4625 266.437 31.5684 266.585 28.5995C266.758 25.6305 266.845 22.7115 266.845 19.8423C266.845 19.3434 267.03 18.8818 267.401 18.4577C267.797 18.0086 268.317 17.784 268.96 17.784H301.645C302.437 17.784 302.981 17.9836 303.278 18.3828C303.599 18.782 303.76 19.2186 303.76 19.6926V51.9518H306.58C307.445 51.9518 308.101 52.1264 308.546 52.4757C308.991 52.8001 309.214 53.4862 309.214 54.534V71.3747C309.214 71.8238 309.066 72.173 308.769 72.4225C308.497 72.697 308.113 72.8342 307.619 72.8342H296.229C295.586 72.8342 295.116 72.697 294.819 72.4225C294.547 72.173 294.411 71.8362 294.411 71.4121V64.6758H269.145V70.4017C269.145 70.6012 269.12 70.8008 269.071 71.0004C269.046 71.225 268.972 71.4246 268.848 71.5992C268.725 71.7988 268.539 71.961 268.292 72.0857C268.045 72.2105 267.698 72.2728 267.253 72.2728H256.308ZM290.07 53.0371H272.299C273.511 50.7917 274.55 48.7084 275.415 46.7873C276.281 44.8663 276.986 42.9826 277.53 41.1364C278.099 39.2652 278.507 37.3566 278.754 35.4106C279.026 33.4396 279.162 31.2815 279.162 28.9363H290.07V53.0371ZM288.957 30.059H280.275C280.251 32.2046 280.115 34.1756 279.867 35.9719C279.645 37.7683 279.286 39.5147 278.791 41.2112C278.297 42.9078 277.666 44.6168 276.899 46.3383C276.133 48.0597 275.217 49.9185 274.154 51.9144H288.957V30.059Z" fill="black"/>
<path d="M361.438 20.5534C361.561 20.229 361.623 19.9421 361.623 19.6926C361.623 19.493 361.549 19.3184 361.401 19.1687C361.252 18.9941 360.968 18.9067 360.547 18.9067H349.899C349.083 18.9067 348.551 19.3059 348.304 20.1043L337.805 50.8665L327.12 20.2166C326.996 19.8174 326.786 19.5055 326.489 19.281C326.192 19.0315 325.871 18.9067 325.524 18.9067H315.581C315.26 18.9067 314.963 18.9941 314.691 19.1687C314.444 19.3184 314.32 19.5679 314.32 19.9172C314.32 20.1916 314.394 20.516 314.543 20.8902L331.72 64.0022L325.821 79.2711C325.648 79.6952 325.561 80.0819 325.561 80.4312C325.561 80.8553 325.735 81.1547 326.081 81.3294C326.452 81.5289 326.909 81.6287 327.454 81.6287H336.283C337.026 81.6287 337.582 81.242 337.953 80.4686L361.438 20.5534ZM338.992 80.9177C338.522 82.1402 337.619 82.7514 336.283 82.7514H327.454C326.588 82.7514 325.871 82.5768 325.302 82.2275C324.733 81.8782 324.448 81.2795 324.448 80.4312C324.448 80.2066 324.473 79.9572 324.523 79.6827C324.572 79.4083 324.659 79.1214 324.782 78.822V78.8594L330.533 64.0396L313.504 21.3393C313.405 21.0898 313.318 20.8403 313.244 20.5908C313.195 20.3413 313.182 20.1168 313.207 19.9172C313.207 19.1438 313.442 18.5949 313.912 18.2705C314.406 17.9462 314.963 17.784 315.581 17.784H325.524C326.167 17.784 326.712 17.9712 327.157 18.3454C327.602 18.6947 327.936 19.1937 328.158 19.8423L337.805 47.461C339.388 42.8204 340.971 38.2049 342.554 33.6142C344.136 28.9986 345.707 24.3706 347.265 19.7301V19.7675C347.661 18.4452 348.539 17.784 349.899 17.784H360.547C361.413 17.784 361.994 17.9836 362.291 18.3828C362.588 18.757 362.736 19.1937 362.736 19.6926C362.736 20.1168 362.65 20.5534 362.477 21.0025L338.992 80.9177Z" fill="black"/>
<path d="M381.518 19.9172C381.518 19.5679 381.407 19.3184 381.185 19.1687C380.987 18.9941 380.764 18.9067 380.517 18.9067H369.943C369.671 18.9067 369.436 19.0065 369.238 19.2061C369.04 19.3808 368.941 19.6178 368.941 19.9172V62.6175C368.941 63.2912 369.251 63.628 369.869 63.628H380.517C380.838 63.628 381.061 63.5656 381.185 63.4409C381.333 63.3161 381.506 63.1165 381.704 62.8421H381.667L397.88 38.1051V62.6175C397.88 63.2912 398.214 63.628 398.882 63.628H409.455C410.123 63.628 410.457 63.2912 410.457 62.6175V19.9546C410.457 19.6053 410.346 19.3558 410.123 19.2061C409.925 19.0315 409.703 18.9442 409.455 18.9442H398.807C398.634 18.9442 398.473 19.019 398.325 19.1687C398.177 19.3184 398.004 19.5429 397.806 19.8423H397.843L381.518 44.8413V19.9172ZM382.631 41.0241L396.878 19.2436C397.2 18.7446 397.496 18.3828 397.769 18.1583C398.041 17.9337 398.387 17.8215 398.807 17.8215H409.455C409.95 17.8215 410.42 17.9961 410.865 18.3454C411.335 18.6947 411.57 19.2311 411.57 19.9546V62.6175C411.57 63.2662 411.384 63.7901 411.013 64.1893C410.667 64.5636 410.148 64.7507 409.455 64.7507H398.882C397.472 64.7507 396.767 64.0396 396.767 62.6175V41.8849C394.417 45.4775 392.055 49.0702 389.681 52.6629C387.306 56.2555 384.944 59.8482 382.594 63.4409C382.298 63.8899 382.013 64.2143 381.741 64.4139C381.494 64.6384 381.086 64.7507 380.517 64.7507H369.869C369.152 64.7507 368.632 64.576 368.311 64.2268C367.989 63.8775 367.828 63.3411 367.828 62.6175V19.9172C367.828 19.2685 368.026 18.757 368.422 18.3828C368.818 17.9836 369.325 17.784 369.943 17.784H380.517C381.011 17.784 381.481 17.9587 381.927 18.308C382.397 18.6573 382.631 19.1937 382.631 19.9172V41.0241ZM390.163 10.3742C391.499 10.3742 392.735 10.1496 393.873 9.70053C395.011 9.2265 396 8.60277 396.841 7.82935C397.707 7.03098 398.375 6.12034 398.844 5.09743C399.339 4.07451 399.586 3.01417 399.586 1.91641C399.586 1.69187 399.512 1.50475 399.364 1.35506C399.24 1.20537 399.042 1.13052 398.77 1.13052H393.576C393.453 1.13052 393.391 1.21784 393.391 1.39249C393.391 2.04116 393.119 2.65241 392.574 3.22624C392.03 3.80007 391.276 4.08699 390.311 4.08699C389.198 4.08699 388.382 3.80007 387.863 3.22624C387.368 2.65241 387.121 2.04116 387.121 1.39249C387.121 1.21784 387.034 1.13052 386.861 1.13052H381.667C381.469 1.13052 381.296 1.20537 381.147 1.35506C380.999 1.50475 380.925 1.69187 380.925 1.91641C380.925 2.98923 381.16 4.03709 381.63 5.06C382.1 6.05796 382.743 6.95613 383.559 7.7545C384.4 8.52792 385.377 9.16412 386.49 9.66311C387.628 10.1371 388.852 10.3742 390.163 10.3742ZM390.163 11.4969C388.679 11.4969 387.306 11.2224 386.045 10.6735C384.783 10.1247 383.683 9.41362 382.743 8.5404C381.828 7.64223 381.11 6.61932 380.591 5.47166C380.072 4.324 379.812 3.13892 379.812 1.91641C379.812 1.34259 379.985 0.881027 380.331 0.53174C380.678 0.182455 381.123 0.0078125 381.667 0.0078125H386.861C387.43 0.0078125 387.776 0.16998 387.9 0.494316C388.048 0.793707 388.159 1.13052 388.234 1.50476C388.333 1.85404 388.506 2.19086 388.753 2.5152C389 2.81458 389.52 2.96428 390.311 2.96428C391.029 2.96428 391.499 2.81458 391.721 2.5152C391.968 2.19086 392.142 1.85404 392.241 1.50476C392.339 1.13052 392.451 0.793707 392.574 0.494316C392.723 0.16998 393.057 0.0078125 393.576 0.0078125H398.77C399.364 0.0078125 399.834 0.182455 400.18 0.53174C400.526 0.881027 400.699 1.34259 400.699 1.91641C400.699 3.16387 400.427 4.3739 399.883 5.54651C399.339 6.69417 398.585 7.71708 397.62 8.61524C396.68 9.48846 395.567 10.187 394.281 10.711C393.02 11.2349 391.647 11.4969 390.163 11.4969Z" fill="black"/>
<path d="M30.5788 144.051C30.5788 144.725 30.9127 145.062 31.5805 145.062H40.9669C41.6347 145.062 41.9687 144.725 41.9687 144.051V101.351C41.9687 101.052 41.8697 100.815 41.6718 100.64C41.474 100.44 41.239 100.341 40.9669 100.341H31.5805C31.3331 100.341 31.0982 100.428 30.8756 100.603C30.6777 100.752 30.5788 101.002 30.5788 101.351V116.732H12.5107V101.351C12.5107 101.052 12.4118 100.815 12.2139 100.64C12.0161 100.44 11.7811 100.341 11.509 100.341H2.12255C1.87521 100.341 1.64024 100.428 1.41764 100.603C1.21977 100.752 1.12083 101.002 1.12083 101.351V144.051C1.12083 144.725 1.45474 145.062 2.12255 145.062H11.509C12.1768 145.062 12.5107 144.725 12.5107 144.051V127.098H30.5788V144.051ZM29.4657 128.221H13.6238V144.051C13.6238 145.473 12.9188 146.184 11.509 146.184H2.12255C0.712725 146.184 0.0078125 145.473 0.0078125 144.051V101.351C0.0078125 100.627 0.230416 100.091 0.675624 99.7418C1.14557 99.3925 1.62787 99.2178 2.12255 99.2178H11.509C12.1274 99.2178 12.6344 99.4174 13.0301 99.8166C13.4259 100.191 13.6238 100.702 13.6238 101.351V115.609H29.4657V101.351C29.4657 100.627 29.6883 100.091 30.1335 99.7418C30.6035 99.3925 31.0858 99.2178 31.5805 99.2178H40.9669C41.5853 99.2178 42.0923 99.4174 42.4881 99.8166C42.8838 100.191 43.0817 100.702 43.0817 101.351V144.051C43.0817 145.473 42.3768 146.184 40.9669 146.184H31.5805C30.1706 146.184 29.4657 145.473 29.4657 144.051V128.221Z" fill="black"/>
<path d="M49.3981 122.832C49.3981 126.001 49.9917 128.982 51.1789 131.776C52.3908 134.571 54.0233 137.016 56.0762 139.111C58.1538 141.182 60.5777 142.816 63.3479 144.014C66.1428 145.211 69.1232 145.81 72.2892 145.81C75.4551 145.81 78.4231 145.211 81.1933 144.014C83.9882 142.791 86.4245 141.145 88.5021 139.074C90.5798 137.003 92.2122 134.571 93.3994 131.776C94.6114 128.982 95.2174 126.001 95.2174 122.832C95.2174 119.664 94.6114 116.695 93.3994 113.925C92.2122 111.131 90.5798 108.698 88.5021 106.628C86.4245 104.532 83.9882 102.885 81.1933 101.688C78.4231 100.49 75.4551 99.8915 72.2892 99.8915C69.1232 99.8915 66.1428 100.49 63.3479 101.688C60.5777 102.885 58.1538 104.52 56.0762 106.59C54.0233 108.661 52.3908 111.094 51.1789 113.888C49.9917 116.657 49.3981 119.639 49.3981 122.832ZM48.285 122.832C48.285 119.489 48.9157 116.358 50.1772 113.439C51.4386 110.52 53.1452 107.975 55.2971 105.804C57.4736 103.634 60.0212 101.925 62.9398 100.677C65.8584 99.405 68.9748 98.7688 72.2892 98.7688C75.6035 98.7688 78.7199 99.405 81.6385 100.677C84.5571 101.925 87.1047 103.646 89.2813 105.842C91.4578 108.012 93.1768 110.557 94.4382 113.476C95.6997 116.395 96.3304 119.514 96.3304 122.832C96.3304 126.15 95.6997 129.281 94.4382 132.225C93.1768 135.145 91.4578 137.702 89.2813 139.897C87.1047 142.068 84.5571 143.789 81.6385 145.062C78.7199 146.309 75.6035 146.933 72.2892 146.933C68.9748 146.933 65.8584 146.309 62.9398 145.062C60.0212 143.789 57.4736 142.068 55.2971 139.897C53.1452 137.702 51.4386 135.145 50.1772 132.225C48.9157 129.281 48.285 126.15 48.285 122.832ZM61.3445 122.832C61.3445 121.21 61.6042 119.689 62.1236 118.266C62.6677 116.819 63.4221 115.547 64.3867 114.449C65.3513 113.352 66.5015 112.491 67.8371 111.867C69.1974 111.218 70.6938 110.894 72.3263 110.894C73.9587 110.894 75.4427 111.218 76.7783 111.867C78.114 112.516 79.2517 113.389 80.1916 114.487C81.1562 115.584 81.8982 116.857 82.4176 118.304C82.937 119.726 83.1968 121.235 83.1968 122.832C83.1968 124.429 82.937 125.951 82.4176 127.398C81.8982 128.845 81.1562 130.117 80.1916 131.215C79.227 132.313 78.0769 133.186 76.7412 133.835C75.4056 134.483 73.9216 134.808 72.2892 134.808C70.6567 134.808 69.1603 134.483 67.8 133.835C66.4644 133.186 65.3142 132.325 64.3496 131.252C63.4097 130.155 62.6677 128.882 62.1236 127.435C61.6042 125.963 61.3445 124.429 61.3445 122.832ZM62.4575 122.832C62.4575 124.279 62.6925 125.664 63.1624 126.986C63.6323 128.308 64.3002 129.469 65.1658 130.467C66.0315 131.44 67.0703 132.225 68.2823 132.824C69.4942 133.398 70.8299 133.685 72.2892 133.685C73.7485 133.685 75.0841 133.398 76.296 132.824C77.508 132.225 78.5344 131.427 79.3754 130.429C80.2411 129.431 80.9089 128.284 81.3788 126.986C81.8488 125.664 82.0837 124.279 82.0837 122.832C82.0837 121.385 81.8488 120.013 81.3788 118.716C80.9089 117.393 80.2411 116.246 79.3754 115.273C78.5344 114.275 77.508 113.489 76.296 112.915C75.1088 112.316 73.7856 112.017 72.3263 112.017C70.867 112.017 69.5313 112.304 68.3194 112.877C67.1074 113.451 66.0686 114.237 65.2029 115.235C64.3373 116.233 63.6571 117.381 63.1624 118.678C62.6925 119.975 62.4575 121.36 62.4575 122.832Z" fill="black"/>
<path d="M145.442 113.252C145.442 111.58 145.071 109.958 144.329 108.387C143.612 106.815 142.623 105.418 141.361 104.195C140.125 102.973 138.665 102 136.983 101.276C135.326 100.528 133.57 100.153 131.715 100.153H105.04C104.05 100.153 103.556 100.677 103.556 101.725V143.677C103.556 144.6 104.05 145.062 105.04 145.062H132.235C134.386 145.062 136.353 144.675 138.134 143.902C139.939 143.103 141.485 142.055 142.771 140.758C144.057 139.436 145.059 137.939 145.776 136.267C146.494 134.571 146.852 132.837 146.852 131.065C146.852 129.02 146.395 127.186 145.479 125.564C144.564 123.917 143.328 122.358 141.769 120.886C142.215 120.362 142.66 119.826 143.105 119.277C143.55 118.703 143.946 118.104 144.292 117.481C144.639 116.832 144.911 116.158 145.108 115.46C145.331 114.761 145.442 114.025 145.442 113.252ZM146.555 113.252C146.555 114.873 146.234 116.295 145.591 117.518C144.948 118.716 144.193 119.813 143.328 120.811C144.762 122.233 145.888 123.768 146.704 125.414C147.545 127.061 147.965 128.945 147.965 131.065C147.965 132.986 147.582 134.858 146.815 136.679C146.048 138.5 144.972 140.122 143.587 141.544C142.202 142.941 140.545 144.064 138.616 144.912C136.687 145.76 134.56 146.184 132.235 146.184H105.04C103.308 146.184 102.443 145.349 102.443 143.677V101.725C102.443 99.9289 103.308 99.0307 105.04 99.0307H131.715C133.719 99.0307 135.623 99.4299 137.429 100.228C139.234 101.027 140.805 102.087 142.14 103.409C143.501 104.732 144.577 106.253 145.368 107.975C146.16 109.672 146.555 111.43 146.555 113.252ZM129.86 125.265C130.528 125.265 131.196 125.402 131.864 125.676C132.556 125.926 133.174 126.288 133.719 126.762C134.287 127.236 134.745 127.809 135.091 128.483C135.438 129.157 135.611 129.893 135.611 130.691C135.611 131.44 135.499 132.176 135.277 132.899C135.054 133.598 134.708 134.221 134.238 134.77C133.768 135.319 133.162 135.756 132.42 136.08C131.703 136.404 130.849 136.567 129.86 136.567H115.873V125.265H129.86ZM116.986 126.387V135.444H129.86C130.676 135.444 131.369 135.319 131.938 135.07C132.531 134.795 133.014 134.433 133.385 133.984C133.756 133.535 134.028 133.024 134.201 132.45C134.399 131.876 134.498 131.29 134.498 130.691C134.498 130.042 134.349 129.456 134.052 128.932C133.78 128.408 133.422 127.959 132.977 127.585C132.531 127.211 132.024 126.924 131.455 126.724C130.911 126.5 130.38 126.387 129.86 126.387H116.986ZM133.83 112.99C133.83 114.611 133.31 115.784 132.272 116.508C131.258 117.231 129.984 117.593 128.45 117.593H115.873V108.649H128.487C129.229 108.649 129.922 108.736 130.565 108.911C131.233 109.06 131.802 109.31 132.272 109.659C132.766 110.008 133.15 110.457 133.422 111.006C133.694 111.555 133.83 112.216 133.83 112.99ZM132.717 112.99C132.717 111.842 132.309 111.019 131.493 110.52C130.701 110.021 129.699 109.771 128.487 109.771H116.986V116.47H128.45C129.662 116.47 130.676 116.196 131.493 115.647C132.309 115.098 132.717 114.212 132.717 112.99Z" fill="black"/>
<path d="M158.149 145.062H179.853C181.708 145.062 183.44 144.65 185.047 143.827C186.655 142.979 188.052 141.868 189.24 140.496C190.427 139.124 191.354 137.565 192.022 135.818C192.69 134.047 193.024 132.238 193.024 130.392C193.024 128.595 192.69 126.836 192.022 125.115C191.379 123.369 190.476 121.822 189.314 120.474C188.151 119.102 186.779 118.005 185.196 117.181C183.613 116.358 181.906 115.946 180.076 115.946H168.092V101.351C168.092 101.052 167.993 100.815 167.796 100.64C167.598 100.44 167.363 100.341 167.091 100.341H156.554C156.307 100.341 156.072 100.428 155.849 100.603C155.651 100.752 155.552 101.002 155.552 101.351V142.592C155.552 143.465 155.75 144.101 156.146 144.5C156.566 144.875 157.234 145.062 158.149 145.062ZM158.149 146.184C156.814 146.184 155.861 145.91 155.293 145.361C154.724 144.787 154.439 143.864 154.439 142.592V101.351C154.439 100.627 154.662 100.091 155.107 99.7418C155.577 99.3925 156.059 99.2178 156.554 99.2178H167.091C167.709 99.2178 168.216 99.4174 168.612 99.8166C169.007 100.191 169.205 100.702 169.205 101.351V114.823H180.076C182.079 114.823 183.934 115.273 185.641 116.171C187.372 117.044 188.856 118.217 190.093 119.689C191.354 121.136 192.344 122.795 193.061 124.666C193.778 126.537 194.137 128.446 194.137 130.392C194.137 132.388 193.766 134.334 193.024 136.23C192.307 138.126 191.305 139.81 190.019 141.282C188.757 142.754 187.249 143.939 185.493 144.837C183.761 145.735 181.881 146.184 179.853 146.184H158.149ZM180.855 130.354C180.855 131.252 180.682 132.038 180.336 132.712C180.014 133.386 179.569 133.947 179 134.396C178.456 134.845 177.813 135.194 177.071 135.444C176.329 135.668 175.537 135.781 174.696 135.781H168.092V125.227H174.696C175.512 125.227 176.292 125.34 177.034 125.564C177.8 125.764 178.456 126.088 179 126.537C179.569 126.961 180.014 127.498 180.336 128.146C180.682 128.77 180.855 129.506 180.855 130.354ZM179.742 130.354C179.742 129.681 179.606 129.094 179.334 128.595C179.062 128.096 178.691 127.685 178.221 127.36C177.776 127.011 177.244 126.762 176.625 126.612C176.007 126.437 175.364 126.35 174.696 126.35H169.205V134.658H174.696C175.389 134.658 176.032 134.571 176.625 134.396C177.244 134.196 177.776 133.922 178.221 133.573C178.691 133.198 179.062 132.749 179.334 132.225C179.606 131.677 179.742 131.053 179.742 130.354ZM199.108 144.051C199.108 144.725 199.442 145.062 200.11 145.062H210.684C211.352 145.062 211.686 144.725 211.686 144.051V101.351C211.686 101.052 211.587 100.815 211.389 100.64C211.191 100.44 210.956 100.341 210.684 100.341H200.11C199.863 100.341 199.628 100.428 199.405 100.603C199.207 100.752 199.108 101.002 199.108 101.351V144.051ZM197.995 101.351C197.995 100.627 198.218 100.091 198.663 99.7418C199.133 99.3925 199.616 99.2178 200.11 99.2178H210.684C211.302 99.2178 211.809 99.4174 212.205 99.8166C212.601 100.191 212.799 100.702 212.799 101.351V144.051C212.799 145.473 212.094 146.184 210.684 146.184H200.11C198.7 146.184 197.995 145.473 197.995 144.051V101.351Z" fill="black"/>
<path d="M252.89 131.365L252.037 132.076C251.543 132.475 251.011 132.887 250.442 133.311C249.898 133.735 249.242 134.122 248.476 134.471C247.709 134.795 246.794 135.07 245.73 135.294C244.667 135.494 243.38 135.594 241.872 135.594C240.61 135.594 239.398 135.382 238.236 134.957C237.098 134.533 236.059 133.934 235.119 133.161C234.179 132.363 233.351 131.402 232.634 130.279C231.916 129.157 231.372 127.909 231.001 126.537H257.38C258.245 126.537 258.975 126.487 259.569 126.387C260.187 126.288 260.682 126.1 261.053 125.826C261.424 125.552 261.696 125.152 261.869 124.628C262.042 124.105 262.129 123.418 262.129 122.57C262.129 119.876 261.807 117.443 261.164 115.273C260.546 113.102 259.705 111.181 258.641 109.509C257.578 107.813 256.341 106.366 254.931 105.168C253.546 103.971 252.087 102.985 250.553 102.212C249.044 101.413 247.511 100.84 245.953 100.49C244.419 100.116 242.96 99.9289 241.575 99.9289C238.26 99.9289 235.231 100.528 232.485 101.725C229.74 102.923 227.378 104.569 225.399 106.665C223.445 108.736 221.924 111.168 220.836 113.963C219.747 116.732 219.203 119.701 219.203 122.87C219.203 126.038 219.821 129.02 221.058 131.814C222.295 134.583 223.964 137.016 226.067 139.111C228.169 141.182 230.593 142.816 233.338 144.014C236.084 145.211 238.953 145.81 241.946 145.81C243.257 145.81 244.592 145.71 245.953 145.511C247.313 145.311 248.698 144.974 250.108 144.5C251.518 144.001 252.928 143.353 254.337 142.554C255.772 141.731 257.207 140.708 258.641 139.486C258.74 139.386 258.839 139.274 258.938 139.149C259.037 138.999 259.086 138.874 259.086 138.775C259.086 138.55 258.938 138.226 258.641 137.802L254.078 131.44C253.905 131.29 253.694 131.215 253.447 131.215C253.224 131.215 253.039 131.265 252.89 131.365ZM252.223 130.467C252.594 130.167 253.027 130.017 253.521 130.017C253.793 130.042 254.053 130.105 254.3 130.205C254.548 130.304 254.77 130.492 254.968 130.766L259.532 137.128C259.977 137.777 260.199 138.326 260.199 138.775C260.199 139.323 259.927 139.835 259.383 140.309C257.85 141.656 256.341 142.766 254.857 143.64C253.373 144.488 251.901 145.149 250.442 145.623C249.007 146.122 247.585 146.459 246.175 146.634C244.765 146.833 243.356 146.933 241.946 146.933C238.805 146.933 235.787 146.309 232.893 145.062C230.024 143.789 227.489 142.068 225.288 139.897C223.086 137.702 221.33 135.145 220.019 132.225C218.733 129.306 218.09 126.188 218.09 122.87C218.09 119.551 218.659 116.433 219.797 113.514C220.934 110.595 222.53 108.05 224.583 105.879C226.66 103.684 229.134 101.962 232.003 100.715C234.897 99.4424 238.087 98.8062 241.575 98.8062C243.034 98.8062 244.58 99.0058 246.212 99.405C247.845 99.7792 249.453 100.378 251.035 101.201C252.643 102 254.177 103.035 255.636 104.307C257.12 105.58 258.418 107.102 259.532 108.873C260.669 110.62 261.572 112.628 262.24 114.898C262.908 117.169 263.242 119.726 263.242 122.57C263.242 123.668 263.13 124.554 262.908 125.227C262.71 125.876 262.376 126.387 261.906 126.762C261.436 127.111 260.83 127.348 260.088 127.473C259.346 127.597 258.443 127.66 257.38 127.66H232.448C232.819 128.658 233.326 129.581 233.969 130.429C234.612 131.252 235.342 131.964 236.158 132.562C236.974 133.161 237.865 133.635 238.829 133.984C239.819 134.309 240.833 134.471 241.872 134.471C243.504 134.471 244.864 134.334 245.953 134.059C247.041 133.785 247.956 133.448 248.698 133.049C249.465 132.65 250.108 132.213 250.627 131.739C251.172 131.265 251.703 130.841 252.223 130.467ZM241.167 109.659C243.343 109.659 245.285 110.333 246.991 111.68C248.723 113.002 250.145 114.911 251.258 117.406H231.558C232.052 116.333 232.621 115.322 233.264 114.374C233.932 113.426 234.662 112.603 235.453 111.904C236.269 111.206 237.16 110.657 238.124 110.258C239.089 109.859 240.103 109.659 241.167 109.659ZM241.167 110.782C239.336 110.782 237.766 111.293 236.455 112.316C235.144 113.314 234.093 114.636 233.301 116.283H249.514C248.624 114.512 247.461 113.152 246.027 112.204C244.592 111.256 242.972 110.782 241.167 110.782Z" fill="black"/>
<path d="M314.709 143.864C314.858 144.288 314.994 144.6 315.118 144.8C315.241 144.974 315.451 145.062 315.748 145.062H324.652C324.974 145.062 325.184 144.962 325.283 144.762C325.407 144.563 325.543 144.263 325.691 143.864L335.3 118.192L336.302 118.341L338.009 144.014C338.083 144.712 338.417 145.062 339.01 145.062H348.397C349.065 145.062 349.399 144.737 349.399 144.089L346.542 101.388C346.517 101.039 346.393 100.777 346.171 100.603C345.973 100.428 345.763 100.341 345.54 100.341H333.074C332.802 100.341 332.592 100.465 332.444 100.715C332.295 100.939 332.159 101.214 332.035 101.538C331.12 103.933 330.156 106.441 329.142 109.06C328.152 111.655 327.151 114.275 326.136 116.919C325.122 119.564 324.121 122.183 323.131 124.778C322.142 127.373 321.202 129.855 320.312 132.225L309.107 101.538C308.984 101.214 308.835 100.939 308.662 100.715C308.514 100.465 308.316 100.341 308.068 100.341H295.603C295.355 100.341 295.133 100.428 294.935 100.603C294.737 100.777 294.626 101.039 294.601 101.388C294.378 104.707 294.143 108.175 293.896 111.792C293.649 115.41 293.401 119.065 293.154 122.757C292.907 126.425 292.659 130.067 292.412 133.685C292.189 137.278 291.967 140.746 291.744 144.089C291.744 144.737 292.078 145.062 292.746 145.062H302.132C302.726 145.062 303.06 144.712 303.134 144.014L304.766 119.015L305.768 118.865L314.709 143.864ZM305.731 122.009C305.484 125.726 305.224 129.419 304.952 133.086C304.705 136.729 304.47 140.396 304.247 144.089C304.148 145.486 303.443 146.184 302.132 146.184H292.746C292.103 146.184 291.596 145.972 291.225 145.548C290.854 145.124 290.656 144.613 290.631 144.014C290.854 140.671 291.089 137.203 291.336 133.61C291.583 129.993 291.818 126.35 292.041 122.682C292.288 118.99 292.536 115.335 292.783 111.717C293.03 108.1 293.265 104.632 293.488 101.314C293.537 100.615 293.772 100.091 294.193 99.7418C294.638 99.3925 295.108 99.2178 295.603 99.2178H308.068C308.687 99.2178 309.132 99.405 309.404 99.7792C309.701 100.153 309.948 100.615 310.146 101.164L320.312 129.044L330.997 101.164C331.195 100.615 331.429 100.153 331.702 99.7792C331.998 99.405 332.456 99.2178 333.074 99.2178H345.54C346.035 99.2178 346.492 99.3925 346.913 99.7418C347.358 100.091 347.605 100.615 347.655 101.314L350.512 144.014C350.487 144.613 350.289 145.124 349.918 145.548C349.547 145.972 349.04 146.184 348.397 146.184H339.01C338.293 146.184 337.774 146.01 337.452 145.661C337.131 145.336 336.945 144.812 336.896 144.089L335.337 121.26L326.73 144.238C326.458 144.912 326.211 145.399 325.988 145.698C325.79 146.022 325.345 146.184 324.652 146.184H315.748C315.031 146.184 314.561 146.022 314.338 145.698C314.116 145.374 313.893 144.887 313.671 144.238L305.731 122.009Z" fill="black"/>
<path d="M389.444 131.365L388.591 132.076C388.096 132.475 387.564 132.887 386.995 133.311C386.451 133.735 385.796 134.122 385.029 134.471C384.262 134.795 383.347 135.07 382.284 135.294C381.22 135.494 379.934 135.594 378.425 135.594C377.164 135.594 375.952 135.382 374.789 134.957C373.652 134.533 372.613 133.934 371.673 133.161C370.733 132.363 369.904 131.402 369.187 130.279C368.47 129.157 367.926 127.909 367.555 126.537H393.933C394.799 126.537 395.529 126.487 396.122 126.387C396.741 126.288 397.235 126.1 397.606 125.826C397.977 125.552 398.249 125.152 398.422 124.628C398.596 124.105 398.682 123.418 398.682 122.57C398.682 119.876 398.361 117.443 397.718 115.273C397.099 113.102 396.258 111.181 395.195 109.509C394.131 107.813 392.894 106.366 391.485 105.168C390.1 103.971 388.64 102.985 387.107 102.212C385.598 101.413 384.064 100.84 382.506 100.49C380.973 100.116 379.513 99.9289 378.128 99.9289C374.814 99.9289 371.784 100.528 369.039 101.725C366.293 102.923 363.931 104.569 361.953 106.665C359.999 108.736 358.477 111.168 357.389 113.963C356.301 116.732 355.757 119.701 355.757 122.87C355.757 126.038 356.375 129.02 357.612 131.814C358.848 134.583 360.518 137.016 362.62 139.111C364.723 141.182 367.147 142.816 369.892 144.014C372.637 145.211 375.507 145.81 378.499 145.81C379.81 145.81 381.146 145.71 382.506 145.511C383.867 145.311 385.252 144.974 386.662 144.5C388.071 144.001 389.481 143.353 390.891 142.554C392.326 141.731 393.76 140.708 395.195 139.486C395.294 139.386 395.393 139.274 395.491 139.149C395.59 138.999 395.64 138.874 395.64 138.775C395.64 138.55 395.491 138.226 395.195 137.802L390.631 131.44C390.458 131.29 390.248 131.215 390.001 131.215C389.778 131.215 389.592 131.265 389.444 131.365ZM388.776 130.467C389.147 130.167 389.58 130.017 390.075 130.017C390.347 130.042 390.607 130.105 390.854 130.205C391.101 130.304 391.324 130.492 391.522 130.766L396.085 137.128C396.53 137.777 396.753 138.326 396.753 138.775C396.753 139.323 396.481 139.835 395.937 140.309C394.403 141.656 392.894 142.766 391.41 143.64C389.926 144.488 388.455 145.149 386.995 145.623C385.561 146.122 384.139 146.459 382.729 146.634C381.319 146.833 379.909 146.933 378.499 146.933C375.358 146.933 372.341 146.309 369.447 145.062C366.578 143.789 364.043 142.068 361.841 139.897C359.64 137.702 357.884 135.145 356.573 132.225C355.287 129.306 354.644 126.188 354.644 122.87C354.644 119.551 355.213 116.433 356.35 113.514C357.488 110.595 359.083 108.05 361.136 105.879C363.214 103.684 365.687 101.962 368.556 100.715C371.45 99.4424 374.641 98.8062 378.128 98.8062C379.588 98.8062 381.134 99.0058 382.766 99.405C384.398 99.7792 386.006 100.378 387.589 101.201C389.197 102 390.73 103.035 392.19 104.307C393.674 105.58 394.972 107.102 396.085 108.873C397.223 110.62 398.126 112.628 398.793 114.898C399.461 117.169 399.795 119.726 399.795 122.57C399.795 123.668 399.684 124.554 399.461 125.227C399.263 125.876 398.929 126.387 398.46 126.762C397.99 127.111 397.384 127.348 396.642 127.473C395.9 127.597 394.997 127.66 393.933 127.66H369.002C369.373 128.658 369.88 129.581 370.523 130.429C371.166 131.252 371.895 131.964 372.712 132.562C373.528 133.161 374.418 133.635 375.383 133.984C376.372 134.309 377.386 134.471 378.425 134.471C380.058 134.471 381.418 134.334 382.506 134.059C383.595 133.785 384.51 133.448 385.252 133.049C386.018 132.65 386.662 132.213 387.181 131.739C387.725 131.265 388.257 130.841 388.776 130.467ZM377.72 109.659C379.897 109.659 381.838 110.333 383.545 111.68C385.276 113.002 386.699 114.911 387.812 117.406H368.111C368.606 116.333 369.175 115.322 369.818 114.374C370.486 113.426 371.215 112.603 372.007 111.904C372.823 111.206 373.713 110.657 374.678 110.258C375.643 109.859 376.657 109.659 377.72 109.659ZM377.72 110.782C375.89 110.782 374.319 111.293 373.008 112.316C371.698 113.314 370.646 114.636 369.855 116.283H386.068C385.178 114.512 384.015 113.152 382.58 112.204C381.146 111.256 379.526 110.782 377.72 110.782Z" fill="black"/>
<path d="M437.244 131.402C436.774 131.727 436.23 132.088 435.611 132.487C435.018 132.862 434.362 133.211 433.645 133.535C432.952 133.86 432.198 134.134 431.382 134.359C430.59 134.558 429.749 134.658 428.859 134.658C427.35 134.658 425.928 134.371 424.592 133.797C423.281 133.223 422.131 132.425 421.142 131.402C420.177 130.354 419.411 129.107 418.842 127.66C418.298 126.188 418.026 124.566 418.026 122.795C418.026 121.023 418.322 119.402 418.916 117.93C419.51 116.458 420.301 115.198 421.29 114.15C422.28 113.077 423.417 112.254 424.704 111.68C426.015 111.081 427.387 110.782 428.822 110.782C430.306 110.782 431.728 111.006 433.088 111.455C434.449 111.88 435.933 112.653 437.54 113.776H437.503C437.701 113.9 437.899 113.963 438.097 113.963C438.32 113.963 438.456 113.9 438.505 113.776H438.468L443.551 105.842C443.625 105.767 443.662 105.68 443.662 105.58C443.662 105.455 443.625 105.343 443.551 105.243C443.477 105.143 443.39 105.043 443.291 104.944C442.302 104.17 441.288 103.472 440.249 102.848C439.21 102.224 438.097 101.688 436.91 101.239C435.747 100.79 434.498 100.453 433.163 100.228C431.827 99.9788 430.355 99.854 428.748 99.854C425.631 99.854 422.7 100.453 419.955 101.65C417.209 102.848 414.81 104.482 412.757 106.553C410.729 108.624 409.121 111.056 407.934 113.85C406.772 116.62 406.19 119.589 406.19 122.757C406.19 126.125 406.784 129.232 407.971 132.076C409.183 134.895 410.828 137.328 412.906 139.373C414.983 141.419 417.407 143.016 420.177 144.164C422.972 145.311 425.953 145.885 429.119 145.885C430.405 145.885 431.716 145.735 433.051 145.436C434.387 145.137 435.673 144.737 436.91 144.238C438.171 143.739 439.346 143.166 440.434 142.517C441.523 141.868 442.462 141.195 443.254 140.496C443.575 140.197 443.736 139.96 443.736 139.785C443.736 139.536 443.625 139.249 443.402 138.924H443.439C442.599 137.652 441.745 136.404 440.88 135.182C440.014 133.934 439.161 132.675 438.32 131.402C438.221 131.252 438.072 131.178 437.874 131.178C437.652 131.178 437.442 131.252 437.244 131.402ZM436.576 130.504C436.922 130.23 437.355 130.092 437.874 130.092C438.146 130.092 438.406 130.142 438.653 130.242C438.901 130.342 439.111 130.529 439.284 130.803H439.247C440.088 132.076 440.929 133.336 441.77 134.583C442.636 135.806 443.489 137.053 444.33 138.326C444.627 138.849 444.8 139.336 444.849 139.785C444.849 140.309 444.565 140.82 443.996 141.319C443.155 142.018 442.141 142.704 440.954 143.378C439.791 144.051 438.53 144.65 437.169 145.174C435.834 145.698 434.461 146.122 433.051 146.446C431.641 146.796 430.293 146.983 429.007 147.008C425.767 146.933 422.688 146.284 419.769 145.062C416.875 143.814 414.34 142.118 412.164 139.972C409.987 137.827 408.256 135.294 406.97 132.375C405.708 129.431 405.077 126.225 405.077 122.757C405.077 119.439 405.696 116.32 406.932 113.401C408.169 110.482 409.851 107.938 411.978 105.767C414.13 103.596 416.64 101.887 419.51 100.64C422.403 99.3675 425.483 98.7313 428.748 98.7313C430.454 98.7313 432 98.8561 433.385 99.1056C434.795 99.3301 436.106 99.6669 437.318 100.116C438.53 100.565 439.668 101.126 440.731 101.8C441.819 102.449 442.895 103.197 443.959 104.045C444.503 104.52 444.775 105.019 444.775 105.542C444.775 105.867 444.689 106.166 444.515 106.441C443.674 107.738 442.809 109.06 441.918 110.408C441.053 111.755 440.212 113.077 439.395 114.374C439.247 114.624 439.049 114.799 438.802 114.898C438.555 114.998 438.307 115.048 438.06 115.048C437.639 115.048 437.244 114.923 436.873 114.674C435.389 113.626 434.016 112.902 432.754 112.503C431.493 112.104 430.182 111.904 428.822 111.904C427.536 111.904 426.311 112.179 425.149 112.728C423.986 113.252 422.96 113.988 422.069 114.936C421.179 115.884 420.462 117.031 419.918 118.379C419.398 119.701 419.139 121.173 419.139 122.795C419.139 124.391 419.386 125.851 419.881 127.173C420.375 128.496 421.055 129.631 421.921 130.579C422.811 131.527 423.85 132.263 425.038 132.787C426.225 133.286 427.499 133.535 428.859 133.535C429.65 133.535 430.417 133.436 431.159 133.236C431.901 133.036 432.594 132.787 433.237 132.487C433.905 132.188 434.511 131.864 435.055 131.514C435.624 131.165 436.131 130.828 436.576 130.504Z" fill="black"/>
<path d="M449.719 100.303C449.422 100.303 449.162 100.44 448.94 100.715C448.742 100.964 448.643 101.251 448.643 101.576V110.707C448.643 111.505 449.001 111.904 449.719 111.904H462.407V143.34C462.407 143.69 462.457 144.064 462.556 144.463C462.679 144.862 462.988 145.062 463.483 145.062H473.612C474.057 145.062 474.403 144.9 474.65 144.575C474.898 144.226 475.021 143.814 475.021 143.34V111.904H487.97C488.143 111.904 488.353 111.817 488.6 111.642C488.848 111.468 488.971 111.119 488.971 110.595V101.276C488.971 100.652 488.674 100.341 488.081 100.341L449.719 100.303ZM488.081 99.2178C489.416 99.2178 490.084 99.9039 490.084 101.276V110.595C490.084 111.069 490.01 111.468 489.862 111.792C489.713 112.117 489.528 112.366 489.305 112.541C489.083 112.715 488.848 112.84 488.6 112.915C488.353 112.99 488.143 113.027 487.97 113.027H476.134V143.34C476.134 144.114 475.912 144.787 475.467 145.361C475.021 145.91 474.403 146.184 473.612 146.184H463.483C462.988 146.184 462.593 146.085 462.296 145.885C461.999 145.71 461.776 145.486 461.628 145.211C461.48 144.912 461.381 144.6 461.331 144.276C461.307 143.927 461.294 143.615 461.294 143.34V113.027H449.719C448.259 113.027 447.53 112.254 447.53 110.707V101.576C447.53 100.952 447.74 100.403 448.161 99.9289C448.606 99.4299 449.125 99.1804 449.719 99.1804L488.081 99.2178Z" fill="black"/>
<path d="M538.895 101.388C538.895 100.69 538.549 100.341 537.856 100.341H530.658C530.312 100.341 530.09 100.44 529.991 100.64C529.916 100.84 529.78 101.151 529.583 101.576L527.876 105.692C526.169 103.671 524.153 102.199 521.828 101.276C519.504 100.328 517.005 99.854 514.334 99.854C511.193 99.854 508.262 100.465 505.541 101.688C502.821 102.885 500.459 104.532 498.455 106.628C496.452 108.698 494.881 111.131 493.743 113.925C492.606 116.72 492.037 119.701 492.037 122.87C492.037 126.313 492.643 129.444 493.855 132.263C495.091 135.082 496.736 137.502 498.789 139.523C500.842 141.519 503.216 143.066 505.912 144.164C508.608 145.261 511.416 145.81 514.334 145.81C516.659 145.81 518.873 145.299 520.975 144.276C523.102 143.228 525.056 141.769 526.837 139.897L527.727 142.48L527.69 142.292C527.789 142.542 527.901 142.829 528.024 143.153C528.148 143.478 528.296 143.777 528.47 144.051C528.643 144.326 528.828 144.563 529.026 144.762C529.249 144.962 529.484 145.062 529.731 145.062H537.856C538.549 145.062 538.895 144.712 538.895 144.014V101.388ZM540.008 144.014C540.008 145.461 539.291 146.184 537.856 146.184H529.731C529.286 146.184 528.89 146.06 528.544 145.81C528.222 145.561 527.938 145.249 527.69 144.875C527.443 144.5 527.233 144.101 527.06 143.677C526.887 143.253 526.738 142.879 526.614 142.554L526.54 142.218L526.577 142.405C526.503 142.205 526.466 142.13 526.466 142.18C526.491 142.23 526.466 142.155 526.392 141.956C524.759 143.527 522.929 144.75 520.901 145.623C518.873 146.496 516.684 146.933 514.334 146.933C511.267 146.933 508.311 146.359 505.467 145.211C502.647 144.064 500.162 142.442 498.01 140.346C495.858 138.226 494.139 135.693 492.853 132.749C491.567 129.78 490.924 126.487 490.924 122.87C490.924 119.551 491.517 116.433 492.704 113.514C493.916 110.57 495.574 108.012 497.676 105.842C499.778 103.646 502.252 101.912 505.096 100.64C507.965 99.3675 511.045 98.7313 514.334 98.7313C516.981 98.7313 519.429 99.1056 521.68 99.854C523.931 100.603 525.848 101.825 527.431 103.522L528.544 101.201C528.692 100.877 528.816 100.59 528.915 100.341C529.038 100.091 529.162 99.8915 529.286 99.7418C529.409 99.5671 529.57 99.4424 529.768 99.3675C529.991 99.2677 530.287 99.2178 530.658 99.2178H537.856C539.291 99.2178 540.008 99.9414 540.008 101.388V144.014ZM526.392 122.795C526.392 124.391 526.095 125.913 525.501 127.36C524.933 128.807 524.129 130.08 523.09 131.178C522.076 132.25 520.864 133.111 519.454 133.76C518.069 134.384 516.573 134.695 514.965 134.695C513.357 134.695 511.873 134.396 510.513 133.797C509.152 133.198 507.965 132.375 506.951 131.327C505.962 130.255 505.183 128.995 504.614 127.548C504.045 126.076 503.76 124.491 503.76 122.795C503.76 121.023 504.057 119.414 504.651 117.967C505.269 116.495 506.085 115.235 507.1 114.187C508.138 113.139 509.338 112.329 510.698 111.755C512.059 111.181 513.481 110.894 514.965 110.894C516.573 110.894 518.069 111.218 519.454 111.867C520.864 112.491 522.076 113.352 523.09 114.449C524.129 115.522 524.933 116.782 525.501 118.229C526.095 119.676 526.392 121.198 526.392 122.795ZM525.279 122.795C525.279 121.348 525.019 119.975 524.5 118.678C523.98 117.356 523.251 116.208 522.311 115.235C521.396 114.237 520.307 113.451 519.046 112.877C517.785 112.304 516.424 112.017 514.965 112.017C513.629 112.017 512.343 112.279 511.106 112.803C509.894 113.327 508.819 114.063 507.879 115.011C506.963 115.959 506.234 117.094 505.69 118.416C505.146 119.738 504.873 121.198 504.873 122.795C504.873 124.317 505.121 125.739 505.616 127.061C506.135 128.383 506.84 129.531 507.73 130.504C508.645 131.452 509.721 132.201 510.958 132.749C512.195 133.298 513.53 133.573 514.965 133.573C516.424 133.573 517.785 133.286 519.046 132.712C520.307 132.138 521.396 131.365 522.311 130.392C523.251 129.394 523.98 128.246 524.5 126.949C525.019 125.626 525.279 124.242 525.279 122.795Z" fill="black"/>
</svg>
