<svg width="1440" height="747" viewBox="0 0 1440 747" fill="none" xmlns="http://www.w3.org/2000/svg">
<path d="M1440 287.04V472.93C1431.82 484.87 1419 493.39 1404.14 495.86C1405.99 501.15 1407.03 506.83 1407.13 512.74C1407.14 513.06 1407.14 513.38 1407.14 513.7C1407.14 543.7 1382.83 568.01 1352.84 568.01C1346.62 568.01 1340.65 566.96 1335.09 565.04C1333.18 593.3 1309.66 615.64 1280.91 615.64C1252.46 615.64 1229.13 593.76 1226.8 565.92C1222.05 567.28 1217.04 568.01 1211.85 568.01C1181.86 568.01 1157.55 543.7 1157.55 513.7C1157.55 513.38 1157.55 513.06 1157.56 512.74C1157.63 508.7 1158.14 504.76 1159.05 500.96C1152.08 506.83 1143.62 510.97 1134.32 512.74C1131.01 513.37 1127.6 513.7 1124.11 513.7C1120.62 513.7 1117.21 513.37 1113.91 512.74C1088.79 507.97 1069.81 485.9 1069.81 459.41C1069.81 485.9 1050.83 507.97 1025.71 512.74C1022.41 513.37 1019 513.7 1015.51 513.7C1012.02 513.7 1008.61 513.37 1005.3 512.74C995.99 510.97 987.54 506.83 980.57 500.96C981.48 504.76 981.98 508.7 982.05 512.74C982.06 513.06 982.06 513.38 982.06 513.7C982.06 543.7 957.75 568.01 927.77 568.01C922.58 568.01 917.56 567.28 912.82 565.92C910.48 593.76 887.14 615.64 858.7 615.64C829.95 615.64 806.42 593.3 804.53 565.04C798.96 566.96 792.99 568.01 786.78 568.01C756.79 568.01 732.47 543.7 732.47 513.7C732.47 513.38 732.47 513.06 732.48 512.74C732.58 506.83 733.63 501.15 735.48 495.86C715.51 492.53 699.22 478.32 692.95 459.53C692.93 479.1 687.27 497.35 677.52 512.74C659.83 540.69 628.64 559.25 593.11 559.25C568.63 559.25 546.21 550.44 528.85 535.83C530.79 543.88 531.75 552.3 531.61 560.98C530.7 614.68 486.77 658.4 433.07 659.08C423.07 659.21 413.41 657.86 404.28 655.25C400 706.45 357.09 746.67 304.78 746.67C251.93 746.67 208.66 705.6 205.17 653.64C195.07 657.13 184.25 659.04 172.98 659.09C118.24 659.33 73.89 616.18 72.72 561.45C72.46 549.16 74.41 537.36 78.22 526.44C65.1 524.25 52.84 519.51 41.98 512.74C41.28 512.31 40.59 511.86 39.9 511.41C14.74 494.85 0 466.39 0 436.28V293.49C0 273.14 14.07 255.19 34.01 251.15C34.62 251.03 35.24 250.91 35.86 250.81C34.01 245.52 32.97 239.84 32.87 233.93C32.86 233.61 32.86 233.29 32.86 232.97C32.86 202.98 57.17 178.67 87.16 178.67C93.38 178.67 99.35 179.71 104.91 181.64C106.82 153.38 130.34 131.04 159.09 131.04C187.54 131.04 210.87 152.91 213.2 180.76C217.95 179.39 222.97 178.67 228.16 178.67C258.14 178.67 282.45 202.98 282.45 232.97C282.45 233.29 282.45 233.61 282.44 233.93C282.37 237.97 281.86 241.92 280.95 245.71C287.92 239.84 296.38 235.7 305.68 233.93C308.99 233.3 312.4 232.97 315.89 232.97C319.38 232.97 322.79 233.3 326.09 233.93C351.21 238.7 370.19 260.77 370.19 287.27C370.19 260.77 389.18 238.7 414.3 233.93C417.6 233.3 421.01 232.97 424.5 232.97C427.99 232.97 431.4 233.3 434.71 233.93C444.01 235.7 452.48 239.84 459.44 245.71C458.52 241.92 458.02 237.97 457.95 233.93C457.94 233.61 457.94 233.29 457.94 232.97C457.94 202.98 482.25 178.67 512.23 178.67C517.42 178.67 522.44 179.39 527.19 180.76C529.52 152.91 552.86 131.04 581.3 131.04C610.05 131.04 633.58 153.38 635.48 181.64C641.04 179.71 647.01 178.67 653.23 178.67C683.22 178.67 707.53 202.98 707.53 232.97C707.53 233.29 707.53 233.61 707.52 233.93C707.42 239.84 706.38 245.52 704.52 250.81C724.49 254.14 740.78 268.35 747.06 287.15C747.08 267.58 752.74 249.33 762.49 233.93C780.18 205.98 811.37 187.43 846.9 187.43C871.37 187.43 893.8 196.24 911.16 210.85C909.34 203.33 908.39 195.49 908.39 187.43C908.39 132.29 953.09 87.59 1008.23 87.59C1017.76 87.59 1026.99 88.93 1035.72 91.42C1040.01 40.22 1082.91 0.0100098 1135.22 0.0100098C1188.07 0.0100098 1231.34 41.08 1234.83 93.04C1245.06 89.5 1256.04 87.59 1267.47 87.59C1322.61 87.59 1367.31 132.29 1367.31 187.43C1367.31 198.92 1365.37 209.97 1361.8 220.24C1374.91 222.43 1387.16 227.17 1398.02 233.93C1417.55 246.1 1432.58 264.83 1440 287.04Z" fill="white"/>
</svg>
