<svg width="365" height="98" viewBox="0 0 365 98" fill="none" xmlns="http://www.w3.org/2000/svg">
<path d="M11.475 8.425C11.475 8.24166 11.4167 8.08333 11.3 7.95C11.1833 7.8 11.0083 7.725 10.775 7.725H4.09999C3.91665 7.725 3.73332 7.79167 3.54999 7.925C3.38332 8.05833 3.29999 8.225 3.29999 8.425V41.95C3.29999 42.4 3.56665 42.625 4.09999 42.625H11.175C11.7417 42.625 12.2083 42.3333 12.575 41.75C13.575 40.1 14.625 38.3583 15.725 36.525C16.8417 34.675 17.9667 32.8167 19.1 30.95C20.2333 29.0833 21.35 27.2333 22.45 25.4C23.5667 23.5667 24.625 21.8333 25.625 20.2V41.95C25.625 42.4 25.8917 42.625 26.425 42.625H33.125C33.575 42.625 33.8 42.4 33.8 41.95V8.425C33.8 8.24166 33.7417 8.08333 33.625 7.95C33.525 7.8 33.3583 7.725 33.125 7.725H25.5C24.95 7.725 24.4917 8.025 24.125 8.625L11.475 29V8.425ZM12.225 26.375C14.1083 23.3417 15.975 20.3167 17.825 17.3C19.6917 14.2833 21.575 11.2583 23.475 8.225C23.7083 7.84167 24 7.54167 24.35 7.325C24.7 7.09167 25.0833 6.975 25.5 6.975H33.125C33.6083 6.975 33.9667 7.125 34.2 7.425C34.4333 7.70833 34.55 8.04167 34.55 8.425V41.95C34.55 42.9 34.075 43.375 33.125 43.375H26.425C25.3917 43.375 24.875 42.9 24.875 41.95V22.925C22.9417 26.1417 21 29.35 19.05 32.55C17.1 35.7333 15.1583 38.9333 13.225 42.15C12.7083 42.9667 12.025 43.375 11.175 43.375H4.09999C3.06665 43.375 2.54999 42.9 2.54999 41.95V8.425C2.54999 8.20833 2.59999 8.01667 2.69999 7.85C2.79999 7.66667 2.92499 7.51666 3.07499 7.4C3.22499 7.26666 3.39165 7.16667 3.57499 7.1C3.75832 7.01667 3.93332 6.975 4.09999 6.975H10.775C11.2583 6.975 11.6167 7.125 11.85 7.425C12.1 7.70833 12.225 8.04167 12.225 8.425V26.375Z" fill="black"/>
<path d="M60.6625 33.5C60.3458 33.7167 59.9792 33.9583 59.5625 34.225C59.1625 34.475 58.7208 34.7083 58.2375 34.925C57.7708 35.1417 57.2625 35.325 56.7125 35.475C56.1792 35.6083 55.6125 35.675 55.0125 35.675C53.9958 35.675 53.0375 35.4833 52.1375 35.1C51.2542 34.7167 50.4792 34.1833 49.8125 33.5C49.1625 32.8 48.6458 31.9667 48.2625 31C47.8958 30.0167 47.7125 28.9333 47.7125 27.75C47.7125 26.5667 47.9125 25.4833 48.3125 24.5C48.7125 23.5167 49.2458 22.675 49.9125 21.975C50.5792 21.2583 51.3458 20.7083 52.2125 20.325C53.0958 19.925 54.0208 19.725 54.9875 19.725C55.9875 19.725 56.9458 19.875 57.8625 20.175C58.7792 20.4583 59.7792 20.975 60.8625 21.725H60.8375C60.9708 21.8083 61.1042 21.85 61.2375 21.85C61.3875 21.85 61.4792 21.8083 61.5125 21.725H61.4875L64.9125 16.425C64.9625 16.375 64.9875 16.3167 64.9875 16.25C64.9875 16.1667 64.9625 16.0917 64.9125 16.025C64.8625 15.9583 64.8042 15.8917 64.7375 15.825C64.0708 15.3083 63.3875 14.8417 62.6875 14.425C61.9875 14.0083 61.2375 13.65 60.4375 13.35C59.6542 13.05 58.8125 12.825 57.9125 12.675C57.0125 12.5083 56.0208 12.425 54.9375 12.425C52.8375 12.425 50.8625 12.825 49.0125 13.625C47.1625 14.425 45.5458 15.5167 44.1625 16.9C42.7958 18.2833 41.7125 19.9083 40.9125 21.775C40.1292 23.625 39.7375 25.6083 39.7375 27.725C39.7375 29.975 40.1375 32.05 40.9375 33.95C41.7542 35.8333 42.8625 37.4583 44.2625 38.825C45.6625 40.1917 47.2958 41.2583 49.1625 42.025C51.0458 42.7917 53.0542 43.175 55.1875 43.175C56.0542 43.175 56.9375 43.075 57.8375 42.875C58.7375 42.675 59.6042 42.4083 60.4375 42.075C61.2875 41.7417 62.0792 41.3583 62.8125 40.925C63.5458 40.4917 64.1792 40.0417 64.7125 39.575C64.9292 39.375 65.0375 39.2167 65.0375 39.1C65.0375 38.9333 64.9625 38.7417 64.8125 38.525H64.8375C64.2708 37.675 63.6958 36.8417 63.1125 36.025C62.5292 35.1917 61.9542 34.35 61.3875 33.5C61.3208 33.4 61.2208 33.35 61.0875 33.35C60.9375 33.35 60.7958 33.4 60.6625 33.5ZM60.2125 32.9C60.4458 32.7167 60.7375 32.625 61.0875 32.625C61.2708 32.625 61.4458 32.6583 61.6125 32.725C61.7792 32.7917 61.9208 32.9167 62.0375 33.1H62.0125C62.5792 33.95 63.1458 34.7917 63.7125 35.625C64.2958 36.4417 64.8708 37.275 65.4375 38.125C65.6375 38.475 65.7542 38.8 65.7875 39.1C65.7875 39.45 65.5958 39.7917 65.2125 40.125C64.6458 40.5917 63.9625 41.05 63.1625 41.5C62.3792 41.95 61.5292 42.35 60.6125 42.7C59.7125 43.05 58.7875 43.3333 57.8375 43.55C56.8875 43.7833 55.9792 43.9083 55.1125 43.925C52.9292 43.875 50.8542 43.4417 48.8875 42.625C46.9375 41.7917 45.2292 40.6583 43.7625 39.225C42.2958 37.7917 41.1292 36.1 40.2625 34.15C39.4125 32.1833 38.9875 30.0417 38.9875 27.725C38.9875 25.5083 39.4042 23.425 40.2375 21.475C41.0708 19.525 42.2042 17.825 43.6375 16.375C45.0875 14.925 46.7792 13.7833 48.7125 12.95C50.6625 12.1 52.7375 11.675 54.9375 11.675C56.0875 11.675 57.1292 11.7583 58.0625 11.925C59.0125 12.075 59.8958 12.3 60.7125 12.6C61.5292 12.9 62.2958 13.275 63.0125 13.725C63.7458 14.1583 64.4708 14.6583 65.1875 15.225C65.5542 15.5417 65.7375 15.875 65.7375 16.225C65.7375 16.4417 65.6792 16.6417 65.5625 16.825C64.9958 17.6917 64.4125 18.575 63.8125 19.475C63.2292 20.375 62.6625 21.2583 62.1125 22.125C62.0125 22.2917 61.8792 22.4083 61.7125 22.475C61.5458 22.5417 61.3792 22.575 61.2125 22.575C60.9292 22.575 60.6625 22.4917 60.4125 22.325C59.4125 21.625 58.4875 21.1417 57.6375 20.875C56.7875 20.6083 55.9042 20.475 54.9875 20.475C54.1208 20.475 53.2958 20.6583 52.5125 21.025C51.7292 21.375 51.0375 21.8667 50.4375 22.5C49.8375 23.1333 49.3542 23.9 48.9875 24.8C48.6375 25.6833 48.4625 26.6667 48.4625 27.75C48.4625 28.8167 48.6292 29.7917 48.9625 30.675C49.2958 31.5583 49.7542 32.3167 50.3375 32.95C50.9375 33.5833 51.6375 34.075 52.4375 34.425C53.2375 34.7583 54.0958 34.925 55.0125 34.925C55.5458 34.925 56.0625 34.8583 56.5625 34.725C57.0625 34.5917 57.5292 34.425 57.9625 34.225C58.4125 34.025 58.8208 33.8083 59.1875 33.575C59.5708 33.3417 59.9125 33.1167 60.2125 32.9Z" fill="black"/>
<path d="M90.5687 33.5C90.2521 33.7167 89.8854 33.9583 89.4687 34.225C89.0687 34.475 88.6271 34.7083 88.1437 34.925C87.6771 35.1417 87.1687 35.325 86.6187 35.475C86.0854 35.6083 85.5187 35.675 84.9187 35.675C83.9021 35.675 82.9437 35.4833 82.0437 35.1C81.1604 34.7167 80.3854 34.1833 79.7187 33.5C79.0687 32.8 78.5521 31.9667 78.1687 31C77.8021 30.0167 77.6187 28.9333 77.6187 27.75C77.6187 26.5667 77.8187 25.4833 78.2187 24.5C78.6187 23.5167 79.1521 22.675 79.8187 21.975C80.4854 21.2583 81.2521 20.7083 82.1187 20.325C83.0021 19.925 83.9271 19.725 84.8937 19.725C85.8937 19.725 86.8521 19.875 87.7687 20.175C88.6854 20.4583 89.6854 20.975 90.7687 21.725H90.7437C90.8771 21.8083 91.0104 21.85 91.1437 21.85C91.2937 21.85 91.3854 21.8083 91.4187 21.725H91.3937L94.8187 16.425C94.8687 16.375 94.8937 16.3167 94.8937 16.25C94.8937 16.1667 94.8687 16.0917 94.8187 16.025C94.7687 15.9583 94.7104 15.8917 94.6437 15.825C93.9771 15.3083 93.2937 14.8417 92.5937 14.425C91.8937 14.0083 91.1437 13.65 90.3437 13.35C89.5604 13.05 88.7187 12.825 87.8187 12.675C86.9187 12.5083 85.9271 12.425 84.8437 12.425C82.7437 12.425 80.7687 12.825 78.9187 13.625C77.0687 14.425 75.4521 15.5167 74.0687 16.9C72.7021 18.2833 71.6187 19.9083 70.8187 21.775C70.0354 23.625 69.6437 25.6083 69.6437 27.725C69.6437 29.975 70.0437 32.05 70.8437 33.95C71.6604 35.8333 72.7687 37.4583 74.1687 38.825C75.5687 40.1917 77.2021 41.2583 79.0687 42.025C80.9521 42.7917 82.9604 43.175 85.0937 43.175C85.9604 43.175 86.8437 43.075 87.7437 42.875C88.6437 42.675 89.5104 42.4083 90.3437 42.075C91.1937 41.7417 91.9854 41.3583 92.7187 40.925C93.4521 40.4917 94.0854 40.0417 94.6187 39.575C94.8354 39.375 94.9437 39.2167 94.9437 39.1C94.9437 38.9333 94.8687 38.7417 94.7187 38.525H94.7437C94.1771 37.675 93.6021 36.8417 93.0187 36.025C92.4354 35.1917 91.8604 34.35 91.2937 33.5C91.2271 33.4 91.1271 33.35 90.9937 33.35C90.8437 33.35 90.7021 33.4 90.5687 33.5ZM90.1187 32.9C90.3521 32.7167 90.6437 32.625 90.9937 32.625C91.1771 32.625 91.3521 32.6583 91.5187 32.725C91.6854 32.7917 91.8271 32.9167 91.9437 33.1H91.9187C92.4854 33.95 93.0521 34.7917 93.6187 35.625C94.2021 36.4417 94.7771 37.275 95.3437 38.125C95.5437 38.475 95.6604 38.8 95.6937 39.1C95.6937 39.45 95.5021 39.7917 95.1187 40.125C94.5521 40.5917 93.8687 41.05 93.0687 41.5C92.2854 41.95 91.4354 42.35 90.5187 42.7C89.6187 43.05 88.6937 43.3333 87.7437 43.55C86.7937 43.7833 85.8854 43.9083 85.0187 43.925C82.8354 43.875 80.7604 43.4417 78.7937 42.625C76.8437 41.7917 75.1354 40.6583 73.6687 39.225C72.2021 37.7917 71.0354 36.1 70.1687 34.15C69.3187 32.1833 68.8937 30.0417 68.8937 27.725C68.8937 25.5083 69.3104 23.425 70.1437 21.475C70.9771 19.525 72.1104 17.825 73.5437 16.375C74.9937 14.925 76.6854 13.7833 78.6187 12.95C80.5687 12.1 82.6437 11.675 84.8437 11.675C85.9937 11.675 87.0354 11.7583 87.9687 11.925C88.9187 12.075 89.8021 12.3 90.6187 12.6C91.4354 12.9 92.2021 13.275 92.9187 13.725C93.6521 14.1583 94.3771 14.6583 95.0937 15.225C95.4604 15.5417 95.6437 15.875 95.6437 16.225C95.6437 16.4417 95.5854 16.6417 95.4687 16.825C94.9021 17.6917 94.3187 18.575 93.7187 19.475C93.1354 20.375 92.5687 21.2583 92.0187 22.125C91.9187 22.2917 91.7854 22.4083 91.6187 22.475C91.4521 22.5417 91.2854 22.575 91.1187 22.575C90.8354 22.575 90.5687 22.4917 90.3187 22.325C89.3187 21.625 88.3937 21.1417 87.5437 20.875C86.6937 20.6083 85.8104 20.475 84.8937 20.475C84.0271 20.475 83.2021 20.6583 82.4187 21.025C81.6354 21.375 80.9437 21.8667 80.3437 22.5C79.7437 23.1333 79.2604 23.9 78.8937 24.8C78.5437 25.6833 78.3687 26.6667 78.3687 27.75C78.3687 28.8167 78.5354 29.7917 78.8687 30.675C79.2021 31.5583 79.6604 32.3167 80.2437 32.95C80.8437 33.5833 81.5437 34.075 82.3437 34.425C83.1437 34.7583 84.0021 34.925 84.9187 34.925C85.4521 34.925 85.9687 34.8583 86.4687 34.725C86.9687 34.5917 87.4354 34.425 87.8687 34.225C88.3187 34.025 88.7271 33.8083 89.0937 33.575C89.4771 33.3417 89.8187 33.1167 90.1187 32.9Z" fill="black"/>
<path d="M121.95 41.95C121.95 42.4 122.175 42.625 122.625 42.625H129.7C130.15 42.625 130.375 42.4 130.375 41.95V13.425C130.375 13.225 130.308 13.0667 130.175 12.95C130.042 12.8167 129.883 12.75 129.7 12.75H104.425C103.925 12.75 103.675 13 103.675 13.5V31.2C103.675 31.8167 103.617 32.4167 103.5 33C103.4 33.5667 103.208 34.0667 102.925 34.5C102.658 34.9333 102.292 35.2833 101.825 35.55C101.375 35.8167 100.808 35.95 100.125 35.95C99.875 35.95 99.6833 35.9833 99.55 36.05C99.4333 36.1167 99.3417 36.2 99.275 36.3C99.2083 36.3833 99.1667 36.4833 99.15 36.6C99.15 36.7 99.15 36.7917 99.15 36.875V42.4C99.15 42.4667 99.1583 42.5417 99.175 42.625C99.2083 42.7083 99.2833 42.7833 99.4 42.85C99.5333 42.9167 99.725 42.9667 99.975 43C100.225 43.05 100.575 43.075 101.025 43.075C102.625 43.075 104.1 42.7833 105.45 42.2C106.817 41.6167 107.992 40.8583 108.975 39.925C109.975 38.975 110.75 37.9 111.3 36.7C111.867 35.5 112.15 34.2833 112.15 33.05V20.6H121.95V41.95ZM121.2 21.375C119.75 21.375 118.367 21.375 117.05 21.375C115.75 21.3583 114.367 21.35 112.9 21.35V33.05C112.9 34.3667 112.6 35.675 112 36.975C111.417 38.2583 110.592 39.4083 109.525 40.425C108.475 41.4417 107.225 42.2667 105.775 42.9C104.325 43.5167 102.742 43.825 101.025 43.825C100.408 43.825 99.925 43.7833 99.575 43.7C99.225 43.6167 98.9583 43.5 98.775 43.35C98.6083 43.2167 98.5 43.0667 98.45 42.9C98.4167 42.7333 98.4 42.5667 98.4 42.4V36.875C98.4 36.7083 98.4083 36.5333 98.425 36.35C98.4417 36.15 98.5 35.9667 98.6 35.8C98.7167 35.6333 98.8917 35.4917 99.125 35.375C99.3583 35.2583 99.6917 35.2 100.125 35.2C100.658 35.2 101.1 35.0917 101.45 34.875C101.817 34.6417 102.108 34.3417 102.325 33.975C102.542 33.6083 102.692 33.1833 102.775 32.7C102.875 32.2167 102.925 31.7167 102.925 31.2V13.5C102.925 12.5 103.425 12 104.425 12H129.7C130.117 12 130.458 12.1333 130.725 12.4C130.992 12.65 131.125 12.9917 131.125 13.425V41.95C131.125 42.9 130.65 43.375 129.7 43.375H122.625C121.675 43.375 121.2 42.9 121.2 41.95V21.375Z" fill="black"/>
<path d="M160.922 33.475L160.347 33.95C160.014 34.2167 159.655 34.4917 159.272 34.775C158.905 35.0583 158.464 35.3167 157.947 35.55C157.43 35.7667 156.814 35.95 156.097 36.1C155.38 36.2333 154.514 36.3 153.497 36.3C152.647 36.3 151.83 36.1583 151.047 35.875C150.28 35.5917 149.58 35.1917 148.947 34.675C148.314 34.1417 147.755 33.5 147.272 32.75C146.789 32 146.422 31.1667 146.172 30.25H163.947C164.53 30.25 165.022 30.2167 165.422 30.15C165.839 30.0833 166.172 29.9583 166.422 29.775C166.672 29.5917 166.855 29.325 166.972 28.975C167.089 28.625 167.147 28.1667 167.147 27.6C167.147 25.8 166.93 24.175 166.497 22.725C166.08 21.275 165.514 19.9917 164.797 18.875C164.08 17.7417 163.247 16.775 162.297 15.975C161.364 15.175 160.38 14.5167 159.347 14C158.33 13.4667 157.297 13.0833 156.247 12.85C155.214 12.6 154.23 12.475 153.297 12.475C151.064 12.475 149.022 12.875 147.172 13.675C145.322 14.475 143.73 15.575 142.397 16.975C141.08 18.3583 140.055 19.9833 139.322 21.85C138.589 23.7 138.222 25.6833 138.222 27.8C138.222 29.9167 138.639 31.9083 139.472 33.775C140.305 35.625 141.43 37.25 142.847 38.65C144.264 40.0333 145.897 41.125 147.747 41.925C149.597 42.725 151.53 43.125 153.547 43.125C154.43 43.125 155.33 43.0583 156.247 42.925C157.164 42.7917 158.097 42.5667 159.047 42.25C159.997 41.9167 160.947 41.4833 161.897 40.95C162.864 40.4 163.83 39.7167 164.797 38.9C164.864 38.8333 164.93 38.7583 164.997 38.675C165.064 38.575 165.097 38.4917 165.097 38.425C165.097 38.275 164.997 38.0583 164.797 37.775L161.722 33.525C161.605 33.425 161.464 33.375 161.297 33.375C161.147 33.375 161.022 33.4083 160.922 33.475ZM160.472 32.875C160.722 32.675 161.014 32.575 161.347 32.575C161.53 32.5917 161.705 32.6333 161.872 32.7C162.039 32.7667 162.189 32.8917 162.322 33.075L165.397 37.325C165.697 37.7583 165.847 38.125 165.847 38.425C165.847 38.7917 165.664 39.1333 165.297 39.45C164.264 40.35 163.247 41.0917 162.247 41.675C161.247 42.2417 160.255 42.6833 159.272 43C158.305 43.3333 157.347 43.5583 156.397 43.675C155.447 43.8083 154.497 43.875 153.547 43.875C151.43 43.875 149.397 43.4583 147.447 42.625C145.514 41.775 143.805 40.625 142.322 39.175C140.839 37.7083 139.655 36 138.772 34.05C137.905 32.1 137.472 30.0167 137.472 27.8C137.472 25.5833 137.855 23.5 138.622 21.55C139.389 19.6 140.464 17.9 141.847 16.45C143.247 14.9833 144.914 13.8333 146.847 13C148.797 12.15 150.947 11.725 153.297 11.725C154.28 11.725 155.322 11.8583 156.422 12.125C157.522 12.375 158.605 12.775 159.672 13.325C160.755 13.8583 161.789 14.55 162.772 15.4C163.772 16.25 164.647 17.2667 165.397 18.45C166.164 19.6167 166.772 20.9583 167.222 22.475C167.672 23.9917 167.897 25.7 167.897 27.6C167.897 28.3333 167.822 28.925 167.672 29.375C167.539 29.8083 167.314 30.15 166.997 30.4C166.68 30.6333 166.272 30.7917 165.772 30.875C165.272 30.9583 164.664 31 163.947 31H147.147C147.397 31.6667 147.739 32.2833 148.172 32.85C148.605 33.4 149.097 33.875 149.647 34.275C150.197 34.675 150.797 34.9917 151.447 35.225C152.114 35.4417 152.797 35.55 153.497 35.55C154.597 35.55 155.514 35.4583 156.247 35.275C156.98 35.0917 157.597 34.8667 158.097 34.6C158.614 34.3333 159.047 34.0417 159.397 33.725C159.764 33.4083 160.122 33.125 160.472 32.875ZM153.022 18.975C154.489 18.975 155.797 19.425 156.947 20.325C158.114 21.2083 159.072 22.4833 159.822 24.15H146.547C146.88 23.4333 147.264 22.7583 147.697 22.125C148.147 21.4917 148.639 20.9417 149.172 20.475C149.722 20.0083 150.322 19.6417 150.972 19.375C151.622 19.1083 152.305 18.975 153.022 18.975ZM153.022 19.725C151.789 19.725 150.73 20.0667 149.847 20.75C148.964 21.4167 148.255 22.3 147.722 23.4H158.647C158.047 22.2167 157.264 21.3083 156.297 20.675C155.33 20.0417 154.239 19.725 153.022 19.725Z" fill="black"/>
<path d="M181.006 47.65C181.24 47.65 181.381 47.5917 181.431 47.475C181.498 47.3583 181.531 47.25 181.531 47.15V42.575H200.056V47.825C200.056 47.9583 200.215 48.025 200.531 48.025H208.206C208.423 48.025 208.531 47.95 208.531 47.8V36.55C208.531 36.15 208.44 35.8917 208.256 35.775C208.09 35.6417 207.84 35.575 207.506 35.575H204.856V13.275C204.856 13.1417 204.806 13.025 204.706 12.925C204.606 12.8083 204.431 12.75 204.181 12.75H182.156C181.94 12.75 181.773 12.8167 181.656 12.95C181.54 13.0833 181.481 13.225 181.481 13.375C181.481 15.3417 181.423 17.35 181.306 19.4C181.206 21.4333 180.965 23.425 180.581 25.375C180.215 27.3083 179.673 29.15 178.956 30.9C178.256 32.6333 177.306 34.1917 176.106 35.575H173.931C173.315 35.575 173.006 35.9 173.006 36.55V47.15C173.006 47.4833 173.215 47.65 173.631 47.65H181.006ZM173.631 48.4C173.181 48.4 172.84 48.3 172.606 48.1C172.373 47.9167 172.256 47.6 172.256 47.15V36.55C172.256 36.0167 172.406 35.6 172.706 35.3C173.006 34.9833 173.415 34.825 173.931 34.825H175.756C176.856 33.5083 177.731 32.0167 178.381 30.35C179.031 28.6667 179.531 26.8917 179.881 25.025C180.231 23.1417 180.456 21.2083 180.556 19.225C180.673 17.2417 180.731 15.2917 180.731 13.375C180.731 13.0417 180.856 12.7333 181.106 12.45C181.373 12.15 181.723 12 182.156 12H204.181C204.715 12 205.081 12.1333 205.281 12.4C205.498 12.6667 205.606 12.9583 205.606 13.275V34.825H207.506C208.09 34.825 208.531 34.9417 208.831 35.175C209.131 35.3917 209.281 35.85 209.281 36.55V47.8C209.281 48.1 209.181 48.3333 208.981 48.5C208.798 48.6833 208.54 48.775 208.206 48.775H200.531C200.098 48.775 199.781 48.6833 199.581 48.5C199.398 48.3333 199.306 48.1083 199.306 47.825V43.325H182.281V47.15C182.281 47.2833 182.265 47.4167 182.231 47.55C182.215 47.7 182.165 47.8333 182.081 47.95C181.998 48.0833 181.873 48.1917 181.706 48.275C181.54 48.3583 181.306 48.4 181.006 48.4H173.631ZM196.381 35.55H184.406C185.223 34.05 185.923 32.6583 186.506 31.375C187.09 30.0917 187.565 28.8333 187.931 27.6C188.315 26.35 188.59 25.075 188.756 23.775C188.94 22.4583 189.031 21.0167 189.031 19.45H196.381V35.55ZM195.631 20.2H189.781C189.765 21.6333 189.673 22.95 189.506 24.15C189.356 25.35 189.115 26.5167 188.781 27.65C188.448 28.7833 188.023 29.925 187.506 31.075C186.99 32.225 186.373 33.4667 185.656 34.8H195.631V20.2Z" fill="black"/>
<path d="M244.472 13.85C244.555 13.6333 244.597 13.4417 244.597 13.275C244.597 13.1417 244.547 13.025 244.447 12.925C244.347 12.8083 244.155 12.75 243.872 12.75H236.697C236.147 12.75 235.789 13.0167 235.622 13.55L228.547 34.1L221.347 13.625C221.264 13.3583 221.122 13.15 220.922 13C220.722 12.8333 220.505 12.75 220.272 12.75H213.572C213.355 12.75 213.155 12.8083 212.972 12.925C212.805 13.025 212.722 13.1917 212.722 13.425C212.722 13.6083 212.772 13.825 212.872 14.075L224.447 42.875L220.472 53.075C220.355 53.3583 220.297 53.6167 220.297 53.85C220.297 54.1333 220.414 54.3333 220.647 54.45C220.897 54.5833 221.205 54.65 221.572 54.65H227.522C228.022 54.65 228.397 54.3917 228.647 53.875L244.472 13.85ZM229.347 54.175C229.03 54.9917 228.422 55.4 227.522 55.4H221.572C220.989 55.4 220.505 55.2833 220.122 55.05C219.739 54.8167 219.547 54.4167 219.547 53.85C219.547 53.7 219.564 53.5333 219.597 53.35C219.63 53.1667 219.689 52.975 219.772 52.775V52.8L223.647 42.9L212.172 14.375C212.105 14.2083 212.047 14.0417 211.997 13.875C211.964 13.7083 211.955 13.5583 211.972 13.425C211.972 12.9083 212.13 12.5417 212.447 12.325C212.78 12.1083 213.155 12 213.572 12H220.272C220.705 12 221.072 12.125 221.372 12.375C221.672 12.6083 221.897 12.9417 222.047 13.375L228.547 31.825C229.614 28.725 230.68 25.6417 231.747 22.575C232.814 19.4917 233.872 16.4 234.922 13.3V13.325C235.189 12.4417 235.78 12 236.697 12H243.872C244.455 12 244.847 12.1333 245.047 12.4C245.247 12.65 245.347 12.9417 245.347 13.275C245.347 13.5583 245.289 13.85 245.172 14.15L229.347 54.175Z" fill="black"/>
<path d="M258.003 13.425C258.003 13.1917 257.928 13.025 257.778 12.925C257.645 12.8083 257.495 12.75 257.328 12.75H250.203C250.02 12.75 249.861 12.8167 249.728 12.95C249.595 13.0667 249.528 13.225 249.528 13.425V41.95C249.528 42.4 249.736 42.625 250.153 42.625H257.328C257.545 42.625 257.695 42.5833 257.778 42.5C257.878 42.4167 257.995 42.2833 258.128 42.1H258.103L269.028 25.575V41.95C269.028 42.4 269.253 42.625 269.703 42.625H276.828C277.278 42.625 277.503 42.4 277.503 41.95V13.45C277.503 13.2167 277.428 13.05 277.278 12.95C277.145 12.8333 276.995 12.775 276.828 12.775H269.653C269.536 12.775 269.428 12.825 269.328 12.925C269.228 13.025 269.111 13.175 268.978 13.375H269.003L258.003 30.075V13.425ZM258.753 27.525L268.353 12.975C268.57 12.6417 268.77 12.4 268.953 12.25C269.136 12.1 269.37 12.025 269.653 12.025H276.828C277.161 12.025 277.478 12.1417 277.778 12.375C278.095 12.6083 278.253 12.9667 278.253 13.45V41.95C278.253 42.3833 278.128 42.7333 277.878 43C277.645 43.25 277.295 43.375 276.828 43.375H269.703C268.753 43.375 268.278 42.9 268.278 41.95V28.1C266.695 30.5 265.103 32.9 263.503 35.3C261.903 37.7 260.311 40.1 258.728 42.5C258.528 42.8 258.336 43.0167 258.153 43.15C257.986 43.3 257.711 43.375 257.328 43.375H250.153C249.67 43.375 249.32 43.2583 249.103 43.025C248.886 42.7917 248.778 42.4333 248.778 41.95V13.425C248.778 12.9917 248.911 12.65 249.178 12.4C249.445 12.1333 249.786 12 250.203 12H257.328C257.661 12 257.978 12.1167 258.278 12.35C258.595 12.5833 258.753 12.9417 258.753 13.425V27.525ZM263.828 7.05C264.728 7.05 265.561 6.9 266.328 6.6C267.095 6.28333 267.761 5.86667 268.328 5.35C268.911 4.81667 269.361 4.20833 269.678 3.525C270.011 2.84167 270.178 2.13333 270.178 1.4C270.178 1.25 270.128 1.125 270.028 1.025C269.945 0.924999 269.811 0.875 269.628 0.875H266.128C266.045 0.875 266.003 0.933333 266.003 1.05C266.003 1.48333 265.82 1.89167 265.453 2.275C265.086 2.65833 264.578 2.85 263.928 2.85C263.178 2.85 262.628 2.65833 262.278 2.275C261.945 1.89167 261.778 1.48333 261.778 1.05C261.778 0.933333 261.72 0.875 261.603 0.875H258.103C257.97 0.875 257.853 0.924999 257.753 1.025C257.653 1.125 257.603 1.25 257.603 1.4C257.603 2.11666 257.761 2.81667 258.078 3.5C258.395 4.16667 258.828 4.76667 259.378 5.3C259.945 5.81666 260.603 6.24166 261.353 6.575C262.12 6.89167 262.945 7.05 263.828 7.05ZM263.828 7.8C262.828 7.8 261.903 7.61667 261.053 7.25C260.203 6.88333 259.461 6.40833 258.828 5.825C258.211 5.225 257.728 4.54167 257.378 3.775C257.028 3.00833 256.853 2.21667 256.853 1.4C256.853 1.01666 256.97 0.708331 257.203 0.474998C257.436 0.241666 257.736 0.125 258.103 0.125H261.603C261.986 0.125 262.22 0.233333 262.303 0.449998C262.403 0.649999 262.478 0.874999 262.528 1.125C262.595 1.35833 262.711 1.58333 262.878 1.8C263.045 2 263.395 2.1 263.928 2.1C264.411 2.1 264.728 2 264.878 1.8C265.045 1.58333 265.161 1.35833 265.228 1.125C265.295 0.874999 265.37 0.649999 265.453 0.449998C265.553 0.233333 265.778 0.125 266.128 0.125H269.628C270.028 0.125 270.345 0.241666 270.578 0.474998C270.811 0.708331 270.928 1.01666 270.928 1.4C270.928 2.23333 270.745 3.04167 270.378 3.825C270.011 4.59167 269.503 5.275 268.853 5.875C268.22 6.45833 267.47 6.925 266.603 7.275C265.753 7.625 264.828 7.8 263.828 7.8Z" fill="black"/>
<path d="M21.525 95.95C21.525 96.4 21.75 96.625 22.2 96.625H28.525C28.975 96.625 29.2 96.4 29.2 95.95V67.425C29.2 67.225 29.1333 67.0667 29 66.95C28.8667 66.8167 28.7083 66.75 28.525 66.75H22.2C22.0333 66.75 21.875 66.8083 21.725 66.925C21.5917 67.025 21.525 67.1917 21.525 67.425V77.7H9.34999V67.425C9.34999 67.225 9.28332 67.0667 9.14999 66.95C9.01665 66.8167 8.85832 66.75 8.67499 66.75H2.34999C2.18332 66.75 2.02499 66.8083 1.87499 66.925C1.74165 67.025 1.67499 67.1917 1.67499 67.425V95.95C1.67499 96.4 1.89999 96.625 2.34999 96.625H8.67499C9.12499 96.625 9.34999 96.4 9.34999 95.95V84.625H21.525V95.95ZM20.775 85.375H10.1V95.95C10.1 96.9 9.62499 97.375 8.67499 97.375H2.34999C1.39999 97.375 0.924988 96.9 0.924988 95.95V67.425C0.924988 66.9417 1.07499 66.5833 1.37499 66.35C1.69165 66.1167 2.01665 66 2.34999 66H8.67499C9.09165 66 9.43332 66.1333 9.69999 66.4C9.96666 66.65 10.1 66.9917 10.1 67.425V76.95H20.775V67.425C20.775 66.9417 20.925 66.5833 21.225 66.35C21.5417 66.1167 21.8667 66 22.2 66H28.525C28.9417 66 29.2833 66.1333 29.55 66.4C29.8167 66.65 29.95 66.9917 29.95 67.425V95.95C29.95 96.9 29.475 97.375 28.525 97.375H22.2C21.25 97.375 20.775 96.9 20.775 95.95V85.375Z" fill="black"/>
<path d="M34.2062 81.775C34.2062 83.8917 34.6062 85.8833 35.4062 87.75C36.2229 89.6167 37.3229 91.25 38.7062 92.65C40.1062 94.0333 41.7396 95.125 43.6062 95.925C45.4896 96.725 47.4979 97.125 49.6312 97.125C51.7646 97.125 53.7646 96.725 55.6312 95.925C57.5146 95.1083 59.1562 94.0083 60.5562 92.625C61.9562 91.2417 63.0562 89.6167 63.8562 87.75C64.6729 85.8833 65.0812 83.8917 65.0812 81.775C65.0812 79.6583 64.6729 77.675 63.8562 75.825C63.0562 73.9583 61.9562 72.3333 60.5562 70.95C59.1562 69.55 57.5146 68.45 55.6312 67.65C53.7646 66.85 51.7646 66.45 49.6312 66.45C47.4979 66.45 45.4896 66.85 43.6062 67.65C41.7396 68.45 40.1062 69.5417 38.7062 70.925C37.3229 72.3083 36.2229 73.9333 35.4062 75.8C34.6062 77.65 34.2062 79.6417 34.2062 81.775ZM33.4562 81.775C33.4562 79.5417 33.8812 77.45 34.7312 75.5C35.5812 73.55 36.7312 71.85 38.1812 70.4C39.6479 68.95 41.3646 67.8083 43.3312 66.975C45.2979 66.125 47.3979 65.7 49.6312 65.7C51.8646 65.7 53.9646 66.125 55.9312 66.975C57.8979 67.8083 59.6146 68.9583 61.0812 70.425C62.5479 71.875 63.7062 73.575 64.5562 75.525C65.4062 77.475 65.8312 79.5583 65.8312 81.775C65.8312 83.9917 65.4062 86.0833 64.5562 88.05C63.7062 90 62.5479 91.7083 61.0812 93.175C59.6146 94.625 57.8979 95.775 55.9312 96.625C53.9646 97.4583 51.8646 97.875 49.6312 97.875C47.3979 97.875 45.2979 97.4583 43.3312 96.625C41.3646 95.775 39.6479 94.625 38.1812 93.175C36.7312 91.7083 35.5812 90 34.7312 88.05C33.8812 86.0833 33.4562 83.9917 33.4562 81.775ZM42.2562 81.775C42.2562 80.6917 42.4312 79.675 42.7812 78.725C43.1479 77.7583 43.6562 76.9083 44.3062 76.175C44.9562 75.4417 45.7312 74.8667 46.6312 74.45C47.5479 74.0167 48.5562 73.8 49.6562 73.8C50.7562 73.8 51.7562 74.0167 52.6562 74.45C53.5562 74.8833 54.3229 75.4667 54.9562 76.2C55.6062 76.9333 56.1062 77.7833 56.4562 78.75C56.8062 79.7 56.9812 80.7083 56.9812 81.775C56.9812 82.8417 56.8062 83.8583 56.4562 84.825C56.1062 85.7917 55.6062 86.6417 54.9562 87.375C54.3062 88.1083 53.5312 88.6917 52.6312 89.125C51.7312 89.5583 50.7312 89.775 49.6312 89.775C48.5312 89.775 47.5229 89.5583 46.6062 89.125C45.7062 88.6917 44.9312 88.1167 44.2812 87.4C43.6479 86.6667 43.1479 85.8167 42.7812 84.85C42.4312 83.8667 42.2562 82.8417 42.2562 81.775ZM43.0062 81.775C43.0062 82.7417 43.1646 83.6667 43.4812 84.55C43.7979 85.4333 44.2479 86.2083 44.8312 86.875C45.4146 87.525 46.1146 88.05 46.9312 88.45C47.7479 88.8333 48.6479 89.025 49.6312 89.025C50.6146 89.025 51.5146 88.8333 52.3312 88.45C53.1479 88.05 53.8396 87.5167 54.4062 86.85C54.9896 86.1833 55.4396 85.4167 55.7562 84.55C56.0729 83.6667 56.2312 82.7417 56.2312 81.775C56.2312 80.8083 56.0729 79.8917 55.7562 79.025C55.4396 78.1417 54.9896 77.375 54.4062 76.725C53.8396 76.0583 53.1479 75.5333 52.3312 75.15C51.5312 74.75 50.6396 74.55 49.6562 74.55C48.6729 74.55 47.7729 74.7417 46.9562 75.125C46.1396 75.5083 45.4396 76.0333 44.8562 76.7C44.2729 77.3667 43.8146 78.1333 43.4812 79C43.1646 79.8667 43.0062 80.7917 43.0062 81.775Z" fill="black"/>
<path d="M98.925 75.375C98.925 74.2583 98.675 73.175 98.175 72.125C97.6917 71.075 97.025 70.1417 96.175 69.325C95.3417 68.5083 94.3583 67.8583 93.225 67.375C92.1083 66.875 90.925 66.625 89.675 66.625H71.7C71.0333 66.625 70.7 66.975 70.7 67.675V95.7C70.7 96.3167 71.0333 96.625 71.7 96.625H90.025C91.475 96.625 92.8 96.3667 94 95.85C95.2167 95.3167 96.2583 94.6167 97.125 93.75C97.9917 92.8667 98.6667 91.8667 99.15 90.75C99.6333 89.6167 99.875 88.4583 99.875 87.275C99.875 85.9083 99.5667 84.6833 98.95 83.6C98.3333 82.5 97.5 81.4583 96.45 80.475C96.75 80.125 97.05 79.7667 97.35 79.4C97.65 79.0167 97.9167 78.6167 98.15 78.2C98.3833 77.7667 98.5667 77.3167 98.7 76.85C98.85 76.3833 98.925 75.8917 98.925 75.375ZM99.675 75.375C99.675 76.4583 99.4583 77.4083 99.025 78.225C98.5917 79.025 98.0833 79.7583 97.5 80.425C98.4667 81.375 99.225 82.4 99.775 83.5C100.342 84.6 100.625 85.8583 100.625 87.275C100.625 88.5583 100.367 89.8083 99.85 91.025C99.3333 92.2417 98.6083 93.325 97.675 94.275C96.7417 95.2083 95.625 95.9583 94.325 96.525C93.025 97.0917 91.5917 97.375 90.025 97.375H71.7C70.5333 97.375 69.95 96.8167 69.95 95.7V67.675C69.95 66.475 70.5333 65.875 71.7 65.875H89.675C91.025 65.875 92.3083 66.1417 93.525 66.675C94.7417 67.2083 95.8 67.9167 96.7 68.8C97.6167 69.6833 98.3417 70.7 98.875 71.85C99.4083 72.9833 99.675 74.1583 99.675 75.375ZM88.425 83.4C88.875 83.4 89.325 83.4917 89.775 83.675C90.2417 83.8417 90.6583 84.0833 91.025 84.4C91.4083 84.7167 91.7167 85.1 91.95 85.55C92.1833 86 92.3 86.4917 92.3 87.025C92.3 87.525 92.225 88.0167 92.075 88.5C91.925 88.9667 91.6917 89.3833 91.375 89.75C91.0583 90.1167 90.65 90.4083 90.15 90.625C89.6667 90.8417 89.0917 90.95 88.425 90.95H79V83.4H88.425ZM79.75 84.15V90.2H88.425C88.975 90.2 89.4417 90.1167 89.825 89.95C90.225 89.7667 90.55 89.525 90.8 89.225C91.05 88.925 91.2333 88.5833 91.35 88.2C91.4833 87.8167 91.55 87.425 91.55 87.025C91.55 86.5917 91.45 86.2 91.25 85.85C91.0667 85.5 90.825 85.2 90.525 84.95C90.225 84.7 89.8833 84.5083 89.5 84.375C89.1333 84.225 88.775 84.15 88.425 84.15H79.75ZM91.1 75.2C91.1 76.2833 90.75 77.0667 90.05 77.55C89.3667 78.0333 88.5083 78.275 87.475 78.275H79V72.3H87.5C88 72.3 88.4667 72.3583 88.9 72.475C89.35 72.575 89.7333 72.7417 90.05 72.975C90.3833 73.2083 90.6417 73.5083 90.825 73.875C91.0083 74.2417 91.1 74.6833 91.1 75.2ZM90.35 75.2C90.35 74.4333 90.075 73.8833 89.525 73.55C88.9917 73.2167 88.3167 73.05 87.5 73.05H79.75V77.525H87.475C88.2917 77.525 88.975 77.3417 89.525 76.975C90.075 76.6083 90.35 76.0167 90.35 75.2Z" fill="black"/>
<path d="M107.487 96.625H122.112C123.362 96.625 124.529 96.35 125.612 95.8C126.696 95.2333 127.637 94.4917 128.437 93.575C129.237 92.6583 129.862 91.6167 130.312 90.45C130.762 89.2667 130.987 88.0583 130.987 86.825C130.987 85.625 130.762 84.45 130.312 83.3C129.879 82.1333 129.271 81.1 128.487 80.2C127.704 79.2833 126.779 78.55 125.712 78C124.646 77.45 123.496 77.175 122.262 77.175H114.187V67.425C114.187 67.225 114.121 67.0667 113.987 66.95C113.854 66.8167 113.696 66.75 113.512 66.75H106.412C106.246 66.75 106.087 66.8083 105.937 66.925C105.804 67.025 105.737 67.1917 105.737 67.425V94.975C105.737 95.5583 105.871 95.9833 106.137 96.25C106.421 96.5 106.871 96.625 107.487 96.625ZM107.487 97.375C106.587 97.375 105.946 97.1917 105.562 96.825C105.179 96.4417 104.987 95.825 104.987 94.975V67.425C104.987 66.9417 105.137 66.5833 105.437 66.35C105.754 66.1167 106.079 66 106.412 66H113.512C113.929 66 114.271 66.1333 114.537 66.4C114.804 66.65 114.937 66.9917 114.937 67.425V76.425H122.262C123.612 76.425 124.862 76.725 126.012 77.325C127.179 77.9083 128.179 78.6917 129.012 79.675C129.862 80.6417 130.529 81.75 131.012 83C131.496 84.25 131.737 85.525 131.737 86.825C131.737 88.1583 131.487 89.4583 130.987 90.725C130.504 91.9917 129.829 93.1167 128.962 94.1C128.112 95.0833 127.096 95.875 125.912 96.475C124.746 97.075 123.479 97.375 122.112 97.375H107.487ZM122.787 86.8C122.787 87.4 122.671 87.925 122.437 88.375C122.221 88.825 121.921 89.2 121.537 89.5C121.171 89.8 120.737 90.0333 120.237 90.2C119.737 90.35 119.204 90.425 118.637 90.425H114.187V83.375H118.637C119.187 83.375 119.712 83.45 120.212 83.6C120.729 83.7333 121.171 83.95 121.537 84.25C121.921 84.5333 122.221 84.8917 122.437 85.325C122.671 85.7417 122.787 86.2333 122.787 86.8ZM122.037 86.8C122.037 86.35 121.946 85.9583 121.762 85.625C121.579 85.2917 121.329 85.0167 121.012 84.8C120.712 84.5667 120.354 84.4 119.937 84.3C119.521 84.1833 119.087 84.125 118.637 84.125H114.937V89.675H118.637C119.104 89.675 119.537 89.6167 119.937 89.5C120.354 89.3667 120.712 89.1833 121.012 88.95C121.329 88.7 121.579 88.4 121.762 88.05C121.946 87.6833 122.037 87.2667 122.037 86.8ZM135.087 95.95C135.087 96.4 135.312 96.625 135.762 96.625H142.887C143.337 96.625 143.562 96.4 143.562 95.95V67.425C143.562 67.225 143.496 67.0667 143.362 66.95C143.229 66.8167 143.071 66.75 142.887 66.75H135.762C135.596 66.75 135.437 66.8083 135.287 66.925C135.154 67.025 135.087 67.1917 135.087 67.425V95.95ZM134.337 67.425C134.337 66.9417 134.487 66.5833 134.787 66.35C135.104 66.1167 135.429 66 135.762 66H142.887C143.304 66 143.646 66.1333 143.912 66.4C144.179 66.65 144.312 66.9917 144.312 67.425V95.95C144.312 96.9 143.837 97.375 142.887 97.375H135.762C134.812 97.375 134.337 96.9 134.337 95.95V67.425Z" fill="black"/>
<path d="M171.328 87.475L170.753 87.95C170.42 88.2167 170.061 88.4917 169.678 88.775C169.311 89.0583 168.87 89.3167 168.353 89.55C167.836 89.7667 167.22 89.95 166.503 90.1C165.786 90.2333 164.92 90.3 163.903 90.3C163.053 90.3 162.236 90.1583 161.453 89.875C160.686 89.5917 159.986 89.1917 159.353 88.675C158.72 88.1417 158.161 87.5 157.678 86.75C157.195 86 156.828 85.1667 156.578 84.25H174.353C174.936 84.25 175.428 84.2167 175.828 84.15C176.245 84.0833 176.578 83.9583 176.828 83.775C177.078 83.5917 177.261 83.325 177.378 82.975C177.495 82.625 177.553 82.1667 177.553 81.6C177.553 79.8 177.336 78.175 176.903 76.725C176.486 75.275 175.92 73.9917 175.203 72.875C174.486 71.7417 173.653 70.775 172.703 69.975C171.77 69.175 170.786 68.5167 169.753 68C168.736 67.4667 167.703 67.0833 166.653 66.85C165.62 66.6 164.636 66.475 163.703 66.475C161.47 66.475 159.428 66.875 157.578 67.675C155.728 68.475 154.136 69.575 152.803 70.975C151.486 72.3583 150.461 73.9833 149.728 75.85C148.995 77.7 148.628 79.6833 148.628 81.8C148.628 83.9167 149.045 85.9083 149.878 87.775C150.711 89.625 151.836 91.25 153.253 92.65C154.67 94.0333 156.303 95.125 158.153 95.925C160.003 96.725 161.936 97.125 163.953 97.125C164.836 97.125 165.736 97.0583 166.653 96.925C167.57 96.7917 168.503 96.5667 169.453 96.25C170.403 95.9167 171.353 95.4833 172.303 94.95C173.27 94.4 174.236 93.7167 175.203 92.9C175.27 92.8333 175.336 92.7583 175.403 92.675C175.47 92.575 175.503 92.4917 175.503 92.425C175.503 92.275 175.403 92.0583 175.203 91.775L172.128 87.525C172.011 87.425 171.87 87.375 171.703 87.375C171.553 87.375 171.428 87.4083 171.328 87.475ZM170.878 86.875C171.128 86.675 171.42 86.575 171.753 86.575C171.936 86.5917 172.111 86.6333 172.278 86.7C172.445 86.7667 172.595 86.8917 172.728 87.075L175.803 91.325C176.103 91.7583 176.253 92.125 176.253 92.425C176.253 92.7917 176.07 93.1333 175.703 93.45C174.67 94.35 173.653 95.0917 172.653 95.675C171.653 96.2417 170.661 96.6833 169.678 97C168.711 97.3333 167.753 97.5583 166.803 97.675C165.853 97.8083 164.903 97.875 163.953 97.875C161.836 97.875 159.803 97.4583 157.853 96.625C155.92 95.775 154.211 94.625 152.728 93.175C151.245 91.7083 150.061 90 149.178 88.05C148.311 86.1 147.878 84.0167 147.878 81.8C147.878 79.5833 148.261 77.5 149.028 75.55C149.795 73.6 150.87 71.9 152.253 70.45C153.653 68.9833 155.32 67.8333 157.253 67C159.203 66.15 161.353 65.725 163.703 65.725C164.686 65.725 165.728 65.8583 166.828 66.125C167.928 66.375 169.011 66.775 170.078 67.325C171.161 67.8583 172.195 68.55 173.178 69.4C174.178 70.25 175.053 71.2667 175.803 72.45C176.57 73.6167 177.178 74.9583 177.628 76.475C178.078 77.9917 178.303 79.7 178.303 81.6C178.303 82.3333 178.228 82.925 178.078 83.375C177.945 83.8083 177.72 84.15 177.403 84.4C177.086 84.6333 176.678 84.7917 176.178 84.875C175.678 84.9583 175.07 85 174.353 85H157.553C157.803 85.6667 158.145 86.2833 158.578 86.85C159.011 87.4 159.503 87.875 160.053 88.275C160.603 88.675 161.203 88.9917 161.853 89.225C162.52 89.4417 163.203 89.55 163.903 89.55C165.003 89.55 165.92 89.4583 166.653 89.275C167.386 89.0917 168.003 88.8667 168.503 88.6C169.02 88.3333 169.453 88.0417 169.803 87.725C170.17 87.4083 170.528 87.125 170.878 86.875ZM163.428 72.975C164.895 72.975 166.203 73.425 167.353 74.325C168.52 75.2083 169.478 76.4833 170.228 78.15H156.953C157.286 77.4333 157.67 76.7583 158.103 76.125C158.553 75.4917 159.045 74.9417 159.578 74.475C160.128 74.0083 160.728 73.6417 161.378 73.375C162.028 73.1083 162.711 72.975 163.428 72.975ZM163.428 73.725C162.195 73.725 161.136 74.0667 160.253 74.75C159.37 75.4167 158.661 76.3 158.128 77.4H169.053C168.453 76.2167 167.67 75.3083 166.703 74.675C165.736 74.0417 164.645 73.725 163.428 73.725Z" fill="black"/>
<path d="M212.984 95.825C213.084 96.1083 213.176 96.3167 213.259 96.45C213.343 96.5667 213.484 96.625 213.684 96.625H219.684C219.901 96.625 220.043 96.5583 220.109 96.425C220.193 96.2917 220.284 96.0917 220.384 95.825L226.859 78.675L227.534 78.775L228.684 95.925C228.734 96.3917 228.959 96.625 229.359 96.625H235.684C236.134 96.625 236.359 96.4083 236.359 95.975L234.434 67.45C234.418 67.2167 234.334 67.0417 234.184 66.925C234.051 66.8083 233.909 66.75 233.759 66.75H225.359C225.176 66.75 225.034 66.8333 224.934 67C224.834 67.15 224.743 67.3333 224.659 67.55C224.043 69.15 223.393 70.825 222.709 72.575C222.043 74.3083 221.368 76.0583 220.684 77.825C220.001 79.5917 219.326 81.3417 218.659 83.075C217.993 84.8083 217.359 86.4667 216.759 88.05L209.209 67.55C209.126 67.3333 209.026 67.15 208.909 67C208.809 66.8333 208.676 66.75 208.509 66.75H200.109C199.943 66.75 199.793 66.8083 199.659 66.925C199.526 67.0417 199.451 67.2167 199.434 67.45C199.284 69.6667 199.126 71.9833 198.959 74.4C198.793 76.8167 198.626 79.2583 198.459 81.725C198.293 84.175 198.126 86.6083 197.959 89.025C197.809 91.425 197.659 93.7417 197.509 95.975C197.509 96.4083 197.734 96.625 198.184 96.625H204.509C204.909 96.625 205.134 96.3917 205.184 95.925L206.284 79.225L206.959 79.125L212.984 95.825ZM206.934 81.225C206.768 83.7083 206.593 86.175 206.409 88.625C206.243 91.0583 206.084 93.5083 205.934 95.975C205.868 96.9083 205.393 97.375 204.509 97.375H198.184C197.751 97.375 197.409 97.2333 197.159 96.95C196.909 96.6667 196.776 96.325 196.759 95.925C196.909 93.6917 197.068 91.375 197.234 88.975C197.401 86.5583 197.559 84.125 197.709 81.675C197.876 79.2083 198.043 76.7667 198.209 74.35C198.376 71.9333 198.534 69.6167 198.684 67.4C198.718 66.9333 198.876 66.5833 199.159 66.35C199.459 66.1167 199.776 66 200.109 66H208.509C208.926 66 209.226 66.125 209.409 66.375C209.609 66.625 209.776 66.9333 209.909 67.3L216.759 85.925L223.959 67.3C224.093 66.9333 224.251 66.625 224.434 66.375C224.634 66.125 224.943 66 225.359 66H233.759C234.093 66 234.401 66.1167 234.684 66.35C234.984 66.5833 235.151 66.9333 235.184 67.4L237.109 95.925C237.093 96.325 236.959 96.6667 236.709 96.95C236.459 97.2333 236.118 97.375 235.684 97.375H229.359C228.876 97.375 228.526 97.2583 228.309 97.025C228.093 96.8083 227.968 96.4583 227.934 95.975L226.884 80.725L221.084 96.075C220.901 96.525 220.734 96.85 220.584 97.05C220.451 97.2667 220.151 97.375 219.684 97.375H213.684C213.201 97.375 212.884 97.2667 212.734 97.05C212.584 96.8333 212.434 96.5083 212.284 96.075L206.934 81.225Z" fill="black"/>
<path d="M263.344 87.475L262.769 87.95C262.435 88.2167 262.077 88.4917 261.694 88.775C261.327 89.0583 260.885 89.3167 260.369 89.55C259.852 89.7667 259.235 89.95 258.519 90.1C257.802 90.2333 256.935 90.3 255.919 90.3C255.069 90.3 254.252 90.1583 253.469 89.875C252.702 89.5917 252.002 89.1917 251.369 88.675C250.735 88.1417 250.177 87.5 249.694 86.75C249.21 86 248.844 85.1667 248.594 84.25H266.369C266.952 84.25 267.444 84.2167 267.844 84.15C268.26 84.0833 268.594 83.9583 268.844 83.775C269.094 83.5917 269.277 83.325 269.394 82.975C269.51 82.625 269.569 82.1667 269.569 81.6C269.569 79.8 269.352 78.175 268.919 76.725C268.502 75.275 267.935 73.9917 267.219 72.875C266.502 71.7417 265.669 70.775 264.719 69.975C263.785 69.175 262.802 68.5167 261.769 68C260.752 67.4667 259.719 67.0833 258.669 66.85C257.635 66.6 256.652 66.475 255.719 66.475C253.485 66.475 251.444 66.875 249.594 67.675C247.744 68.475 246.152 69.575 244.819 70.975C243.502 72.3583 242.477 73.9833 241.744 75.85C241.01 77.7 240.644 79.6833 240.644 81.8C240.644 83.9167 241.06 85.9083 241.894 87.775C242.727 89.625 243.852 91.25 245.269 92.65C246.685 94.0333 248.319 95.125 250.169 95.925C252.019 96.725 253.952 97.125 255.969 97.125C256.852 97.125 257.752 97.0583 258.669 96.925C259.585 96.7917 260.519 96.5667 261.469 96.25C262.419 95.9167 263.369 95.4833 264.319 94.95C265.285 94.4 266.252 93.7167 267.219 92.9C267.285 92.8333 267.352 92.7583 267.419 92.675C267.485 92.575 267.519 92.4917 267.519 92.425C267.519 92.275 267.419 92.0583 267.219 91.775L264.144 87.525C264.027 87.425 263.885 87.375 263.719 87.375C263.569 87.375 263.444 87.4083 263.344 87.475ZM262.894 86.875C263.144 86.675 263.435 86.575 263.769 86.575C263.952 86.5917 264.127 86.6333 264.294 86.7C264.46 86.7667 264.61 86.8917 264.744 87.075L267.819 91.325C268.119 91.7583 268.269 92.125 268.269 92.425C268.269 92.7917 268.085 93.1333 267.719 93.45C266.685 94.35 265.669 95.0917 264.669 95.675C263.669 96.2417 262.677 96.6833 261.694 97C260.727 97.3333 259.769 97.5583 258.819 97.675C257.869 97.8083 256.919 97.875 255.969 97.875C253.852 97.875 251.819 97.4583 249.869 96.625C247.935 95.775 246.227 94.625 244.744 93.175C243.26 91.7083 242.077 90 241.194 88.05C240.327 86.1 239.894 84.0167 239.894 81.8C239.894 79.5833 240.277 77.5 241.044 75.55C241.81 73.6 242.885 71.9 244.269 70.45C245.669 68.9833 247.335 67.8333 249.269 67C251.219 66.15 253.369 65.725 255.719 65.725C256.702 65.725 257.744 65.8583 258.844 66.125C259.944 66.375 261.027 66.775 262.094 67.325C263.177 67.8583 264.21 68.55 265.194 69.4C266.194 70.25 267.069 71.2667 267.819 72.45C268.585 73.6167 269.194 74.9583 269.644 76.475C270.094 77.9917 270.319 79.7 270.319 81.6C270.319 82.3333 270.244 82.925 270.094 83.375C269.96 83.8083 269.735 84.15 269.419 84.4C269.102 84.6333 268.694 84.7917 268.194 84.875C267.694 84.9583 267.085 85 266.369 85H249.569C249.819 85.6667 250.16 86.2833 250.594 86.85C251.027 87.4 251.519 87.875 252.069 88.275C252.619 88.675 253.219 88.9917 253.869 89.225C254.535 89.4417 255.219 89.55 255.919 89.55C257.019 89.55 257.935 89.4583 258.669 89.275C259.402 89.0917 260.019 88.8667 260.519 88.6C261.035 88.3333 261.469 88.0417 261.819 87.725C262.185 87.4083 262.544 87.125 262.894 86.875ZM255.444 72.975C256.91 72.975 258.219 73.425 259.369 74.325C260.535 75.2083 261.494 76.4833 262.244 78.15H248.969C249.302 77.4333 249.685 76.7583 250.119 76.125C250.569 75.4917 251.06 74.9417 251.594 74.475C252.144 74.0083 252.744 73.6417 253.394 73.375C254.044 73.1083 254.727 72.975 255.444 72.975ZM255.444 73.725C254.21 73.725 253.152 74.0667 252.269 74.75C251.385 75.4167 250.677 76.3 250.144 77.4H261.069C260.469 76.2167 259.685 75.3083 258.719 74.675C257.752 74.0417 256.66 73.725 255.444 73.725Z" fill="black"/>
<path d="M295.553 87.5C295.236 87.7167 294.87 87.9583 294.453 88.225C294.053 88.475 293.611 88.7083 293.128 88.925C292.661 89.1417 292.153 89.325 291.603 89.475C291.07 89.6083 290.503 89.675 289.903 89.675C288.886 89.675 287.928 89.4833 287.028 89.1C286.145 88.7167 285.37 88.1833 284.703 87.5C284.053 86.8 283.536 85.9667 283.153 85C282.786 84.0167 282.603 82.9333 282.603 81.75C282.603 80.5667 282.803 79.4833 283.203 78.5C283.603 77.5167 284.136 76.675 284.803 75.975C285.47 75.2583 286.236 74.7083 287.103 74.325C287.986 73.925 288.911 73.725 289.878 73.725C290.878 73.725 291.836 73.875 292.753 74.175C293.67 74.4583 294.67 74.975 295.753 75.725H295.728C295.861 75.8083 295.995 75.85 296.128 75.85C296.278 75.85 296.37 75.8083 296.403 75.725H296.378L299.803 70.425C299.853 70.375 299.878 70.3167 299.878 70.25C299.878 70.1667 299.853 70.0917 299.803 70.025C299.753 69.9583 299.695 69.8917 299.628 69.825C298.961 69.3083 298.278 68.8417 297.578 68.425C296.878 68.0083 296.128 67.65 295.328 67.35C294.545 67.05 293.703 66.825 292.803 66.675C291.903 66.5083 290.911 66.425 289.828 66.425C287.728 66.425 285.753 66.825 283.903 67.625C282.053 68.425 280.436 69.5167 279.053 70.9C277.686 72.2833 276.603 73.9083 275.803 75.775C275.02 77.625 274.628 79.6083 274.628 81.725C274.628 83.975 275.028 86.05 275.828 87.95C276.645 89.8333 277.753 91.4583 279.153 92.825C280.553 94.1917 282.186 95.2583 284.053 96.025C285.936 96.7917 287.945 97.175 290.078 97.175C290.945 97.175 291.828 97.075 292.728 96.875C293.628 96.675 294.495 96.4083 295.328 96.075C296.178 95.7417 296.97 95.3583 297.703 94.925C298.436 94.4917 299.07 94.0417 299.603 93.575C299.82 93.375 299.928 93.2167 299.928 93.1C299.928 92.9333 299.853 92.7417 299.703 92.525H299.728C299.161 91.675 298.586 90.8417 298.003 90.025C297.42 89.1917 296.845 88.35 296.278 87.5C296.211 87.4 296.111 87.35 295.978 87.35C295.828 87.35 295.686 87.4 295.553 87.5ZM295.103 86.9C295.336 86.7167 295.628 86.625 295.978 86.625C296.161 86.625 296.336 86.6583 296.503 86.725C296.67 86.7917 296.811 86.9167 296.928 87.1H296.903C297.47 87.95 298.036 88.7917 298.603 89.625C299.186 90.4417 299.761 91.275 300.328 92.125C300.528 92.475 300.645 92.8 300.678 93.1C300.678 93.45 300.486 93.7917 300.103 94.125C299.536 94.5917 298.853 95.05 298.053 95.5C297.27 95.95 296.42 96.35 295.503 96.7C294.603 97.05 293.678 97.3333 292.728 97.55C291.778 97.7833 290.87 97.9083 290.003 97.925C287.82 97.875 285.745 97.4417 283.778 96.625C281.828 95.7917 280.12 94.6583 278.653 93.225C277.186 91.7917 276.02 90.1 275.153 88.15C274.303 86.1833 273.878 84.0417 273.878 81.725C273.878 79.5083 274.295 77.425 275.128 75.475C275.961 73.525 277.095 71.825 278.528 70.375C279.978 68.925 281.67 67.7833 283.603 66.95C285.553 66.1 287.628 65.675 289.828 65.675C290.978 65.675 292.02 65.7583 292.953 65.925C293.903 66.075 294.786 66.3 295.603 66.6C296.42 66.9 297.186 67.275 297.903 67.725C298.636 68.1583 299.361 68.6583 300.078 69.225C300.445 69.5417 300.628 69.875 300.628 70.225C300.628 70.4417 300.57 70.6417 300.453 70.825C299.886 71.6917 299.303 72.575 298.703 73.475C298.12 74.375 297.553 75.2583 297.003 76.125C296.903 76.2917 296.77 76.4083 296.603 76.475C296.436 76.5417 296.27 76.575 296.103 76.575C295.82 76.575 295.553 76.4917 295.303 76.325C294.303 75.625 293.378 75.1417 292.528 74.875C291.678 74.6083 290.795 74.475 289.878 74.475C289.011 74.475 288.186 74.6583 287.403 75.025C286.62 75.375 285.928 75.8667 285.328 76.5C284.728 77.1333 284.245 77.9 283.878 78.8C283.528 79.6833 283.353 80.6667 283.353 81.75C283.353 82.8167 283.52 83.7917 283.853 84.675C284.186 85.5583 284.645 86.3167 285.228 86.95C285.828 87.5833 286.528 88.075 287.328 88.425C288.128 88.7583 288.986 88.925 289.903 88.925C290.436 88.925 290.953 88.8583 291.453 88.725C291.953 88.5917 292.42 88.425 292.853 88.225C293.303 88.025 293.711 87.8083 294.078 87.575C294.461 87.3417 294.803 87.1167 295.103 86.9Z" fill="black"/>
<path d="M303.959 66.725C303.759 66.725 303.584 66.8167 303.434 67C303.301 67.1667 303.234 67.3583 303.234 67.575V73.675C303.234 74.2083 303.476 74.475 303.959 74.475H312.509V95.475C312.509 95.7083 312.543 95.9583 312.609 96.225C312.693 96.4917 312.901 96.625 313.234 96.625H320.059C320.359 96.625 320.593 96.5167 320.759 96.3C320.926 96.0667 321.009 95.7917 321.009 95.475V74.475H329.734C329.851 74.475 329.993 74.4167 330.159 74.3C330.326 74.1833 330.409 73.95 330.409 73.6V67.375C330.409 66.9583 330.209 66.75 329.809 66.75L303.959 66.725ZM329.809 66C330.709 66 331.159 66.4583 331.159 67.375V73.6C331.159 73.9167 331.109 74.1833 331.009 74.4C330.909 74.6167 330.784 74.7833 330.634 74.9C330.484 75.0167 330.326 75.1 330.159 75.15C329.993 75.2 329.851 75.225 329.734 75.225H321.759V95.475C321.759 95.9917 321.609 96.4417 321.309 96.825C321.009 97.1917 320.593 97.375 320.059 97.375H313.234C312.901 97.375 312.634 97.3083 312.434 97.175C312.234 97.0583 312.084 96.9083 311.984 96.725C311.884 96.525 311.818 96.3167 311.784 96.1C311.768 95.8667 311.759 95.6583 311.759 95.475V75.225H303.959C302.976 75.225 302.484 74.7083 302.484 73.675V67.575C302.484 67.1583 302.626 66.7917 302.909 66.475C303.209 66.1417 303.559 65.975 303.959 65.975L329.809 66Z" fill="black"/>
<path d="M364.05 67.45C364.05 66.9833 363.817 66.75 363.35 66.75H358.5C358.267 66.75 358.117 66.8167 358.05 66.95C358 67.0833 357.908 67.2917 357.775 67.575L356.625 70.325C355.475 68.975 354.117 67.9917 352.55 67.375C350.983 66.7417 349.3 66.425 347.5 66.425C345.383 66.425 343.408 66.8333 341.575 67.65C339.742 68.45 338.15 69.55 336.8 70.95C335.45 72.3333 334.392 73.9583 333.625 75.825C332.858 77.6917 332.475 79.6833 332.475 81.8C332.475 84.1 332.883 86.1917 333.7 88.075C334.533 89.9583 335.642 91.575 337.025 92.925C338.408 94.2583 340.008 95.2917 341.825 96.025C343.642 96.7583 345.533 97.125 347.5 97.125C349.067 97.125 350.558 96.7833 351.975 96.1C353.408 95.4 354.725 94.425 355.925 93.175L356.525 94.9L356.5 94.775C356.567 94.9417 356.642 95.1333 356.725 95.35C356.808 95.5667 356.908 95.7667 357.025 95.95C357.142 96.1333 357.267 96.2917 357.4 96.425C357.55 96.5583 357.708 96.625 357.875 96.625H363.35C363.817 96.625 364.05 96.3917 364.05 95.925V67.45ZM364.8 95.925C364.8 96.8917 364.317 97.375 363.35 97.375H357.875C357.575 97.375 357.308 97.2917 357.075 97.125C356.858 96.9583 356.667 96.75 356.5 96.5C356.333 96.25 356.192 95.9833 356.075 95.7C355.958 95.4167 355.858 95.1667 355.775 94.95L355.725 94.725L355.75 94.85C355.7 94.7167 355.675 94.6667 355.675 94.7C355.692 94.7333 355.675 94.6833 355.625 94.55C354.525 95.6 353.292 96.4167 351.925 97C350.558 97.5833 349.083 97.875 347.5 97.875C345.433 97.875 343.442 97.4917 341.525 96.725C339.625 95.9583 337.95 94.875 336.5 93.475C335.05 92.0583 333.892 90.3667 333.025 88.4C332.158 86.4167 331.725 84.2167 331.725 81.8C331.725 79.5833 332.125 77.5 332.925 75.55C333.742 73.5833 334.858 71.875 336.275 70.425C337.692 68.9583 339.358 67.8 341.275 66.95C343.208 66.1 345.283 65.675 347.5 65.675C349.283 65.675 350.933 65.925 352.45 66.425C353.967 66.925 355.258 67.7417 356.325 68.875L357.075 67.325C357.175 67.1083 357.258 66.9167 357.325 66.75C357.408 66.5833 357.492 66.45 357.575 66.35C357.658 66.2333 357.767 66.15 357.9 66.1C358.05 66.0333 358.25 66 358.5 66H363.35C364.317 66 364.8 66.4833 364.8 67.45V95.925ZM355.625 81.75C355.625 82.8167 355.425 83.8333 355.025 84.8C354.642 85.7667 354.1 86.6167 353.4 87.35C352.717 88.0667 351.9 88.6417 350.95 89.075C350.017 89.4917 349.008 89.7 347.925 89.7C346.842 89.7 345.842 89.5 344.925 89.1C344.008 88.7 343.208 88.15 342.525 87.45C341.858 86.7333 341.333 85.8917 340.95 84.925C340.567 83.9417 340.375 82.8833 340.375 81.75C340.375 80.5667 340.575 79.4917 340.975 78.525C341.392 77.5417 341.942 76.7 342.625 76C343.325 75.3 344.133 74.7583 345.05 74.375C345.967 73.9917 346.925 73.8 347.925 73.8C349.008 73.8 350.017 74.0167 350.95 74.45C351.9 74.8667 352.717 75.4417 353.4 76.175C354.1 76.8917 354.642 77.7333 355.025 78.7C355.425 79.6667 355.625 80.6833 355.625 81.75ZM354.875 81.75C354.875 80.7833 354.7 79.8667 354.35 79C354 78.1167 353.508 77.35 352.875 76.7C352.258 76.0333 351.525 75.5083 350.675 75.125C349.825 74.7417 348.908 74.55 347.925 74.55C347.025 74.55 346.158 74.725 345.325 75.075C344.508 75.425 343.783 75.9167 343.15 76.55C342.533 77.1833 342.042 77.9417 341.675 78.825C341.308 79.7083 341.125 80.6833 341.125 81.75C341.125 82.7667 341.292 83.7167 341.625 84.6C341.975 85.4833 342.45 86.25 343.05 86.9C343.667 87.5333 344.392 88.0333 345.225 88.4C346.058 88.7667 346.958 88.95 347.925 88.95C348.908 88.95 349.825 88.7583 350.675 88.375C351.525 87.9917 352.258 87.475 352.875 86.825C353.508 86.1583 354 85.3917 354.35 84.525C354.7 83.6417 354.875 82.7167 354.875 81.75Z" fill="black"/>
</svg>
