<svg width="171" height="30" viewBox="0 0 171 30" fill="none" xmlns="http://www.w3.org/2000/svg">
<g clip-path="url(#clip0)">
<path d="M17.5989 7.18044H16.6601V3.03013C16.6601 2.02007 15.8526 1.19671 14.8621 1.19671H14.2894V0.239319H14.8621C16.3714 0.239319 17.5989 1.49111 17.5989 3.03013V7.18044Z" fill="#188182"/>
<path d="M4.33986 7.18044H3.401V3.03013C3.401 1.49111 4.62856 0.239319 6.13778 0.239319H6.71049V1.19671H6.13778C5.14728 1.19671 4.33986 2.02007 4.33986 3.03013V7.18044Z" fill="#188182"/>
<path d="M12.8952 1.43609H8.10704C7.71741 1.43609 7.40289 1.11537 7.40289 0.718047C7.40289 0.320728 7.71741 0 8.10704 0H12.8952C13.2849 0 13.5994 0.320728 13.5994 0.718047C13.5994 1.11537 13.2825 1.43609 12.8952 1.43609Z" fill="#188182"/>
<path d="M4.37274 28.3246V29.0426C4.37274 29.5716 4.79288 30 5.3116 30C5.83033 30 6.25047 29.5716 6.25047 29.0426V28.3246H4.37274Z" fill="#188182"/>
<path d="M14.7471 28.3246V29.0426C14.7471 29.5716 15.1673 30 15.686 30C16.2047 30 16.6249 29.5716 16.6249 29.0426V28.3246H14.7471Z" fill="#188182"/>
<path d="M7.73153 21.2087L1.66882 27.3911C2.05141 27.5778 2.47859 27.6855 2.93159 27.6855H11.1255L7.73153 21.2087Z" fill="#188182"/>
<path d="M0 15.6821V23.4538L4.96658 18.3892L0 15.6821Z" fill="#188182"/>
<path d="M18.0684 6.26373H2.92925C1.31206 6.26373 0 7.60169 0 9.25081V12.6855L1.18297 12.8458L2.03498 11.977C2.33542 11.6706 2.82363 11.6706 3.12641 11.977C3.42685 12.2834 3.42685 12.7812 3.12641 13.09L3.10763 13.1091L9.31351 13.9564L11.6208 11.6036C12.0667 11.1488 12.5596 10.7539 13.0877 10.4284C13.6158 10.1005 14.1792 9.842 14.7613 9.66249C15.2636 9.50691 15.7236 9.63855 16.017 9.94013C16.3127 10.2417 16.4418 10.7084 16.2893 11.2207C16.1109 11.8142 15.8574 12.3887 15.5382 12.9272C15.2166 13.4657 14.8317 13.9708 14.3857 14.4231L12.0785 16.7759L12.9094 23.1043L12.9281 23.0852C13.2286 22.7788 13.7168 22.7788 14.0196 23.0852C14.32 23.3915 14.32 23.8894 14.0196 24.1982L13.1675 25.067L13.5102 27.6855H18.0707C19.6903 27.6855 21.0023 26.3475 21.0023 24.696V9.25081C21 7.60169 19.6879 6.26373 18.0684 6.26373Z" fill="#188182"/>
</g>
<path d="M26.34 8.84H32.16V26H36.03V8.84H41.85V5.33H26.34V8.84ZM53.3773 8.75C55.2973 8.75 56.1673 10.52 56.1673 12.02C56.1673 13.55 55.2973 15.23 53.2573 15.23H49.1173V8.75H53.3773ZM54.9073 18.5C58.5973 17.93 60.1573 14.96 60.1573 12.02C60.1573 8.66 58.1173 5.33 53.5573 5.33H45.2773V26H49.1173V18.65H50.7073L55.5673 26H60.1873L54.9073 18.5ZM77.193 26H81.243L73.503 5.33H69.363L61.623 26H65.703L67.593 20.99H75.303L77.193 26ZM71.433 9.74L74.043 17.63H68.883L71.433 9.74ZM80.7973 5.33L87.0973 26H90.5473L96.8173 5.33H92.8273L88.8073 19.73L84.7873 5.33H80.7973ZM100.033 26H113.113V22.58H103.843V17.51H111.703V14.12H103.843V8.75H112.813V5.33H100.033V26ZM117.201 26H129.021V22.58H121.041V5.33H117.201V26ZM132.377 26H144.197V22.58H136.217V5.33H132.377V26ZM149.546 15.71C149.546 11.96 152.456 8.87 156.206 8.87C159.896 8.87 162.866 11.96 162.866 15.71C162.866 19.49 159.896 22.52 156.206 22.52C152.456 22.52 149.546 19.49 149.546 15.71ZM145.736 15.71C145.736 21.53 150.326 26.3 156.206 26.3C162.086 26.3 166.706 21.53 166.706 15.71C166.706 9.86 162.086 5.09 156.206 5.09C150.326 5.09 145.736 9.86 145.736 15.71Z" fill="#188182"/>
<defs>
<clipPath id="clip0">
<rect width="21" height="30" fill="white"/>
</clipPath>
</defs>
</svg>
