<svg width="28" height="40" viewBox="0 0 28 40" fill="none" xmlns="http://www.w3.org/2000/svg">
<g clip-path="url(#clip0)">
<path d="M23.4653 9.57392H22.2134V4.04017C22.2134 2.69343 21.1369 1.59562 19.8162 1.59562H19.0526V0.319092H19.8162C21.8285 0.319092 23.4653 1.98815 23.4653 4.04017V9.57392Z" fill="#188182"/>
<path d="M5.78648 9.57392H4.53467V4.04017C4.53467 1.98815 6.17142 0.319092 8.18371 0.319092H8.94732V1.59562H8.18371C6.86305 1.59562 5.78648 2.69343 5.78648 4.04017V9.57392Z" fill="#188182"/>
<path d="M17.1936 1.91479H10.8093C10.2898 1.91479 9.87048 1.48715 9.87048 0.957396C9.87048 0.427637 10.2898 0 10.8093 0H17.1936C17.7131 0 18.1325 0.427637 18.1325 0.957396C18.1325 1.48715 17.71 1.91479 17.1936 1.91479Z" fill="#188182"/>
<path d="M5.83032 37.7661V38.7235C5.83032 39.4288 6.39051 40 7.08214 40C7.77377 40 8.33396 39.4288 8.33396 38.7235V37.7661H5.83032Z" fill="#188182"/>
<path d="M19.6628 37.7661V38.7235C19.6628 39.4288 20.223 40 20.9147 40C21.6063 40 22.1665 39.4288 22.1665 38.7235V37.7661H19.6628Z" fill="#188182"/>
<path d="M10.3087 28.2783L2.2251 36.5214C2.73521 36.7704 3.30479 36.914 3.90879 36.914H14.834L10.3087 28.2783Z" fill="#188182"/>
<path d="M0 20.9095V31.2718L6.62211 24.5189L0 20.9095Z" fill="#188182"/>
<path d="M24.0912 8.35168H3.90567C1.74941 8.35168 0 10.1356 0 12.3345V16.914L1.57729 17.1278L2.71331 15.9694C3.11389 15.5609 3.76484 15.5609 4.16855 15.9694C4.56913 16.3779 4.56913 17.0416 4.16855 17.4533L4.14351 17.4789L12.418 18.6086L15.4944 15.4715C16.089 14.8652 16.7462 14.3386 17.4503 13.9046C18.1545 13.4674 18.9056 13.1227 19.6817 12.8834C20.3514 12.6759 20.9648 12.8514 21.356 13.2536C21.7503 13.6557 21.9224 14.278 21.719 14.9609C21.4812 15.7524 21.1432 16.5183 20.7176 17.2363C20.2888 17.9544 19.7756 18.6277 19.181 19.2309L16.1046 22.368L17.2125 30.8058L17.2375 30.7803C17.6381 30.3718 18.289 30.3718 18.6927 30.7803C19.0933 31.1888 19.0933 31.8526 18.6927 32.2642L17.5567 33.4227L18.0136 36.914H24.0943C26.2537 36.914 28.0031 35.13 28.0031 32.928V12.3345C28 10.1356 26.2506 8.35168 24.0912 8.35168Z" fill="#188182"/>
</g>
<defs>
<clipPath id="clip0">
<rect width="28" height="40" fill="white"/>
</clipPath>
</defs>
</svg>
